<?xml version="1.0" standalone="no"?>
<!DOCTYPE svg PUBLIC "-//W3C//DTD SVG 1.1//EN" "http://www.w3.org/Graphics/SVG/1.1/DTD/svg11.dtd" >
<svg>
<metadata>
Created by FontForge 20090622 at Wed Jan 31 17:31:54 2018
 By deploy user
Copyright &#194;&#169; 2004 - 2007 Linotype GmbH, www.linotype.com. All rights reserved.
</metadata>
<defs>
<font id="AvenirNext-Bold" horiz-adv-x="566" >
  <font-face 
    font-family="Avenir Next"
    font-weight="700"
    font-stretch="normal"
    units-per-em="1000"
    panose-1="2 11 8 3 2 2 2 2 2 4"
    ascent="800"
    descent="-200"
    x-height="498"
    cap-height="708"
    bbox="-537 -486 1563 1216"
    underline-thickness="50"
    underline-position="-50"
    unicode-range="U+000D-U+FE48"
  />
<missing-glyph horiz-adv-x="512" 
d="M222 117v67h56v-67h-56zM225 234l-2 17q0 56 13 81q7 13 18 27.5t28 31.5q16 15 26 26.5t15 21t7 18t2 17.5q0 36 -22.5 60.5t-53.5 24.5t-53.5 -22t-28.5 -73l-50 8q7 72 44 104.5t91 32.5t89 -35.5t35 -95.5q0 -32 -12.5 -58.5t-50.5 -61.5q-37 -33 -43 -52
q-6 -20 -6 -72h-46zM462 50v617h-412v-617h412zM512 718v-718h-512v718h512z" />
    <glyph glyph-name="IJ" unicode="IJ" horiz-adv-x="837" 
d="M73 0v708h172v-708h-172zM768 242q0 -42 -9.5 -88t-35 -84.5t-71 -63.5t-117.5 -25q-90 0 -150 46.5t-80 119.5l151 51q7 -28 25.5 -45t45.5 -17q42 0 55.5 29t13.5 76v467h172v-466z" />
    <glyph glyph-name="ij" unicode="ij" horiz-adv-x="589" 
d="M242 657q0 -19 -7.5 -35.5t-20 -28.5t-30 -19t-36.5 -7q-40 0 -67 26.5t-27 63.5q0 18 7 34.5t20 28.5t30 19.5t37 7.5q19 0 36.5 -7t30 -19t20 -28.5t7.5 -35.5zM66 0v498h164v-498h-164zM535 657q0 -19 -7.5 -35.5t-20 -28.5t-30 -19t-36.5 -7q-40 0 -67 26.5t-27 63.5
q0 18 7 34.5t20 28.5t30 19.5t37 7.5q19 0 36.5 -7t30 -19t20 -28.5t7.5 -35.5zM523 -13q0 -46 -8.5 -87.5t-30.5 -72.5t-61 -49t-99 -18q-17 0 -37 2t-34 6l11 137q9 -3 18.5 -4t16.5 -1q36 0 48 24.5t12 62.5v511h164v-511z" />
    <glyph glyph-name="napostrophe" unicode="&#x22;n" horiz-adv-x="706" 
d="M481 0v272q0 21 -3.5 40t-11.5 33.5t-22.5 23t-36.5 8.5t-38.5 -8.5t-27.5 -23.5t-16.5 -34.5t-5.5 -40.5v-270h-165v498h159v-69h2q9 16 23.5 31.5t34 26.5t42.5 18t49 7q50 0 85 -18t56.5 -46.5t31 -65.5t9.5 -74v-308h-165zM117 513h-126l67 195h145z" />
    <glyph glyph-name="fi" unicode="fi" horiz-adv-x="665" 
d="M611 657q0 -19 -7.5 -35.5t-20.5 -28.5t-30 -19t-36 -7q-40 0 -67 26.5t-27 63.5q0 18 7 34.5t20 28.5t30 19.5t37 7.5q19 0 36 -7t30 -19t20.5 -28.5t7.5 -35.5zM434 0v498h165v-498h-165zM373 635q-9 3 -21 5t-24 2q-23 0 -37 -8t-22 -21.5t-11 -30.5t-3 -34v-50h111
v-123h-111v-375h-164v375h-91v123h91v48q0 46 10 87.5t34.5 73t66 50t103.5 18.5q21 0 41.5 -2.5t37.5 -7.5z" />
    <glyph glyph-name="fl" unicode="fl" horiz-adv-x="666" 
d="M434 0v756h166v-756h-166zM373 635q-9 3 -21 5t-24 2q-23 0 -37 -8t-22 -21.5t-11 -30.5t-3 -34v-50h111v-123h-111v-375h-164v375h-91v123h91v48q0 46 10 87.5t34.5 73t66 50t103.5 18.5q21 0 41.5 -2.5t37.5 -7.5z" />
    <glyph glyph-name=".notdef" horiz-adv-x="512" 
d="M222 117v67h56v-67h-56zM225 234l-2 17q0 56 13 81q7 13 18 27.5t28 31.5q16 15 26 26.5t15 21t7 18t2 17.5q0 36 -22.5 60.5t-53.5 24.5t-53.5 -22t-28.5 -73l-50 8q7 72 44 104.5t91 32.5t89 -35.5t35 -95.5q0 -32 -12.5 -58.5t-50.5 -61.5q-37 -33 -43 -52
q-6 -20 -6 -72h-46zM462 50v617h-412v-617h412zM512 718v-718h-512v718h512z" />
    <glyph glyph-name=".null" horiz-adv-x="500" 
 />
    <glyph glyph-name=".null" horiz-adv-x="500" 
 />
    <glyph glyph-name="nonmarkingreturn" unicode="&#xd;" horiz-adv-x="0" 
 />
    <glyph glyph-name="space" unicode=" " horiz-adv-x="250" 
 />
    <glyph glyph-name="exclam" unicode="!" horiz-adv-x="357" 
d="M94 237v471h168v-471h-168zM276 85q0 -20 -7.5 -37.5t-21 -30t-31.5 -20t-38 -7.5t-37.5 7t-30.5 20t-21 30t-8 37q0 19 7.5 36.5t20.5 30.5t31 20.5t38 7.5t38 -7.5t31.5 -20t21 -30t7.5 -36.5z" />
    <glyph glyph-name="quotedbl" unicode="&#x22;" horiz-adv-x="498" 
d="M281 437v271h130v-271h-130zM86 437v271h131v-271h-131z" />
    <glyph glyph-name="numbersign" unicode="#" horiz-adv-x="603" 
d="M458 404l-14 -100h85v-104h-98l-30 -200h-110l29 200h-79l-29 -200h-110l29 200h-85v104h99l15 100h-85v104h98l29 200h111l-29 -200h78l29 200h110l-28 -200h84v-104h-99zM269 404l-13 -100h78l14 100h-79z" />
    <glyph glyph-name="dollar" unicode="$" horiz-adv-x="646" 
d="M360 718q57 -2 117 -20t107 -56l-97 -109q-25 25 -60 39t-67 15v-160q39 -12 79 -27t73 -40t54 -61t21 -90q0 -55 -19.5 -95.5t-52 -67.5t-74 -41t-85.5 -15v-73h-74v73q-65 2 -131 24.5t-116 67.5l53 54l52 56q13 -15 31 -27.5t37 -21.5t38 -14.5t36 -5.5v175
q-43 12 -82.5 27t-69.5 39t-48 58.5t-18 84.5q0 49 20 87.5t52 65t72 41t79 16.5v69h73v-68zM287 589q-27 -3 -48.5 -20.5t-21.5 -50.5q0 -32 19 -49t51 -25v145zM356 122q34 2 53.5 22.5t19.5 55.5t-20.5 52.5t-52.5 27.5v-158z" />
    <glyph glyph-name="percent" unicode="%" horiz-adv-x="911" 
d="M889 177q0 -39 -15 -73.5t-40.5 -60t-60.5 -40.5t-74 -15t-74 15t-60.5 40.5t-40.5 60t-15 73.5t15 73.5t40.5 60t60.5 40.5t74 15t74 -15t60.5 -40.5t40.5 -60t15 -73.5zM777 177q0 16 -6.5 30.5t-17 25t-24.5 16.5t-30 6q-32 0 -55 -23t-23 -55t23 -54.5t55 -22.5
q16 0 30 6t24.5 16.5t17 24.5t6.5 30zM409 531q0 -39 -15 -73.5t-40.5 -60t-60.5 -40.5t-74 -15t-74 15t-60.5 40.5t-40.5 60t-15 73.5q0 40 15 74.5t40.5 60t60.5 40t74 14.5t74 -14.5t60.5 -40t40.5 -60t15 -74.5zM297 531q0 32 -23 55t-55 23t-55 -23t-23 -55t23 -54.5
t55 -22.5t55 22.5t23 54.5zM296 -34l-89 44l413 730l93 -45z" />
    <glyph glyph-name="ampersand" unicode="&#x26;" horiz-adv-x="781" 
d="M573 0l-67 69q-34 -36 -83.5 -59.5t-123.5 -23.5q-48 0 -94 12.5t-81.5 39t-57 66t-21.5 93.5q0 37 12 68t32.5 55t47.5 42t56 31q-33 32 -53 70t-20 84q0 48 20 82t51.5 56t71 32t78.5 10q40 0 79 -10.5t69.5 -32.5t49 -56t18.5 -81q0 -34 -11 -61.5t-30.5 -50
t-45.5 -40.5t-55 -33l89 -91l71 109h182l-153 -205l176 -175h-207zM410 542q0 27 -18 46t-49 19q-29 0 -48.5 -18.5t-19.5 -46.5q0 -25 13.5 -48t39.5 -44q34 14 58 37t24 55zM284 299q-30 -12 -52.5 -33.5t-22.5 -61.5q0 -21 8.5 -37.5t22 -28t30.5 -17.5t35 -6q33 0 59 14
t45 40z" />
    <glyph glyph-name="quotesingle" unicode="'" horiz-adv-x="303" 
d="M86 437v271h130v-271h-130z" />
    <glyph glyph-name="parenleft" unicode="(" horiz-adv-x="342" 
d="M176 -166q-71 98 -109 214.5t-38 239.5t38 239.5t109 214.5l112 -55q-63 -87 -96.5 -188.5t-33.5 -210.5t33.5 -210.5t96.5 -188.5z" />
    <glyph glyph-name="parenright" unicode=")" horiz-adv-x="342" 
d="M313 288q0 -123 -38 -239.5t-109 -214.5l-112 55q63 87 96.5 188.5t33.5 210.5t-33.5 210.5t-96.5 188.5l112 55q71 -98 109 -214.5t38 -239.5z" />
    <glyph glyph-name="asterisk" unicode="*" horiz-adv-x="489" 
d="M333 478l81 -107l-90 -63l-81 109l-79 -105l-88 63l81 104l-129 43l35 100l127 -44v130h110v-130l127 40l34 -100z" />
    <glyph glyph-name="plus" unicode="+" horiz-adv-x="666" 
d="M399 240v-209h-130v209h-213v126h212v209h130v-209h213v-126h-212z" />
    <glyph glyph-name="comma" unicode="," horiz-adv-x="300" 
d="M155 -124h-135l75 284h157z" />
    <glyph glyph-name="hyphen" unicode="-" horiz-adv-x="326" 
d="M36 197v130h254v-130h-254z" />
    <glyph glyph-name="period" unicode="." horiz-adv-x="300" 
d="M251 88q0 -42 -29.5 -70t-70.5 -28q-21 0 -39.5 7.5t-32.5 20.5t-22 30.5t-8 38.5q0 20 8 38t22 31.5t32.5 21.5t39.5 8q41 0 70.5 -28t29.5 -70z" />
    <glyph glyph-name="slash" unicode="/" horiz-adv-x="415" 
d="M106 -52l-113 37l309 777l113 -39z" />
    <glyph glyph-name="zero" unicode="0" horiz-adv-x="646" 
d="M600 356q0 -75 -15 -143t-48 -119.5t-85.5 -82t-127.5 -30.5t-128 30.5t-86.5 82t-48.5 119.5t-15 143t15 142.5t48.5 118t86.5 80.5t128 30t127.5 -30t85.5 -80.5t48 -118t15 -142.5zM428 356q0 33 -4 73t-15 74.5t-31.5 58t-53.5 23.5t-54 -23.5t-32.5 -58t-15.5 -74.5
t-4 -73q0 -34 4 -74.5t15.5 -75t32.5 -58t54 -23.5t53.5 23.5t31.5 58t15 75t4 74.5z" />
    <glyph glyph-name="one" unicode="1" horiz-adv-x="646" 
d="M283 0v520l-132 -102l-87 119l233 171h154v-708h-168z" />
    <glyph glyph-name="two" unicode="2" horiz-adv-x="646" 
d="M68 0v140l276 250q26 25 42 51t16 58q0 38 -24 61.5t-64 23.5q-42 0 -68.5 -29.5t-31.5 -77.5l-161 22q6 54 29.5 96t59.5 71.5t82.5 45t98.5 15.5q49 0 95 -13t82 -40t57.5 -68t21.5 -96q0 -38 -10 -68.5t-27.5 -56.5t-39.5 -49l-47 -44l-164 -146h289v-146h-512z" />
    <glyph glyph-name="three" unicode="3" horiz-adv-x="646" 
d="M583 206q0 -58 -23.5 -100.5t-61.5 -70t-85.5 -41t-96.5 -13.5q-48 0 -93.5 11t-83 33.5t-65.5 58t-42 85.5l156 41q10 -35 41 -61.5t79 -26.5q18 0 36.5 5t33 15.5t24 27.5t9.5 42q0 27 -12.5 45t-33 28.5t-46.5 15t-52 4.5h-45v123h49q24 0 46 3.5t39.5 13t28 25.5
t10.5 42q0 38 -27 58t-62 20q-36 0 -62.5 -21.5t-34.5 -57.5l-156 36q13 45 39 78.5t61.5 56t77.5 34t86 11.5q47 0 91.5 -12t79.5 -37t56.5 -62.5t21.5 -88.5q0 -59 -33.5 -99.5t-85.5 -54.5v-3q30 -7 55 -22.5t43 -37t28 -48t10 -56.5z" />
    <glyph glyph-name="four" unicode="4" horiz-adv-x="646" 
d="M515 138v-138h-157v138h-333v141l288 429h201v-434h98v-136h-97zM359 536h-3l-168 -262h171v262z" />
    <glyph glyph-name="five" unicode="5" horiz-adv-x="646" 
d="M582 234q0 -65 -23 -112.5t-61.5 -78.5t-87.5 -46.5t-101 -15.5q-48 0 -91.5 12.5t-79 35.5t-61 56.5t-37.5 75.5l153 47q11 -37 41.5 -61t72.5 -24q43 0 74.5 26t31.5 77q0 31 -13 52t-33.5 33.5t-46.5 17.5t-52 5q-38 0 -86.5 -8.5t-86.5 -22.5l17 405h434v-144h-285
l-6 -112q16 4 35.5 5.5t35.5 1.5q53 0 100 -14t81.5 -42.5t54.5 -70.5t20 -98z" />
    <glyph glyph-name="six" unicode="6" horiz-adv-x="646" 
d="M601 238q0 -60 -22 -108t-60 -81t-89 -50.5t-108 -17.5q-58 0 -108.5 17.5t-88.5 50.5t-60 80t-22 105q0 63 22 114.5t57 104.5l171 255h203l-174 -242l-3 -5q10 4 24 6t26 2q46 0 88.5 -16.5t74 -47t50.5 -73t19 -94.5zM433 234q0 48 -30 79.5t-80 31.5t-81 -31t-31 -81
q0 -46 30 -79t81 -33q50 0 80.5 31t30.5 82z" />
    <glyph glyph-name="seven" unicode="7" horiz-adv-x="646" 
d="M306 0h-195l287 564h-335v144h514v-134z" />
    <glyph glyph-name="eight" unicode="8" horiz-adv-x="646" 
d="M589 202q0 -56 -22 -97.5t-58.5 -69t-85 -41t-100.5 -13.5q-53 0 -101 13.5t-84.5 40.5t-58.5 68.5t-22 97.5q0 32 10 59.5t27.5 49t40.5 37t49 23.5v2q-46 17 -77 55.5t-31 97.5q0 49 20 87t54 63.5t79 38.5t94 13t93.5 -12.5t78.5 -37.5t54.5 -62.5t20.5 -86.5
q0 -59 -30 -99t-78 -56v-3q27 -8 50 -23.5t40 -37t27 -49t10 -58.5zM408 516q0 35 -25 58t-60 23q-38 0 -61 -23t-23 -58q0 -34 22.5 -59t61.5 -25q37 0 61 25t24 59zM421 208q0 41 -27.5 68.5t-70.5 27.5q-44 0 -71.5 -27t-27.5 -69q0 -43 27.5 -68.5t71.5 -25.5t71 25.5
t27 68.5z" />
    <glyph glyph-name="nine" unicode="9" horiz-adv-x="646" 
d="M602 474q0 -63 -22 -114.5t-57 -104.5l-171 -255h-203l176 244l2 3q-11 -4 -24.5 -6t-25.5 -2q-47 0 -89 16.5t-74 47t-51 73t-19 94.5q0 60 22 108t60 81t89 50.5t108 17.5q58 0 109 -17.5t88.5 -50.5t59.5 -80t22 -105zM434 476q0 46 -29.5 79.5t-80.5 33.5
t-81.5 -31.5t-30.5 -82.5q0 -48 30 -79.5t80 -31.5t81 31t31 81z" />
    <glyph glyph-name="colon" unicode=":" horiz-adv-x="332" 
d="M264 410q0 -20 -8 -37.5t-21 -30.5t-31 -20.5t-37 -7.5q-20 0 -38 7t-31.5 20t-21.5 30t-8 37t8 37.5t21.5 30.5t31.5 20.5t38 7.5q19 0 37 -7.5t31 -20t21 -30t8 -36.5zM264 89q0 -20 -8 -37.5t-21 -30t-31 -20t-37 -7.5q-20 0 -38 7t-31.5 20t-21.5 30t-8 37t8 37.5
t21.5 30.5t31.5 20.5t38 7.5q19 0 37 -7.5t31 -20t21 -30t8 -37.5z" />
    <glyph glyph-name="semicolon" unicode=";" horiz-adv-x="332" 
d="M264 410q0 -40 -28.5 -67.5t-68.5 -27.5q-20 0 -37.5 7t-31 20t-21.5 30t-8 37t7.5 37.5t21 30.5t31.5 20.5t38 7.5q19 0 37 -7.5t31 -20t21 -30t8 -37.5zM168 -124h-138l75 284h160z" />
    <glyph glyph-name="less" unicode="&#x3c;" horiz-adv-x="666" 
d="M79 251v103l508 214v-136l-306 -131l306 -127v-137z" />
    <glyph glyph-name="equal" unicode="=" horiz-adv-x="666" 
d="M68 335v123h530v-123h-530zM68 150v123h530v-123h-530z" />
    <glyph glyph-name="greater" unicode="&#x3e;" horiz-adv-x="666" 
d="M79 37v137l306 127l-306 131v136l508 -214v-103z" />
    <glyph glyph-name="question" unicode="?" horiz-adv-x="546" 
d="M527 527q0 -33 -8 -58t-22.5 -46t-35 -39.5t-46.5 -38.5q-16 -13 -26.5 -23t-16.5 -20.5t-8.5 -22t-2.5 -27.5v-26h-156v38q0 26 5 46.5t15 37.5t24.5 33t34.5 33l33 31q17 15 29 31.5t12 39.5q0 32 -19.5 51t-53.5 19q-42 0 -63 -28.5t-23 -64.5l-159 17q6 54 27.5 95
t55.5 68t77 40.5t91 13.5q45 0 87.5 -11.5t75.5 -36t53 -62.5t20 -90zM381 85q0 -40 -28 -67.5t-69 -27.5q-20 0 -37.5 7t-31 20t-21.5 30t-8 37q0 19 7.5 36.5t21 30.5t31.5 20.5t38 7.5t37.5 -7.5t31 -20t21 -30t7.5 -36.5z" />
    <glyph glyph-name="at" unicode="@" horiz-adv-x="800" 
d="M774 401q0 -57 -15.5 -102t-43.5 -76t-65.5 -47t-80.5 -16q-40 0 -65.5 17.5t-29.5 46.5h-4q-14 -23 -44 -43.5t-75 -20.5q-34 0 -60.5 12.5t-45 35t-28.5 53.5t-10 68q0 42 13.5 82.5t39 72t60.5 51t79 19.5q38 0 63 -16t32 -38h1l7 34h108l-31 -157q-5 -24 -9 -46
t-4 -37q0 -14 6 -25t23 -11q30 0 53.5 34.5t23.5 104.5q0 58 -19 102.5t-53.5 74.5t-82 45.5t-104.5 15.5q-61 0 -111.5 -21.5t-86.5 -59t-56 -89.5t-20 -112q0 -64 21 -115t59.5 -87t91 -55.5t115.5 -19.5q72 0 128.5 22.5t101.5 63.5l63 -70q-58 -57 -135.5 -83.5
t-168.5 -26.5q-85 0 -156 27.5t-122 76.5t-79.5 117.5t-28.5 149.5q0 80 30.5 148t82.5 118t122 78.5t150 28.5q70 0 135.5 -20.5t115 -61.5t79.5 -101.5t30 -141.5zM465 379q0 15 -2.5 29t-8.5 25t-17 17.5t-28 6.5q-19 0 -34 -11.5t-26 -30t-17 -41.5t-6 -45
q0 -25 11.5 -47.5t43.5 -22.5q22 0 38 11.5t26 29.5t15 39t5 40z" />
    <glyph glyph-name="A" unicode="A" horiz-adv-x="729" 
d="M553 0l-55 139h-274l-52 -139h-186l297 708h166l294 -708h-190zM363 519l-90 -243h178z" />
    <glyph glyph-name="B" unicode="B" horiz-adv-x="665" 
d="M625 206q0 -58 -23 -97.5t-61 -63.5t-86.5 -34.5t-99.5 -10.5h-282v708h282q41 0 84 -8.5t78 -29t57 -55.5t22 -89q0 -59 -32 -97.5t-84 -55.5v-2q30 -5 56.5 -18.5t46 -34.5t31 -49t11.5 -63zM431 503q0 36 -27.5 52.5t-81.5 16.5h-84v-146h92q48 0 74.5 19.5t26.5 57.5
zM454 222q0 44 -33 61t-88 17h-95v-162h96q20 0 41.5 3.5t39 12.5t28.5 25.5t11 42.5z" />
    <glyph glyph-name="C" unicode="C" horiz-adv-x="696" 
d="M696 98q-47 -54 -116 -85.5t-159 -31.5q-82 0 -151.5 27t-120.5 76.5t-80 118.5t-29 152q0 85 29.5 154t81.5 117.5t122 74.5t151 26q75 0 147.5 -26.5t117.5 -77.5l-116 -116q-24 33 -63 49t-80 16q-45 0 -82.5 -16.5t-64.5 -45.5t-42 -68.5t-15 -86.5q0 -48 15 -88
t41.5 -68.5t63.5 -44.5t81 -16q51 0 89 20t61 52z" />
    <glyph glyph-name="D" unicode="D" horiz-adv-x="774" 
d="M734 356q0 -93 -34.5 -160.5t-91 -111t-127.5 -64t-144 -20.5h-264v708h256q75 0 148 -17.5t130 -58t92 -108.5t35 -168zM556 356q0 60 -19.5 99.5t-52 63t-74 33.5t-85.5 10h-85v-414h81q46 0 88.5 10.5t75 34.5t52 64t19.5 99z" />
    <glyph glyph-name="E" unicode="E" horiz-adv-x="607" 
d="M73 0v708h476v-145h-311v-133h294v-137h-294v-147h329v-146h-494z" />
    <glyph glyph-name="F" unicode="F" horiz-adv-x="576" 
d="M242 562v-146h274v-141h-274v-275h-169v708h466v-146h-297z" />
    <glyph glyph-name="G" unicode="G" horiz-adv-x="769" 
d="M702 43q-52 -27 -121.5 -44t-151.5 -17q-85 0 -156.5 27t-123 76t-80.5 117.5t-29 152.5q0 85 29.5 154t81.5 117.5t122 74.5t151 26q84 0 156 -25.5t117 -68.5l-108 -123q-25 29 -66 47.5t-93 18.5q-45 0 -83 -16.5t-66 -46t-43.5 -70t-15.5 -88.5q0 -49 14 -90
t41.5 -70.5t68 -46t92.5 -16.5q30 0 57 4.5t50 14.5v129h-135v138h292v-375z" />
    <glyph glyph-name="H" unicode="H" horiz-adv-x="764" 
d="M520 0v296h-276v-296h-171v708h171v-268h276v268h171v-708h-171z" />
    <glyph glyph-name="I" unicode="I" horiz-adv-x="318" 
d="M73 0v708h172v-708h-172z" />
    <glyph glyph-name="J" unicode="J" horiz-adv-x="529" 
d="M460 242q0 -42 -9.5 -88t-35 -84.5t-71 -63.5t-117.5 -25q-90 0 -150 46.5t-80 119.5l151 51q7 -28 25.5 -45t45.5 -17q42 0 55.5 29t13.5 76v467h172v-466z" />
    <glyph glyph-name="K" unicode="K" horiz-adv-x="711" 
d="M506 0l-263 326h-2v-326h-168v708h168v-288h3l253 288h214l-305 -326l323 -382h-223z" />
    <glyph glyph-name="L" unicode="L" horiz-adv-x="526" 
d="M73 0v708h172v-559h274v-149h-446z" />
    <glyph glyph-name="M" unicode="M" horiz-adv-x="955" 
d="M715 0l4 501h-3l-184 -501h-120l-179 501h-3l4 -501h-161v708h243l161 -454h4l154 454h247v-708h-167z" />
    <glyph glyph-name="N" unicode="N" horiz-adv-x="790" 
d="M523 0l-285 463h-3l4 -463h-166v708h195l284 -462h3l-4 462h166v-708h-194z" />
    <glyph glyph-name="O" unicode="O" horiz-adv-x="851" 
d="M811 357q0 -84 -29 -153.5t-80.5 -119t-122.5 -76.5t-154 -27t-153.5 27t-122 76.5t-80.5 119t-29 153.5q0 85 29 153.5t80.5 116.5t122 74t153.5 26t154 -26t122.5 -74t80.5 -116.5t29 -153.5zM628 357q0 46 -15 86t-41.5 68.5t-64 45t-82.5 16.5t-82 -16.5t-64 -45
t-41.5 -68.5t-14.5 -86q0 -48 15 -88.5t41.5 -69.5t63.5 -45.5t82 -16.5t82 16.5t64 45.5t42 69.5t15 88.5z" />
    <glyph glyph-name="P" unicode="P" horiz-adv-x="640" 
d="M610 490q0 -62 -23 -104.5t-62 -68.5t-90 -38t-106 -12h-85v-267h-171v708h260q58 0 108.5 -11.5t88 -37t59 -67t21.5 -102.5zM439 489q0 25 -10 41t-27 25t-38.5 12t-44.5 3h-75v-167h72q24 0 46 4t39.5 14t27.5 26.5t10 41.5z" />
    <glyph glyph-name="Q" unicode="Q" horiz-adv-x="857" 
d="M414 0q-84 0 -154 24t-119.5 70.5t-77 114t-27.5 154.5q0 81 29 148t80.5 115t122 74.5t152.5 26.5t152 -26.5t121 -74t79.5 -114t28.5 -146.5q0 -41 -9 -76.5t-24 -64.5t-34 -51.5t-38 -37.5v-3l149 3v-136h-431zM620 361q0 46 -14.5 85t-41 67t-63.5 43.5t-81 15.5
q-43 0 -79.5 -15.5t-63.5 -43.5t-42 -67t-15 -85q0 -48 14.5 -87.5t41 -68t63 -44t80.5 -15.5q43 0 80 15.5t64 44t42 68t15 87.5z" />
    <glyph glyph-name="R" unicode="R" horiz-adv-x="663" 
d="M452 0l-153 281h-58v-281h-168v708h270q51 0 99.5 -10.5t87 -35.5t61.5 -66t23 -102q0 -72 -39 -121t-108 -70l185 -303h-200zM445 491q0 25 -10.5 40.5t-27 24t-37 11.5t-39.5 3h-91v-165h81q21 0 43 3.5t40 12.5t29.5 26t11.5 44z" />
    <glyph glyph-name="S" unicode="S" horiz-adv-x="591" 
d="M447 524q-22 28 -57.5 44.5t-68.5 16.5q-17 0 -34.5 -3t-31.5 -11.5t-23.5 -22t-9.5 -34.5q0 -18 7.5 -30t22 -21t34.5 -16.5t45 -15.5q36 -12 75 -26.5t71 -38.5t53 -59.5t21 -88.5q0 -61 -22.5 -105.5t-60.5 -73.5t-87 -43t-101 -14q-76 0 -147 26.5t-118 75.5l112 114
q26 -32 68.5 -53.5t84.5 -21.5q19 0 37 4t31.5 13t21.5 24t8 36q0 20 -10 34t-28.5 25.5t-46 21t-62.5 20.5q-34 11 -66.5 26t-58 38.5t-41 57t-15.5 81.5q0 59 24 101t63 69t88 39.5t99 12.5q60 0 122.5 -22t109.5 -65z" />
    <glyph glyph-name="T" unicode="T" horiz-adv-x="581" 
d="M376 562v-562h-171v562h-200v146h571v-146h-200z" />
    <glyph glyph-name="U" unicode="U" horiz-adv-x="738" 
d="M673 267q0 -64 -21.5 -116.5t-61.5 -90t-96.5 -58.5t-125.5 -21q-70 0 -126 21t-95 58.5t-60 90t-21 116.5v441h170v-427q0 -29 7.5 -55t23 -46.5t41 -32.5t61.5 -12t61.5 12t41.5 32.5t23 46.5t7 55v427h171v-441z" />
    <glyph glyph-name="V" unicode="V" horiz-adv-x="682" 
d="M424 0h-171l-268 708h192l164 -502h4l163 502h189z" />
    <glyph glyph-name="W" unicode="W" horiz-adv-x="1025" 
d="M823 0h-169l-140 479h-3l-140 -479h-170l-201 708h184l112 -471h3l126 471h178l127 -471h3l114 471h178z" />
    <glyph glyph-name="X" unicode="X" horiz-adv-x="703" 
d="M500 0l-155 250l-149 -250h-204l248 374l-228 334h206l132 -220l130 220h199l-224 -334l256 -374h-211z" />
    <glyph glyph-name="Y" unicode="Y" horiz-adv-x="669" 
d="M417 300v-300h-171v300l-266 408h207l151 -262l151 262h200z" />
    <glyph glyph-name="Z" unicode="Z" horiz-adv-x="635" 
d="M39 0v148l337 415h-329v145h543v-137l-345 -423h352v-148h-558z" />
    <glyph glyph-name="bracketleft" unicode="[" horiz-adv-x="342" 
d="M53 -156v888h216v-102h-89v-684h89v-102h-216z" />
    <glyph glyph-name="backslash" unicode="\" horiz-adv-x="415" 
d="M309 -52l-308 775l113 39l308 -777z" />
    <glyph glyph-name="bracketright" unicode="]" horiz-adv-x="342" 
d="M73 -156v102h89v684h-89v102h216v-888h-216z" />
    <glyph glyph-name="asciicircum" unicode="^" horiz-adv-x="690" 
d="M468 343l-124 213l-123 -213h-148l213 365h118l212 -365h-148z" />
    <glyph glyph-name="underscore" unicode="_" horiz-adv-x="500" 
d="M0 -164v89h500v-89h-500z" />
    <glyph glyph-name="grave" unicode="`" horiz-adv-x="300" 
d="M107 572l-146 144h166l104 -144h-124z" />
    <glyph glyph-name="a" unicode="a" 
d="M358 217h-21q-27 0 -54.5 -2.5t-49 -9.5t-35.5 -20.5t-14 -35.5q0 -14 6.5 -24t16.5 -16t23 -8.5t25 -2.5q50 0 76.5 27.5t26.5 74.5v17zM57 430q44 42 102.5 63t119.5 21q63 0 106.5 -15.5t70.5 -48t39.5 -82t12.5 -117.5v-251h-150v53h-3q-19 -31 -57.5 -48t-83.5 -17
q-30 0 -62 8t-58.5 26t-43.5 48t-17 74q0 54 29.5 87t76 51t103.5 24t111 6v8q0 37 -26 54.5t-64 17.5q-35 0 -67.5 -15t-55.5 -36z" />
    <glyph glyph-name="b" unicode="b" horiz-adv-x="659" 
d="M619 251q0 -52 -16 -100t-46.5 -84.5t-74.5 -58.5t-100 -22q-50 0 -94.5 20.5t-68.5 58.5h-2v-65h-151v756h164v-311h2q21 25 59 46t93 21q54 0 97.5 -21t74 -57t47 -83.5t16.5 -99.5zM461 251q0 24 -7.5 47t-22.5 40.5t-37 28.5t-51 11q-28 0 -50 -11t-37.5 -29t-24 -41
t-8.5 -47t8.5 -47t24 -41t37.5 -29t50 -11q29 0 51 11t37 29t22.5 41.5t7.5 47.5z" />
    <glyph glyph-name="c" unicode="c" horiz-adv-x="503" 
d="M407 337q-14 18 -38 29t-49 11q-26 0 -47 -10.5t-36 -28t-23.5 -40.5t-8.5 -49t8 -49t23.5 -40.5t37 -27.5t48.5 -10q25 0 49.5 9.5t39.5 27.5l91 -111q-31 -30 -80 -47t-104 -17q-59 0 -110 18t-88.5 52.5t-59 83.5t-21.5 111q0 61 21.5 110t59 83.5t88.5 53t109 18.5
q27 0 53.5 -5t51 -13.5t45 -21t35.5 -27.5z" />
    <glyph glyph-name="d" unicode="d" horiz-adv-x="658" 
d="M441 0v65h-2q-24 -38 -68.5 -58.5t-94.5 -20.5q-56 0 -100 22t-74.5 58.5t-46.5 84.5t-16 100t16.5 99.5t47 83.5t74 57t97.5 21q55 0 93 -21t59 -46h2v311h164v-756h-151zM435 250q0 24 -8.5 47t-24 41t-37.5 29t-50 11q-29 0 -51 -11t-37 -28.5t-22.5 -40.5t-7.5 -47
t7.5 -47.5t22.5 -41.5t37 -29t51 -11q28 0 50 11t37.5 29t24 41t8.5 47z" />
    <glyph glyph-name="e" unicode="e" horiz-adv-x="596" 
d="M407 306q0 39 -24.5 67t-73.5 28q-24 0 -44 -7.5t-35 -20.5t-24 -30.5t-10 -36.5h211zM558 243v-20q0 -10 -1 -19h-361q2 -21 12.5 -38t27 -29.5t37 -19.5t42.5 -7q39 0 66 14.5t44 37.5l114 -72q-35 -51 -92.5 -78.5t-133.5 -27.5q-56 0 -106 17.5t-87.5 51t-59 82.5
t-21.5 112q0 61 21 110.5t57 84t85 53.5t106 19q55 0 101 -18.5t79 -53.5t51.5 -85t18.5 -114z" />
    <glyph glyph-name="f" unicode="f" horiz-adv-x="364" 
d="M373 635q-9 3 -21 5t-24 2q-23 0 -37 -8t-22 -21.5t-11 -30.5t-3 -34v-50h111v-123h-111v-375h-164v375h-91v123h91v48q0 46 10 87.5t34.5 73t66 50t103.5 18.5q21 0 41.5 -2.5t37.5 -7.5z" />
    <glyph glyph-name="g" unicode="g" horiz-adv-x="658" 
d="M592 47q0 -73 -21 -127t-59 -89.5t-92.5 -53t-120.5 -17.5t-135.5 20t-120.5 58l82 117q36 -32 79.5 -47.5t85.5 -15.5q72 0 106.5 38t34.5 101v30h-3q-23 -30 -62 -48t-89 -18q-57 0 -101 20.5t-74.5 55.5t-46.5 81.5t-16 98.5t16 99t46.5 83t74.5 57.5t100 21.5
q47 0 90 -19t69 -59h2v64h155v-451zM436 252q0 25 -8.5 48t-24.5 40.5t-38 27.5t-50 10t-49.5 -10t-36.5 -27t-23 -40t-8 -49q0 -25 8 -48t23 -40.5t36.5 -28t49.5 -10.5t50.5 10.5t38 27.5t24 40t8.5 49z" />
    <glyph glyph-name="h" unicode="h" horiz-adv-x="617" 
d="M392 0v270q0 21 -3 40t-11.5 33.5t-22.5 23t-36 8.5q-43 0 -66 -30.5t-23 -75.5v-269h-164v756h164v-321h2q17 30 54 53.5t89 23.5q51 0 85.5 -18t56 -46.5t31 -65.5t9.5 -74v-308h-165z" />
    <glyph glyph-name="i" unicode="i" horiz-adv-x="296" 
d="M242 657q0 -19 -7.5 -35.5t-20 -28.5t-30 -19t-36.5 -7q-40 0 -67 26.5t-27 63.5q0 18 7 34.5t20 28.5t30 19.5t37 7.5q19 0 36.5 -7t30 -19t20 -28.5t7.5 -35.5zM66 0v498h164v-498h-164z" />
    <glyph glyph-name="j" unicode="j" horiz-adv-x="299" 
d="M245 657q0 -19 -7.5 -35.5t-20 -28.5t-30 -19t-36.5 -7q-40 0 -67 26.5t-27 63.5q0 18 7 34.5t20 28.5t30 19.5t37 7.5q19 0 36.5 -7t30 -19t20 -28.5t7.5 -35.5zM233 -13q0 -46 -8.5 -87.5t-30.5 -72.5t-61 -49t-99 -18q-17 0 -37 2t-34 6l11 137q9 -3 18.5 -4t16.5 -1
q36 0 48 24.5t12 62.5v511h164v-511z" />
    <glyph glyph-name="k" unicode="k" horiz-adv-x="595" 
d="M599 0h-203l-163 239h-3v-239h-165v756h165v-460h3l159 202h199l-192 -225z" />
    <glyph glyph-name="l" unicode="l" horiz-adv-x="298" 
d="M66 0v756h166v-756h-166z" />
    <glyph glyph-name="m" unicode="m" horiz-adv-x="924" 
d="M700 0v272q0 21 -3 40.5t-11 33.5t-21.5 22.5t-35.5 8.5q-21 0 -36.5 -9t-26 -24t-15.5 -34.5t-5 -40.5v-269h-164v284q0 43 -17 68t-54 25q-39 0 -60.5 -31t-21.5 -76v-270h-165v498h159v-69h2q9 16 22.5 31t32.5 26.5t42.5 18.5t51.5 7q54 0 91.5 -22t58.5 -63
q25 39 64 62t95 23q51 0 85.5 -18.5t55.5 -48t30.5 -66t9.5 -71.5v-308h-164z" />
    <glyph glyph-name="n" unicode="n" horiz-adv-x="616" 
d="M391 0v272q0 21 -3.5 40t-11.5 33.5t-22.5 23t-36.5 8.5t-38.5 -8.5t-27.5 -23.5t-16.5 -34.5t-5.5 -40.5v-270h-165v498h159v-69h2q9 16 23.5 31.5t34 26.5t42.5 18t49 7q50 0 85 -18t56.5 -46.5t31 -65.5t9.5 -74v-308h-165z" />
    <glyph glyph-name="o" unicode="o" horiz-adv-x="632" 
d="M592 251q0 -61 -22 -110.5t-60 -84t-88 -53.5t-107 -19q-56 0 -106.5 19t-88 53.5t-59.5 84t-22 110.5t22 110t59.5 83t88 52t106.5 18q57 0 107 -18t88 -52t60 -83t22 -110zM434 251q0 24 -8 47t-23 40.5t-37 28.5t-51 11t-51 -11t-36.5 -28.5t-22 -40.5t-7.5 -47
t7.5 -47t22.5 -41.5t37 -29.5t51 -11t51 11t37 29.5t22.5 41.5t7.5 47z" />
    <glyph glyph-name="p" unicode="p" horiz-adv-x="657" 
d="M618 251q0 -52 -16 -100t-46.5 -84.5t-74.5 -58.5t-100 -22q-46 0 -87 18.5t-64 50.5h-2v-295h-164v738h156v-61h3q23 30 63.5 52.5t95.5 22.5q54 0 98 -21t74.5 -57t47 -83.5t16.5 -99.5zM459 251q0 24 -7.5 47t-22 40.5t-36.5 28.5t-51 11q-28 0 -50 -11t-37.5 -29
t-24 -41t-8.5 -47t8.5 -47t24 -41t37.5 -29t50 -11q29 0 51 11t36.5 29t22 41.5t7.5 47.5z" />
    <glyph glyph-name="q" unicode="q" horiz-adv-x="657" 
d="M429 -240v295h-2q-24 -32 -64.5 -50.5t-86.5 -18.5q-57 0 -101 22t-74 58.5t-46 84.5t-16 100t16.5 99.5t47 83.5t74 57t97.5 21q56 0 96.5 -22.5t63.5 -52.5h3v61h155v-738h-163zM435 250q0 24 -8.5 47t-24 41t-37.5 29t-50 11q-29 0 -51 -11t-37 -28.5t-22.5 -40.5
t-7.5 -47t7.5 -47.5t22.5 -41.5t37 -29t51 -11q28 0 50 11t37.5 29t24 41t8.5 47z" />
    <glyph glyph-name="r" unicode="r" horiz-adv-x="396" 
d="M387 364q-11 3 -21.5 4t-20.5 1q-33 0 -55.5 -12t-36 -29t-19.5 -37t-6 -35v-256h-164v498h158v-72h2q19 38 54 62t81 24q10 0 19.5 -1t15.5 -3z" />
    <glyph glyph-name="s" unicode="s" horiz-adv-x="472" 
d="M357 351q-20 19 -47 32t-57 13q-23 0 -42.5 -9t-19.5 -31q0 -21 21.5 -30t69.5 -20q28 -6 56.5 -17t51.5 -29t37 -44t14 -62q0 -47 -19 -79.5t-49.5 -52.5t-68.5 -29t-76 -9q-61 0 -119.5 19.5t-97.5 57.5l92 97q22 -24 54 -40t68 -16q20 0 39.5 9.5t19.5 33.5
q0 23 -24 34t-75 23q-26 6 -52 16t-46.5 27t-33.5 42t-13 60q0 45 19 76.5t49 51.5t66.5 29.5t72.5 9.5q56 0 109.5 -17.5t90.5 -52.5z" />
    <glyph glyph-name="t" unicode="t" horiz-adv-x="372" 
d="M242 375v-190q0 -35 13.5 -52.5t48.5 -17.5q12 0 25.5 2t22.5 6l2 -120q-17 -6 -43 -10.5t-52 -4.5q-50 0 -84 12.5t-54.5 36t-29.5 56t-9 72.5v210h-80v123h79v131h161v-131h117v-123h-117z" />
    <glyph glyph-name="u" unicode="u" horiz-adv-x="614" 
d="M392 0v69h-2q-9 -17 -23.5 -32t-34 -26t-43 -18t-49.5 -7q-50 0 -84.5 18t-56 46.5t-31 65t-9.5 74.5v308h165v-270q0 -21 3 -40t11.5 -34t22.5 -23.5t37 -8.5q43 0 65.5 32t22.5 75v269h164v-498h-158z" />
    <glyph glyph-name="v" unicode="v" horiz-adv-x="567" 
d="M372 0h-177l-196 498h181l105 -323h3l105 323h175z" />
    <glyph glyph-name="w" unicode="w" horiz-adv-x="871" 
d="M698 0h-165l-98 310h-2l-96 -310h-165l-172 498h177l86 -315h3l89 315h165l92 -315h2l87 315h170z" />
    <glyph glyph-name="x" unicode="x" horiz-adv-x="594" 
d="M404 0l-107 153l-110 -153h-190l199 261l-180 237h191l93 -133l94 133h185l-179 -237l197 -261h-193z" />
    <glyph glyph-name="y" unicode="y" horiz-adv-x="567" 
d="M345 -75q-15 -39 -33.5 -69.5t-44 -52t-60 -32.5t-81.5 -11q-23 0 -47.5 3t-42.5 8l18 138q12 -4 26.5 -6.5t26.5 -2.5q38 0 55 17.5t29 49.5l16 41l-208 490h182l111 -320h3l99 320h174z" />
    <glyph glyph-name="z" unicode="z" horiz-adv-x="512" 
d="M34 0v128l234 244h-225v126h425v-123l-241 -248h251v-127h-444z" />
    <glyph glyph-name="braceleft" unicode="{" horiz-adv-x="342" 
d="M210 -156q-63 0 -100 40t-37 108v167q0 23 -6 37.5t-15.5 22.5t-21.5 11t-24 3v110q12 0 24 3t21.5 10.5t15.5 21.5t6 35v171q0 68 37 108t100 40h82v-105h-47q-29 0 -37.5 -19t-8.5 -41v-167q0 -29 -10 -49.5t-24.5 -33.5t-30.5 -20t-28 -8v-2q12 -1 28 -7t30.5 -19
t24.5 -34.5t10 -54.5v-163q0 -22 8.5 -41t37.5 -19h47v-105h-82z" />
    <glyph glyph-name="bar" unicode="|" horiz-adv-x="241" 
d="M56 -250l-1 1000h131v-1000h-130z" />
    <glyph glyph-name="braceright" unicode="}" horiz-adv-x="342" 
d="M336 233q-12 0 -24 -3t-21.5 -11t-15.5 -22.5t-6 -37.5v-167q0 -68 -37 -108t-100 -40h-82v105h47q29 0 37.5 19t8.5 41v163q0 33 10 54.5t24.5 34.5t30.5 19t28 7v2q-12 1 -28 8t-30.5 20t-24.5 33.5t-10 49.5v167q0 22 -8.5 41t-37.5 19h-47v105h82q63 0 100 -40
t37 -108v-171q0 -21 6 -35t15.5 -21.5t21.5 -10.5t24 -3v-110z" />
    <glyph glyph-name="asciitilde" unicode="~" horiz-adv-x="666" 
d="M593 285q-11 -19 -24.5 -37t-30 -32t-37.5 -22.5t-47 -8.5q-32 0 -56.5 9t-55.5 29q-30 19 -54.5 28.5t-52.5 9.5q-29 0 -49 -19.5t-35 -50.5l-66 104q23 45 56.5 72t80.5 27q32 0 61 -9.5t59 -27.5q34 -20 58 -30t41 -10q28 0 48.5 22t38.5 49l65 -101v-2z" />
    <glyph glyph-name="uni00A0" unicode="&#xa0;" horiz-adv-x="250" 
 />
    <glyph glyph-name="exclamdown" unicode="&#xa1;" horiz-adv-x="357" 
d="M276 423q0 -20 -7.5 -37t-21 -29.5t-31.5 -20t-38 -7.5t-38 7.5t-31 20.5t-20.5 30t-7.5 37t8 37t21 30t30.5 20t37.5 7t38 -7.5t31.5 -20t21 -30t7.5 -37.5zM94 -200v471h168v-471h-168z" />
    <glyph glyph-name="cent" unicode="&#xa2;" horiz-adv-x="646" 
d="M550 51q-29 -29 -72 -45t-88 -20v-65h-76v65q-53 6 -96 28t-73.5 56.5t-47 80.5t-16.5 99q0 54 16.5 98.5t47.5 78.5t73.5 55.5t95.5 29.5v64h76v-64q46 -3 88.5 -18.5t70.5 -44.5l-83 -104q-31 33 -76 39v-270q23 2 43.5 12.5t35.5 26.5zM314 382q-45 -11 -68.5 -47.5
t-23.5 -85.5q0 -48 24 -84.5t68 -48.5v266z" />
    <glyph glyph-name="sterling" unicode="&#xa3;" horiz-adv-x="646" 
d="M529 548q-16 17 -40.5 27.5t-51.5 10.5q-31 0 -51.5 -11t-32.5 -28.5t-16.5 -38.5t-4.5 -41v-51h156v-115h-156v-160h259v-141h-519v141h95v160h-95v115h95v61q0 41 14.5 85t45.5 81t80.5 60.5t119.5 23.5q65 0 114.5 -19t83.5 -50z" />
    <glyph glyph-name="currency" unicode="&#xa4;" horiz-adv-x="646" 
d="M536 419q18 -29 26 -60.5t8 -67.5q0 -33 -9.5 -70t-26.5 -63l82 -81l-81 -84l-84 84q-52 -33 -127 -33q-31 0 -65.5 9.5t-61.5 25.5l-85 -86l-83 83l86 85q-17 27 -26 62t-9 68q0 36 7.5 68t24.5 59l-82 81l82 81l82 -81q29 17 62 27t68 10q34 0 68.5 -9.5t61.5 -25.5
l79 79l84 -81zM324 415q-27 0 -49 -10t-37.5 -26.5t-23.5 -39.5t-8 -48q0 -26 8 -48.5t23.5 -39.5t37.5 -27t49 -10q28 0 50 10t37.5 27t23.5 39.5t8 48.5q0 25 -8 48t-23.5 39.5t-37.5 26.5t-50 10z" />
    <glyph glyph-name="yen" unicode="&#xa5;" horiz-adv-x="646" 
d="M458 416h124v-103h-179v-65h179v-103h-179v-145h-158v145h-178v103h178v65h-178v103h127l-182 292h185l132 -260l129 260h179z" />
    <glyph glyph-name="brokenbar" unicode="&#xa6;" horiz-adv-x="241" 
d="M55 313v362h131v-362h-131zM55 -175v362h131v-362h-131z" />
    <glyph glyph-name="section" unicode="&#xa7;" horiz-adv-x="607" 
d="M562 279q0 -40 -20.5 -73t-54.5 -52q27 -19 38.5 -48t11.5 -62q0 -52 -22.5 -88.5t-58 -59.5t-78.5 -33.5t-85 -10.5q-36 0 -72.5 7.5t-70 23t-62 38t-48.5 52.5l122 87q23 -38 61.5 -55.5t72.5 -17.5q12 0 25 3t23.5 9.5t17.5 16t7 22.5q0 16 -7.5 28t-23.5 21.5
t-41 18.5l-59 22q-37 13 -69 27t-56 33.5t-37.5 46t-13.5 63.5q0 51 25.5 84.5t60.5 53.5q-53 39 -53 113q0 46 21.5 79.5t55 55.5t74.5 32t79 10q74 0 133.5 -26t94.5 -77l-116 -88q-18 28 -47 44t-58 16q-12 0 -25 -3t-23 -9t-16.5 -15t-6.5 -22q0 -27 29.5 -44.5
t87.5 -37.5q37 -14 70.5 -30t59 -37.5t40 -50t14.5 -67.5zM414 263q0 30 -24 46.5t-54 29.5l-86 35q-17 -7 -29 -19.5t-12 -33.5q0 -15 6.5 -26t18 -19.5t26.5 -14.5l29 -12l94 -37q15 7 23 21t8 30z" />
    <glyph glyph-name="dieresis" unicode="&#xa8;" horiz-adv-x="300" 
d="M342 658q0 -35 -24.5 -58.5t-58.5 -23.5q-35 0 -59 24t-24 58q0 16 6.5 30.5t17.5 26t26 18t33 6.5q34 0 58.5 -23.5t24.5 -57.5zM125 658q0 -35 -24.5 -58.5t-59.5 -23.5t-59 24t-24 58q0 16 6.5 30.5t17.5 26t26.5 18t32.5 6.5q35 0 59.5 -23.5t24.5 -57.5z" />
    <glyph glyph-name="copyright" unicode="&#xa9;" horiz-adv-x="800" 
d="M780 353q0 -78 -30 -146.5t-81.5 -119.5t-120.5 -80t-147 -29q-79 0 -148.5 29t-121 80t-81.5 119.5t-30 146.5q0 79 30 147.5t81.5 119.5t121 80.5t148.5 29.5q78 0 147 -29.5t120.5 -80.5t81.5 -119.5t30 -147.5zM720 353q0 66 -25 124.5t-68.5 102t-101.5 69
t-124 25.5t-124.5 -25.5t-102 -69t-69 -102t-25.5 -124.5t25 -124t68 -101.5t101.5 -68.5t124.5 -25t124.5 25t102 68.5t69 101.5t25.5 124zM508 440q-14 18 -38.5 28.5t-51.5 10.5q-28 0 -49 -10.5t-35.5 -28.5t-22 -40.5t-7.5 -46.5t7.5 -47t22.5 -41t37.5 -29t52.5 -11
q26 0 49.5 9.5t38.5 26.5l72 -76q-29 -30 -72 -46.5t-93 -16.5q-49 0 -92 15.5t-75.5 44.5t-51 72t-18.5 98q0 53 19 95.5t51 72t75.5 45.5t91.5 16q50 0 94.5 -18.5t71.5 -52.5z" />
    <glyph glyph-name="ordfeminine" unicode="&#xaa;" horiz-adv-x="384" 
d="M236 458h-1q-11 -17 -34 -25.5t-50 -8.5q-19 0 -38 5t-34 15.5t-24.5 27.5t-9.5 40q0 33 17.5 52t44.5 29.5t60 13.5t64 3v4q0 18 -14 26.5t-36 8.5q-20 0 -38 -8t-30 -20l-54 55q25 23 60 35t71 12q41 0 68 -10.5t42.5 -28t22 -40.5t6.5 -49v-164h-93v27zM234 553h-12
q-14 0 -28 -1.5t-25.5 -5t-19 -10.5t-7.5 -18q0 -14 12 -20.5t25 -6.5q26 0 40.5 14t14.5 36v12z" />
    <glyph glyph-name="guillemotleft" unicode="&#xab;" horiz-adv-x="543" 
d="M412 22l-161 232l161 232l97 -63l-115 -169l115 -169zM186 22l-161 232l161 232l97 -63l-115 -169l116 -169z" />
    <glyph glyph-name="logicalnot" unicode="&#xac;" horiz-adv-x="666" 
d="M476 145v183h-425v123h555v-306h-130z" />
    <glyph glyph-name="uni00AD" unicode="&#xad;" horiz-adv-x="326" 
d="M36 197v130h254v-130h-254z" />
    <glyph glyph-name="registered" unicode="&#xae;" horiz-adv-x="600" 
d="M305 521q12 0 20 6.5t8 16.5q0 8 -8.5 13t-19.5 5h-26v-41h26zM339 365l-44 94h-16v-94h-88v266h114q21 0 43 -4t39 -14t28 -26.5t11 -41.5q0 -55 -48 -74l61 -106h-100zM72 492q0 47 18 88.5t49 72t73 48.5t89 18t88.5 -18t72 -48.5t48.5 -72t18 -88.5t-18 -88
t-48.5 -71.5t-72 -48t-88.5 -17.5t-89 17.5t-73 48t-49 71.5t-18 88zM108 492q0 -39 15 -74t41.5 -61.5t61.5 -41.5t75 -15t74.5 15t60.5 41.5t41 61.5t15 74q0 40 -15 75t-41 61t-60.5 41t-74.5 15t-75 -15t-61.5 -41t-41.5 -61t-15 -75z" />
    <glyph glyph-name="macron" unicode="&#xaf;" horiz-adv-x="300" 
d="M-18 601v86h336v-86h-336z" />
    <glyph glyph-name="degree" unicode="&#xb0;" horiz-adv-x="416" 
d="M376 558q0 -35 -13 -66t-35.5 -53.5t-53.5 -35.5t-66 -13t-66 13t-53.5 35.5t-35.5 53.5t-13 66t13 65.5t35.5 53t53.5 35.5t66 13t66 -13t53.5 -35.5t35.5 -53t13 -65.5zM296 558q0 36 -25.5 62t-62.5 26t-62.5 -26t-25.5 -62q0 -37 25.5 -62.5t62.5 -25.5t62.5 25.5
t25.5 62.5z" />
    <glyph glyph-name="plusminus" unicode="&#xb1;" horiz-adv-x="666" 
d="M404 331v-132h-130v132h-213v127h213v132h130v-132h212v-127h-212zM61 31v127h555v-127h-555z" />
    <glyph glyph-name="twosuperior" unicode="&#xb2;" horiz-adv-x="420" 
d="M55 275v92l170 155q13 12 21 25.5t8 30.5q0 18 -12 29.5t-33 11.5q-23 0 -37.5 -17t-16.5 -44l-110 13q4 35 18.5 62.5t37.5 46.5t52 29t61 10q30 0 59 -8t51.5 -24.5t36 -41.5t13.5 -60q0 -24 -6.5 -43t-17 -34.5t-24 -29.5t-28.5 -27l-87 -77h163v-99h-319z" />
    <glyph glyph-name="threesuperior" unicode="&#xb3;" horiz-adv-x="420" 
d="M379 404q0 -36 -14.5 -62t-38 -42.5t-52.5 -24.5t-59 -8t-57.5 7t-51 21.5t-41 37.5t-26.5 56l105 28q7 -22 22.5 -37.5t41.5 -15.5q20 0 38 10t18 36q0 15 -6.5 24t-17.5 14t-25 7t-29 2h-33v84h36q27 0 46 10t19 36q0 17 -13 27.5t-33 10.5q-18 0 -32 -13t-19 -35
l-105 25q8 29 24.5 51t38.5 37t48 22.5t53 7.5q30 0 57.5 -7t48.5 -22t34 -38t13 -54q0 -34 -15.5 -58t-41.5 -37q32 -11 49.5 -38t17.5 -62z" />
    <glyph glyph-name="acute" unicode="&#xb4;" horiz-adv-x="300" 
d="M193 572h-124l104 144h166z" />
    <glyph glyph-name="mu" unicode="&#xb5;" horiz-adv-x="666" 
d="M251 498v-248q0 -17 2.5 -38.5t11 -40.5t23.5 -32t40 -13t42.5 9t28 24t15.5 35t5 43v261h162v-498h-155v57h-1q-15 -26 -40.5 -45t-70.5 -19q-18 0 -35 5t-28 15v-239h-162v724h162z" />
    <glyph glyph-name="paragraph" unicode="&#xb6;" horiz-adv-x="618" 
d="M439 -129v737h-85v-737h-116v464q-49 1 -88.5 14.5t-67.5 37.5t-43 57t-15 74q0 54 19 90.5t52 58.5t77.5 31.5t95.5 9.5h287v-837h-116z" />
    <glyph glyph-name="periodcentered" unicode="&#xb7;" horiz-adv-x="300" 
d="M251 291q0 -42 -29.5 -70t-70.5 -28q-21 0 -39.5 7.5t-32.5 20.5t-22 30.5t-8 38.5q0 20 8 38t22 31.5t32.5 21.5t39.5 8q41 0 70.5 -28t29.5 -70z" />
    <glyph glyph-name="cedilla" unicode="&#xb8;" horiz-adv-x="300" 
d="M283 -142q0 -29 -14 -48t-36 -30t-47.5 -15.5t-49.5 -4.5q-31 0 -63.5 7t-55.5 18l27 60q19 -9 41.5 -14t42.5 -5q16 0 33 6.5t17 26.5q0 18 -16 23.5t-31 5.5q-9 0 -20 -1.5t-20 -4.5l-31 29l67 89h82l-47 -60q5 1 9 1h9q18 0 36.5 -3.5t33 -12.5t24 -25.5t9.5 -41.5z
" />
    <glyph glyph-name="onesuperior" unicode="&#xb9;" horiz-adv-x="420" 
d="M180 272v306l-74 -58l-60 81l145 107h106v-436h-117z" />
    <glyph glyph-name="ordmasculine" unicode="&#xba;" horiz-adv-x="384" 
d="M348 575q0 -34 -12 -62t-33 -47.5t-49.5 -30.5t-61.5 -11q-32 0 -60.5 11t-49.5 30.5t-33 47.5t-12 62t12 61.5t33 47t49.5 30t60.5 10.5q33 0 61.5 -10.5t49.5 -30t33 -47t12 -61.5zM253 575q0 25 -16 44t-45 19t-44 -19t-15 -44q0 -26 15 -45t44 -19t45 19t16 45z" />
    <glyph glyph-name="guillemotright" unicode="&#xbb;" horiz-adv-x="543" 
d="M357 22l-97 63l115 168l-115 170l97 63l162 -233zM132 22l-97 63l115 168l-116 170l98 63l161 -233z" />
    <glyph glyph-name="onequarter" unicode="&#xbc;" horiz-adv-x="940" 
d="M824 83v-83h-106v83h-200v93l175 260h131v-259h58v-94h-58zM718 311h-1l-88 -134h89v134zM313 -30l-87 39l384 730l91 -40zM180 272v306l-74 -58l-60 81l145 107h106v-436h-117z" />
    <glyph glyph-name="onehalf" unicode="&#xbd;" horiz-adv-x="940" 
d="M575 0v92l170 156q13 11 21 24.5t8 30.5q0 18 -12 29.5t-32 11.5q-23 0 -38 -16.5t-17 -44.5l-110 14q4 35 18.5 62.5t37.5 46.5t52 29t61 10q30 0 59 -8t51.5 -24.5t36 -42t13.5 -60.5q0 -23 -6.5 -42t-17 -35t-24 -30t-28.5 -27l-87 -76h163v-100h-319zM313 -30l-87 39
l384 730l91 -40zM180 272v306l-74 -58l-60 81l145 107h106v-436h-117z" />
    <glyph glyph-name="threequarters" unicode="&#xbe;" horiz-adv-x="940" 
d="M824 83v-83h-106v83h-200v93l175 260h131v-259h58v-94h-58zM718 311h-1l-88 -134h89v134zM313 -30l-87 39l384 730l91 -40zM379 404q0 -36 -14.5 -62t-38 -42.5t-52.5 -24.5t-59 -8t-57.5 7t-51 21.5t-41 37.5t-26.5 56l105 28q7 -22 22.5 -37.5t41.5 -15.5q20 0 38 10
t18 36q0 15 -6.5 24t-17.5 14t-25 7t-29 2h-33v84h36q27 0 46 10t19 36q0 17 -13 27.5t-33 10.5q-18 0 -32 -13t-19 -35l-105 25q8 29 24.5 51t38.5 37t48 22.5t53 7.5q30 0 57.5 -7t48.5 -22t34 -38t13 -54q0 -34 -15.5 -58t-41.5 -37q32 -11 49.5 -38t17.5 -62z" />
    <glyph glyph-name="questiondown" unicode="&#xbf;" horiz-adv-x="546" 
d="M361 424q0 -20 -7.5 -37t-21 -30t-31.5 -20.5t-38 -7.5t-37.5 7.5t-31 20t-21.5 29.5t-8 37t7.5 37.5t21 30t31.5 20t38 7.5t37.5 -7t31 -20t21.5 -30t8 -37zM507 -2q-6 -54 -28 -94.5t-56 -67.5t-77 -40.5t-91 -13.5q-44 0 -86.5 11.5t-75.5 36t-53.5 62t-20.5 89.5
q0 33 8 58.5t22.5 46.5t35.5 39.5t47 38.5q16 12 26.5 22.5t16.5 20.5t8.5 22t2.5 27v26h156v-37q0 -26 -5 -46.5t-15 -37.5t-25 -33t-34 -34l-34 -30q-17 -16 -29 -32t-12 -39q0 -32 20 -51.5t54 -19.5q41 0 62.5 28.5t22.5 65.5z" />
    <glyph glyph-name="Agrave" unicode="&#xc0;" horiz-adv-x="729" 
d="M553 0l-55 139h-274l-52 -139h-186l297 708h166l294 -708h-190zM363 519l-90 -243h178zM315 764l-146 144h166l104 -144h-124z" />
    <glyph glyph-name="Aacute" unicode="&#xc1;" horiz-adv-x="729" 
d="M553 0l-55 139h-274l-52 -139h-186l297 708h166l294 -708h-190zM363 519l-90 -243h178zM418 764h-124l104 144h166z" />
    <glyph glyph-name="Acircumflex" unicode="&#xc2;" horiz-adv-x="729" 
d="M553 0l-55 139h-274l-52 -139h-186l297 708h166l294 -708h-190zM363 519l-90 -243h178zM434 764l-68 81l-68 -81h-128l124 144h148l122 -144h-130z" />
    <glyph glyph-name="Atilde" unicode="&#xc3;" horiz-adv-x="729" 
d="M553 0l-55 139h-274l-52 -139h-186l297 708h166l294 -708h-190zM363 519l-90 -243h178zM551 900q-3 -26 -11 -50t-21.5 -42t-33.5 -29t-47 -11q-21 0 -41 6t-40 15q-20 11 -34.5 15.5t-28.5 4.5q-18 0 -27.5 -12t-14.5 -28h-72q3 26 11 49.5t21.5 41.5t33.5 28.5t47 10.5
q21 0 40.5 -5.5t39.5 -14.5q21 -10 36 -15t29 -5q19 0 28 11.5t14 29.5h71z" />
    <glyph glyph-name="Adieresis" unicode="&#xc4;" horiz-adv-x="729" 
d="M553 0l-55 139h-274l-52 -139h-186l297 708h166l294 -708h-190zM363 519l-90 -243h178zM558 850q0 -35 -24.5 -58.5t-58.5 -23.5q-35 0 -59 24t-24 58q0 16 6.5 30.5t17.5 26t26 18t33 6.5q34 0 58.5 -23.5t24.5 -57.5zM341 850q0 -35 -24.5 -58.5t-59.5 -23.5t-59 24
t-24 58q0 16 6.5 30.5t17.5 26t26.5 18t32.5 6.5q35 0 59.5 -23.5t24.5 -57.5z" />
    <glyph glyph-name="Aring" unicode="&#xc5;" horiz-adv-x="729" 
d="M553 0l-55 139h-274l-52 -139h-186l297 708h166l294 -708h-190zM363 519l-90 -243h178zM476 856q0 -23 -8.5 -43t-23.5 -34t-35 -22t-42 -8q-23 0 -42.5 8t-34.5 22t-23.5 33.5t-8.5 42.5q0 47 31.5 77.5t77.5 30.5q22 0 42 -8t35 -22.5t23.5 -34t8.5 -42.5zM426 856
q0 25 -17 41.5t-42 16.5q-26 0 -42.5 -17t-16.5 -42q0 -24 17 -40.5t42 -16.5t42 16.5t17 41.5z" />
    <glyph glyph-name="AE" unicode="&#xc6;" horiz-adv-x="1033" 
d="M514 0v153h-231l-88 -153h-199l414 708h565v-145h-298v-133h281v-137h-281v-147h316v-146h-479zM514 563h-10l-153 -272h163v272z" />
    <glyph glyph-name="Ccedilla" unicode="&#xc7;" horiz-adv-x="696" 
d="M531 -142q0 -29 -14 -48t-36 -30t-47.5 -15.5t-49.5 -4.5q-31 0 -63.5 7t-55.5 18l27 60q19 -9 41.5 -14t42.5 -5q16 0 33 6.5t17 26.5q0 18 -16 23.5t-31 5.5q-9 0 -20 -1.5t-20 -4.5l-31 29l55 74q-71 9 -130 39.5t-102 78.5t-67 112t-24 140q0 85 29.5 154t81.5 117.5
t122 74.5t151 26q75 0 147.5 -26.5t117.5 -77.5l-116 -116q-24 33 -63 49t-80 16q-45 0 -82.5 -16.5t-64.5 -45.5t-42 -68.5t-15 -86.5q0 -48 15 -88t41.5 -68.5t63.5 -44.5t81 -16q51 0 89 20t61 52l119 -112q-44 -51 -108 -81.5t-146 -34.5l-32 -42q5 1 9 1h9
q18 0 36.5 -3.5t33 -12.5t24 -25.5t9.5 -41.5z" />
    <glyph glyph-name="Egrave" unicode="&#xc8;" horiz-adv-x="607" 
d="M73 0v708h476v-145h-311v-133h294v-137h-294v-147h329v-146h-494zM282 764l-146 144h166l104 -144h-124z" />
    <glyph glyph-name="Eacute" unicode="&#xc9;" horiz-adv-x="607" 
d="M73 0v708h476v-145h-311v-133h294v-137h-294v-147h329v-146h-494zM357 764h-124l104 144h166z" />
    <glyph glyph-name="Ecircumflex" unicode="&#xca;" horiz-adv-x="607" 
d="M73 0v708h476v-145h-311v-133h294v-137h-294v-147h329v-146h-494zM382 764l-68 81l-68 -81h-128l124 144h148l122 -144h-130z" />
    <glyph glyph-name="Edieresis" unicode="&#xcb;" horiz-adv-x="607" 
d="M73 0v708h476v-145h-311v-133h294v-137h-294v-147h329v-146h-494zM507 850q0 -35 -24.5 -58.5t-58.5 -23.5q-35 0 -59 24t-24 58q0 16 6.5 30.5t17.5 26t26 18t33 6.5q34 0 58.5 -23.5t24.5 -57.5zM290 850q0 -35 -24.5 -58.5t-59.5 -23.5t-59 24t-24 58q0 16 6.5 30.5
t17.5 26t26.5 18t32.5 6.5q35 0 59.5 -23.5t24.5 -57.5z" />
    <glyph glyph-name="Igrave" unicode="&#xcc;" horiz-adv-x="318" 
d="M73 0v708h172v-708h-172zM121 764l-146 144h166l104 -144h-124z" />
    <glyph glyph-name="Iacute" unicode="&#xcd;" horiz-adv-x="318" 
d="M73 0v708h172v-708h-172zM197 764h-124l104 144h166z" />
    <glyph glyph-name="Icircumflex" unicode="&#xce;" horiz-adv-x="318" 
d="M73 0v708h172v-708h-172zM225 764l-68 81l-68 -81h-128l124 144h148l122 -144h-130z" />
    <glyph glyph-name="Idieresis" unicode="&#xcf;" horiz-adv-x="318" 
d="M73 0v708h172v-708h-172zM351 850q0 -35 -24.5 -58.5t-58.5 -23.5q-35 0 -59 24t-24 58q0 16 6.5 30.5t17.5 26t26 18t33 6.5q34 0 58.5 -23.5t24.5 -57.5zM134 850q0 -35 -24.5 -58.5t-59.5 -23.5t-59 24t-24 58q0 16 6.5 30.5t17.5 26t26.5 18t32.5 6.5
q35 0 59.5 -23.5t24.5 -57.5z" />
    <glyph glyph-name="Eth" unicode="&#xd0;" horiz-adv-x="774" 
d="M732 356q0 -92 -34 -159t-89 -111t-124 -65t-139 -21h-272v309h-61v107h61v292h273q75 0 145 -19.5t123 -62t85 -109.5t32 -161zM557 356q0 52 -16.5 90.5t-46.5 63.5t-71.5 37t-91.5 12h-90v-143h181v-107h-181v-159h74q52 0 96.5 11.5t76.5 36.5t50.5 64t18.5 94z" />
    <glyph glyph-name="Ntilde" unicode="&#xd1;" horiz-adv-x="790" 
d="M523 0l-285 463h-3l4 -463h-166v708h195l284 -462h3l-4 462h166v-708h-194zM584 900q-3 -26 -11 -50t-21.5 -42t-33.5 -29t-47 -11q-21 0 -41 6t-40 15q-20 11 -34.5 15.5t-28.5 4.5q-18 0 -27.5 -12t-14.5 -28h-72q3 26 11 49.5t21.5 41.5t33.5 28.5t47 10.5
q21 0 40.5 -5.5t39.5 -14.5q21 -10 36 -15t29 -5q19 0 28 11.5t14 29.5h71z" />
    <glyph glyph-name="Ograve" unicode="&#xd2;" horiz-adv-x="851" 
d="M811 357q0 -84 -29 -153.5t-80.5 -119t-122.5 -76.5t-154 -27t-153.5 27t-122 76.5t-80.5 119t-29 153.5q0 85 29 153.5t80.5 116.5t122 74t153.5 26t154 -26t122.5 -74t80.5 -116.5t29 -153.5zM628 357q0 46 -15 86t-41.5 68.5t-64 45t-82.5 16.5t-82 -16.5t-64 -45
t-41.5 -68.5t-14.5 -86q0 -48 15 -88.5t41.5 -69.5t63.5 -45.5t82 -16.5t82 16.5t64 45.5t42 69.5t15 88.5zM403 764l-146 144h166l104 -144h-124z" />
    <glyph glyph-name="Oacute" unicode="&#xd3;" horiz-adv-x="851" 
d="M811 357q0 -84 -29 -153.5t-80.5 -119t-122.5 -76.5t-154 -27t-153.5 27t-122 76.5t-80.5 119t-29 153.5q0 85 29 153.5t80.5 116.5t122 74t153.5 26t154 -26t122.5 -74t80.5 -116.5t29 -153.5zM628 357q0 46 -15 86t-41.5 68.5t-64 45t-82.5 16.5t-82 -16.5t-64 -45
t-41.5 -68.5t-14.5 -86q0 -48 15 -88.5t41.5 -69.5t63.5 -45.5t82 -16.5t82 16.5t64 45.5t42 69.5t15 88.5zM459 764h-124l104 144h166z" />
    <glyph glyph-name="Ocircumflex" unicode="&#xd4;" horiz-adv-x="851" 
d="M811 357q0 -84 -29 -153.5t-80.5 -119t-122.5 -76.5t-154 -27t-153.5 27t-122 76.5t-80.5 119t-29 153.5q0 85 29 153.5t80.5 116.5t122 74t153.5 26t154 -26t122.5 -74t80.5 -116.5t29 -153.5zM628 357q0 46 -15 86t-41.5 68.5t-64 45t-82.5 16.5t-82 -16.5t-64 -45
t-41.5 -68.5t-14.5 -86q0 -48 15 -88.5t41.5 -69.5t63.5 -45.5t82 -16.5t82 16.5t64 45.5t42 69.5t15 88.5zM493 764l-68 81l-68 -81h-128l124 144h148l122 -144h-130z" />
    <glyph glyph-name="Otilde" unicode="&#xd5;" horiz-adv-x="851" 
d="M811 357q0 -84 -29 -153.5t-80.5 -119t-122.5 -76.5t-154 -27t-153.5 27t-122 76.5t-80.5 119t-29 153.5q0 85 29 153.5t80.5 116.5t122 74t153.5 26t154 -26t122.5 -74t80.5 -116.5t29 -153.5zM628 357q0 46 -15 86t-41.5 68.5t-64 45t-82.5 16.5t-82 -16.5t-64 -45
t-41.5 -68.5t-14.5 -86q0 -48 15 -88.5t41.5 -69.5t63.5 -45.5t82 -16.5t82 16.5t64 45.5t42 69.5t15 88.5zM612 900q-3 -26 -11 -50t-21.5 -42t-33.5 -29t-47 -11q-21 0 -41 6t-40 15q-20 11 -34.5 15.5t-28.5 4.5q-18 0 -27.5 -12t-14.5 -28h-72q3 26 11 49.5t21.5 41.5
t33.5 28.5t47 10.5q21 0 40.5 -5.5t39.5 -14.5q21 -10 36 -15t29 -5q19 0 28 11.5t14 29.5h71z" />
    <glyph glyph-name="Odieresis" unicode="&#xd6;" horiz-adv-x="851" 
d="M811 357q0 -84 -29 -153.5t-80.5 -119t-122.5 -76.5t-154 -27t-153.5 27t-122 76.5t-80.5 119t-29 153.5q0 85 29 153.5t80.5 116.5t122 74t153.5 26t154 -26t122.5 -74t80.5 -116.5t29 -153.5zM628 357q0 46 -15 86t-41.5 68.5t-64 45t-82.5 16.5t-82 -16.5t-64 -45
t-41.5 -68.5t-14.5 -86q0 -48 15 -88.5t41.5 -69.5t63.5 -45.5t82 -16.5t82 16.5t64 45.5t42 69.5t15 88.5zM618 850q0 -35 -24.5 -58.5t-58.5 -23.5q-35 0 -59 24t-24 58q0 16 6.5 30.5t17.5 26t26 18t33 6.5q34 0 58.5 -23.5t24.5 -57.5zM401 850q0 -35 -24.5 -58.5
t-59.5 -23.5t-59 24t-24 58q0 16 6.5 30.5t17.5 26t26.5 18t32.5 6.5q35 0 59.5 -23.5t24.5 -57.5z" />
    <glyph glyph-name="multiply" unicode="&#xd7;" horiz-adv-x="666" 
d="M510 37l-177 173l-176 -173l-93 89l177 175l-178 174l94 91l177 -173l174 172l91 -87l-174 -173l179 -175z" />
    <glyph glyph-name="Oslash" unicode="&#xd8;" horiz-adv-x="851" 
d="M40 356q0 85 29 153.5t80.5 116.5t122 74t153.5 26q126 0 219 -58l43 48l44 49l67 -59l-43 -46l-43 -47q48 -49 73.5 -113t25.5 -144q0 -84 -29.5 -152.5t-81 -117.5t-122.5 -76.5t-154 -27.5h-5q-66 0 -123 17.5t-101 51.5l-89 -95l-34 28l-33 29l89 97
q-43 46 -65.5 109t-22.5 137zM635 356q0 38 -9 71t-29 59l-292 -318q46 -37 119 -37q48 0 87 17.5t66.5 47.5t42.5 71t15 89zM214 355q0 -73 31 -120l290 315q-20 14 -48.5 21.5t-61.5 7.5q-50 0 -89 -17.5t-66 -48t-41.5 -71.5t-14.5 -87z" />
    <glyph glyph-name="Ugrave" unicode="&#xd9;" horiz-adv-x="738" 
d="M673 267q0 -64 -21.5 -116.5t-61.5 -90t-96.5 -58.5t-125.5 -21q-70 0 -126 21t-95 58.5t-60 90t-21 116.5v441h170v-427q0 -29 7.5 -55t23 -46.5t41 -32.5t61.5 -12t61.5 12t41.5 32.5t23 46.5t7 55v427h171v-441zM346 764l-146 144h166l104 -144h-124z" />
    <glyph glyph-name="Uacute" unicode="&#xda;" horiz-adv-x="738" 
d="M673 267q0 -64 -21.5 -116.5t-61.5 -90t-96.5 -58.5t-125.5 -21q-70 0 -126 21t-95 58.5t-60 90t-21 116.5v441h170v-427q0 -29 7.5 -55t23 -46.5t41 -32.5t61.5 -12t61.5 12t41.5 32.5t23 46.5t7 55v427h171v-441zM397 764h-124l104 144h166z" />
    <glyph glyph-name="Ucircumflex" unicode="&#xdb;" horiz-adv-x="738" 
d="M673 267q0 -64 -21.5 -116.5t-61.5 -90t-96.5 -58.5t-125.5 -21q-70 0 -126 21t-95 58.5t-60 90t-21 116.5v441h170v-427q0 -29 7.5 -55t23 -46.5t41 -32.5t61.5 -12t61.5 12t41.5 32.5t23 46.5t7 55v427h171v-441zM437 764l-68 81l-68 -81h-128l124 144h148l122 -144
h-130z" />
    <glyph glyph-name="Udieresis" unicode="&#xdc;" horiz-adv-x="738" 
d="M673 267q0 -64 -21.5 -116.5t-61.5 -90t-96.5 -58.5t-125.5 -21q-70 0 -126 21t-95 58.5t-60 90t-21 116.5v441h170v-427q0 -29 7.5 -55t23 -46.5t41 -32.5t61.5 -12t61.5 12t41.5 32.5t23 46.5t7 55v427h171v-441zM562 850q0 -35 -24.5 -58.5t-58.5 -23.5q-35 0 -59 24
t-24 58q0 16 6.5 30.5t17.5 26t26 18t33 6.5q34 0 58.5 -23.5t24.5 -57.5zM345 850q0 -35 -24.5 -58.5t-59.5 -23.5t-59 24t-24 58q0 16 6.5 30.5t17.5 26t26.5 18t32.5 6.5q35 0 59.5 -23.5t24.5 -57.5z" />
    <glyph glyph-name="Yacute" unicode="&#xdd;" horiz-adv-x="669" 
d="M417 300v-300h-171v300l-266 408h207l151 -262l151 262h200zM397 764h-124l104 144h166z" />
    <glyph glyph-name="Thorn" unicode="&#xde;" horiz-adv-x="640" 
d="M610 369q0 -62 -23 -104.5t-62 -68.5t-90 -38t-106 -12h-85v-146h-171v708h171v-121h89q58 0 108.5 -11.5t88 -37t59 -67t21.5 -102.5zM439 368q0 26 -10 42t-27 25t-38.5 12t-44.5 3h-75v-168h72q24 0 46 4t39.5 14t27.5 26.5t10 41.5z" />
    <glyph glyph-name="germandbls" unicode="&#xdf;" horiz-adv-x="667" 
d="M277 140q17 -6 39 -9.5t34 -3.5q48 0 80.5 23.5t32.5 79.5q0 30 -10.5 51.5t-29 35.5t-43 20.5t-52.5 6.5h-21v129h22q10 0 24.5 2.5t28 11t23.5 24.5t10 43q0 32 -21 56.5t-63 24.5q-30 0 -50 -12t-31.5 -31.5t-16.5 -43.5t-5 -48v-500h-164v501q0 57 16 106t50 84.5
t85.5 56t122.5 20.5q50 0 94 -14t77 -39.5t52 -63t19 -83.5q0 -56 -30 -96t-74 -54v-1q69 -14 111 -65.5t42 -129.5q0 -55 -18.5 -98.5t-52 -74t-80.5 -46.5t-105 -16q-47 0 -96 12v141z" />
    <glyph glyph-name="agrave" unicode="&#xe0;" 
d="M358 217h-21q-27 0 -54.5 -2.5t-49 -9.5t-35.5 -20.5t-14 -35.5q0 -14 6.5 -24t16.5 -16t23 -8.5t25 -2.5q50 0 76.5 27.5t26.5 74.5v17zM57 430q44 42 102.5 63t119.5 21q63 0 106.5 -15.5t70.5 -48t39.5 -82t12.5 -117.5v-251h-150v53h-3q-19 -31 -57.5 -48t-83.5 -17
q-30 0 -62 8t-58.5 26t-43.5 48t-17 74q0 54 29.5 87t76 51t103.5 24t111 6v8q0 37 -26 54.5t-64 17.5q-35 0 -67.5 -15t-55.5 -36zM258 572l-146 144h166l104 -144h-124z" />
    <glyph glyph-name="aacute" unicode="&#xe1;" 
d="M358 217h-21q-27 0 -54.5 -2.5t-49 -9.5t-35.5 -20.5t-14 -35.5q0 -14 6.5 -24t16.5 -16t23 -8.5t25 -2.5q50 0 76.5 27.5t26.5 74.5v17zM57 430q44 42 102.5 63t119.5 21q63 0 106.5 -15.5t70.5 -48t39.5 -82t12.5 -117.5v-251h-150v53h-3q-19 -31 -57.5 -48t-83.5 -17
q-30 0 -62 8t-58.5 26t-43.5 48t-17 74q0 54 29.5 87t76 51t103.5 24t111 6v8q0 37 -26 54.5t-64 17.5q-35 0 -67.5 -15t-55.5 -36zM312 572h-124l104 144h166z" />
    <glyph glyph-name="acircumflex" unicode="&#xe2;" 
d="M358 217h-21q-27 0 -54.5 -2.5t-49 -9.5t-35.5 -20.5t-14 -35.5q0 -14 6.5 -24t16.5 -16t23 -8.5t25 -2.5q50 0 76.5 27.5t26.5 74.5v17zM57 430q44 42 102.5 63t119.5 21q63 0 106.5 -15.5t70.5 -48t39.5 -82t12.5 -117.5v-251h-150v53h-3q-19 -31 -57.5 -48t-83.5 -17
q-30 0 -62 8t-58.5 26t-43.5 48t-17 74q0 54 29.5 87t76 51t103.5 24t111 6v8q0 37 -26 54.5t-64 17.5q-35 0 -67.5 -15t-55.5 -36zM352 572l-68 81l-68 -81h-128l124 144h148l122 -144h-130z" />
    <glyph glyph-name="atilde" unicode="&#xe3;" 
d="M358 217h-21q-27 0 -54.5 -2.5t-49 -9.5t-35.5 -20.5t-14 -35.5q0 -14 6.5 -24t16.5 -16t23 -8.5t25 -2.5q50 0 76.5 27.5t26.5 74.5v17zM57 430q44 42 102.5 63t119.5 21q63 0 106.5 -15.5t70.5 -48t39.5 -82t12.5 -117.5v-251h-150v53h-3q-19 -31 -57.5 -48t-83.5 -17
q-30 0 -62 8t-58.5 26t-43.5 48t-17 74q0 54 29.5 87t76 51t103.5 24t111 6v8q0 37 -26 54.5t-64 17.5q-35 0 -67.5 -15t-55.5 -36zM473 708q-3 -26 -11 -50t-21.5 -42t-33.5 -29t-47 -11q-21 0 -41 6t-40 15q-20 11 -34.5 15.5t-28.5 4.5q-18 0 -27.5 -12t-14.5 -28h-72
q3 26 11 49.5t21.5 41.5t33.5 28.5t47 10.5q21 0 40.5 -5.5t39.5 -14.5q21 -10 36 -15t29 -5q19 0 28 11.5t14 29.5h71z" />
    <glyph glyph-name="adieresis" unicode="&#xe4;" 
d="M358 217h-21q-27 0 -54.5 -2.5t-49 -9.5t-35.5 -20.5t-14 -35.5q0 -14 6.5 -24t16.5 -16t23 -8.5t25 -2.5q50 0 76.5 27.5t26.5 74.5v17zM57 430q44 42 102.5 63t119.5 21q63 0 106.5 -15.5t70.5 -48t39.5 -82t12.5 -117.5v-251h-150v53h-3q-19 -31 -57.5 -48t-83.5 -17
q-30 0 -62 8t-58.5 26t-43.5 48t-17 74q0 54 29.5 87t76 51t103.5 24t111 6v8q0 37 -26 54.5t-64 17.5q-35 0 -67.5 -15t-55.5 -36zM477 658q0 -35 -24.5 -58.5t-58.5 -23.5q-35 0 -59 24t-24 58q0 16 6.5 30.5t17.5 26t26 18t33 6.5q34 0 58.5 -23.5t24.5 -57.5zM260 658
q0 -35 -24.5 -58.5t-59.5 -23.5t-59 24t-24 58q0 16 6.5 30.5t17.5 26t26.5 18t32.5 6.5q35 0 59.5 -23.5t24.5 -57.5z" />
    <glyph glyph-name="aring" unicode="&#xe5;" 
d="M358 217h-21q-27 0 -54.5 -2.5t-49 -9.5t-35.5 -20.5t-14 -35.5q0 -14 6.5 -24t16.5 -16t23 -8.5t25 -2.5q50 0 76.5 27.5t26.5 74.5v17zM57 430q44 42 102.5 63t119.5 21q63 0 106.5 -15.5t70.5 -48t39.5 -82t12.5 -117.5v-251h-150v53h-3q-19 -31 -57.5 -48t-83.5 -17
q-30 0 -62 8t-58.5 26t-43.5 48t-17 74q0 54 29.5 87t76 51t103.5 24t111 6v8q0 37 -26 54.5t-64 17.5q-35 0 -67.5 -15t-55.5 -36zM396 664q0 -23 -8.5 -43t-23.5 -34t-35 -22t-42 -8q-23 0 -42.5 8t-34.5 22t-23.5 33.5t-8.5 42.5q0 47 31.5 77.5t77.5 30.5q22 0 42 -8
t35 -22.5t23.5 -34t8.5 -42.5zM346 664q0 25 -17 41.5t-42 16.5q-26 0 -42.5 -17t-16.5 -42q0 -24 17 -40.5t42 -16.5t42 16.5t17 41.5z" />
    <glyph glyph-name="ae" unicode="&#xe6;" horiz-adv-x="899" 
d="M358 207h-21q-71 0 -112 -11t-41 -47q0 -14 6.5 -24t16.5 -16t23 -8.5t25 -2.5q50 0 76.5 25t26.5 68v16zM709 306q0 39 -24.5 67t-73.5 28q-24 0 -44 -7.5t-35 -20.5t-24 -30.5t-10 -36.5h211zM840 90q-35 -51 -92 -78.5t-134 -27.5q-59 0 -108.5 23.5t-78.5 66.5
q-23 -38 -70.5 -62t-131.5 -24q-32 0 -66 8.5t-62 27t-46 48t-18 72.5q0 52 27 83.5t72 49t102.5 23t118.5 5.5v7q0 42 -24 61t-65 19q-35 0 -68 -15t-56 -36l-82 89q43 42 101.5 63t119.5 21q62 0 101.5 -22t59.5 -51q27 32 70.5 52.5t100.5 20.5q55 0 101 -18.5t79 -53.5
t51.5 -85t18.5 -114q0 -10 -0.5 -20t-1.5 -19h-360q5 -42 39 -68t79 -26q40 0 67 14.5t43 37.5z" />
    <glyph glyph-name="ccedilla" unicode="&#xe7;" horiz-adv-x="503" 
d="M430 -142q0 -29 -14 -48t-36 -30t-47.5 -15.5t-49.5 -4.5q-31 0 -63.5 7t-55.5 18l27 60q19 -9 41.5 -14t42.5 -5q16 0 33 6.5t17 26.5q0 18 -16 23.5t-31 5.5q-9 0 -20 -1.5t-20 -4.5l-31 29l58 77q-49 7 -90.5 28.5t-71.5 55t-47 78t-17 99.5q0 61 21.5 110t59 83.5
t88.5 53t109 18.5q27 0 53.5 -5t51 -13.5t45 -21t35.5 -27.5l-95 -110q-14 18 -38 29t-49 11q-26 0 -47 -10.5t-36 -28t-23.5 -40.5t-8.5 -49t8 -49t23.5 -40.5t37 -27.5t48.5 -10q25 0 49.5 9.5t39.5 27.5l91 -111q-27 -26 -68.5 -42.5t-89.5 -20.5l-35 -45q5 1 9 1h9
q18 0 36.5 -3.5t33 -12.5t24 -25.5t9.5 -41.5z" />
    <glyph glyph-name="egrave" unicode="&#xe8;" horiz-adv-x="596" 
d="M407 306q0 39 -24.5 67t-73.5 28q-24 0 -44 -7.5t-35 -20.5t-24 -30.5t-10 -36.5h211zM558 243v-20q0 -10 -1 -19h-361q2 -21 12.5 -38t27 -29.5t37 -19.5t42.5 -7q39 0 66 14.5t44 37.5l114 -72q-35 -51 -92.5 -78.5t-133.5 -27.5q-56 0 -106 17.5t-87.5 51t-59 82.5
t-21.5 112q0 61 21 110.5t57 84t85 53.5t106 19q55 0 101 -18.5t79 -53.5t51.5 -85t18.5 -114zM278 572l-146 144h166l104 -144h-124z" />
    <glyph glyph-name="eacute" unicode="&#xe9;" horiz-adv-x="596" 
d="M407 306q0 39 -24.5 67t-73.5 28q-24 0 -44 -7.5t-35 -20.5t-24 -30.5t-10 -36.5h211zM558 243v-20q0 -10 -1 -19h-361q2 -21 12.5 -38t27 -29.5t37 -19.5t42.5 -7q39 0 66 14.5t44 37.5l114 -72q-35 -51 -92.5 -78.5t-133.5 -27.5q-56 0 -106 17.5t-87.5 51t-59 82.5
t-21.5 112q0 61 21 110.5t57 84t85 53.5t106 19q55 0 101 -18.5t79 -53.5t51.5 -85t18.5 -114zM331 572h-124l104 144h166z" />
    <glyph glyph-name="ecircumflex" unicode="&#xea;" horiz-adv-x="596" 
d="M407 306q0 39 -24.5 67t-73.5 28q-24 0 -44 -7.5t-35 -20.5t-24 -30.5t-10 -36.5h211zM558 243v-20q0 -10 -1 -19h-361q2 -21 12.5 -38t27 -29.5t37 -19.5t42.5 -7q39 0 66 14.5t44 37.5l114 -72q-35 -51 -92.5 -78.5t-133.5 -27.5q-56 0 -106 17.5t-87.5 51t-59 82.5
t-21.5 112q0 61 21 110.5t57 84t85 53.5t106 19q55 0 101 -18.5t79 -53.5t51.5 -85t18.5 -114zM381 572l-68 81l-68 -81h-128l124 144h148l122 -144h-130z" />
    <glyph glyph-name="edieresis" unicode="&#xeb;" horiz-adv-x="596" 
d="M407 306q0 39 -24.5 67t-73.5 28q-24 0 -44 -7.5t-35 -20.5t-24 -30.5t-10 -36.5h211zM558 243v-20q0 -10 -1 -19h-361q2 -21 12.5 -38t27 -29.5t37 -19.5t42.5 -7q39 0 66 14.5t44 37.5l114 -72q-35 -51 -92.5 -78.5t-133.5 -27.5q-56 0 -106 17.5t-87.5 51t-59 82.5
t-21.5 112q0 61 21 110.5t57 84t85 53.5t106 19q55 0 101 -18.5t79 -53.5t51.5 -85t18.5 -114zM505 658q0 -35 -24.5 -58.5t-58.5 -23.5q-35 0 -59 24t-24 58q0 16 6.5 30.5t17.5 26t26 18t33 6.5q34 0 58.5 -23.5t24.5 -57.5zM288 658q0 -35 -24.5 -58.5t-59.5 -23.5
t-59 24t-24 58q0 16 6.5 30.5t17.5 26t26.5 18t32.5 6.5q35 0 59.5 -23.5t24.5 -57.5z" />
    <glyph glyph-name="igrave" unicode="&#xec;" horiz-adv-x="296" 
d="M66 0v498h164v-498h-164zM104 572l-146 144h166l104 -144h-124z" />
    <glyph glyph-name="iacute" unicode="&#xed;" horiz-adv-x="296" 
d="M66 0v498h164v-498h-164zM191 572h-124l104 144h166z" />
    <glyph glyph-name="icircumflex" unicode="&#xee;" horiz-adv-x="296" 
d="M66 0v498h164v-498h-164zM218 572l-68 81l-68 -81h-128l124 144h148l122 -144h-130z" />
    <glyph glyph-name="idieresis" unicode="&#xef;" horiz-adv-x="296" 
d="M66 0v498h164v-498h-164zM342 658q0 -35 -24.5 -58.5t-58.5 -23.5q-35 0 -59 24t-24 58q0 16 6.5 30.5t17.5 26t26 18t33 6.5q34 0 58.5 -23.5t24.5 -57.5zM125 658q0 -35 -24.5 -58.5t-59.5 -23.5t-59 24t-24 58q0 16 6.5 30.5t17.5 26t26.5 18t32.5 6.5
q35 0 59.5 -23.5t24.5 -57.5z" />
    <glyph glyph-name="eth" unicode="&#xf0;" horiz-adv-x="632" 
d="M593 282q0 -69 -20 -124t-56.5 -94t-87.5 -59.5t-114 -20.5q-57 0 -107.5 18.5t-88 53t-59 84t-21.5 110.5q0 60 20.5 108t56.5 81.5t84 52t103 18.5q23 0 43.5 -5.5t38.5 -19.5l2 1q-21 31 -45.5 61t-52.5 53l-108 -48l-80 70l109 47q-12 12 -33 28.5t-42 30.5l127 71
q28 -21 50 -41l36 -31l113 50l87 -71l-121 -52q36 -39 66 -81t52.5 -88t35 -97t12.5 -106zM435 250q0 24 -8 46.5t-23 40.5t-37.5 29t-51.5 11t-51 -11t-37 -29t-22.5 -40.5t-7.5 -46.5t8 -47t23 -41t37 -29t51 -11t51 11t37 29t23 41t8 47z" />
    <glyph glyph-name="ntilde" unicode="&#xf1;" horiz-adv-x="616" 
d="M391 0v272q0 21 -3.5 40t-11.5 33.5t-22.5 23t-36.5 8.5t-38.5 -8.5t-27.5 -23.5t-16.5 -34.5t-5.5 -40.5v-270h-165v498h159v-69h2q9 16 23.5 31.5t34 26.5t42.5 18t49 7q50 0 85 -18t56.5 -46.5t31 -65.5t9.5 -74v-308h-165zM497 708q-3 -26 -11 -50t-21.5 -42
t-33.5 -29t-47 -11q-21 0 -41 6t-40 15q-20 11 -34.5 15.5t-28.5 4.5q-18 0 -27.5 -12t-14.5 -28h-72q3 26 11 49.5t21.5 41.5t33.5 28.5t47 10.5q21 0 40.5 -5.5t39.5 -14.5q21 -10 36 -15t29 -5q19 0 28 11.5t14 29.5h71z" />
    <glyph glyph-name="ograve" unicode="&#xf2;" horiz-adv-x="632" 
d="M592 251q0 -61 -22 -110.5t-60 -84t-88 -53.5t-107 -19q-56 0 -106.5 19t-88 53.5t-59.5 84t-22 110.5t22 110t59.5 83t88 52t106.5 18q57 0 107 -18t88 -52t60 -83t22 -110zM434 251q0 24 -8 47t-23 40.5t-37 28.5t-51 11t-51 -11t-36.5 -28.5t-22 -40.5t-7.5 -47
t7.5 -47t22.5 -41.5t37 -29.5t51 -11t51 11t37 29.5t22.5 41.5t7.5 47zM273 572l-146 144h166l104 -144h-124z" />
    <glyph glyph-name="oacute" unicode="&#xf3;" horiz-adv-x="632" 
d="M592 251q0 -61 -22 -110.5t-60 -84t-88 -53.5t-107 -19q-56 0 -106.5 19t-88 53.5t-59.5 84t-22 110.5t22 110t59.5 83t88 52t106.5 18q57 0 107 -18t88 -52t60 -83t22 -110zM434 251q0 24 -8 47t-23 40.5t-37 28.5t-51 11t-51 -11t-36.5 -28.5t-22 -40.5t-7.5 -47
t7.5 -47t22.5 -41.5t37 -29.5t51 -11t51 11t37 29.5t22.5 41.5t7.5 47zM354 572h-124l104 144h166z" />
    <glyph glyph-name="ocircumflex" unicode="&#xf4;" horiz-adv-x="632" 
d="M592 251q0 -61 -22 -110.5t-60 -84t-88 -53.5t-107 -19q-56 0 -106.5 19t-88 53.5t-59.5 84t-22 110.5t22 110t59.5 83t88 52t106.5 18q57 0 107 -18t88 -52t60 -83t22 -110zM434 251q0 24 -8 47t-23 40.5t-37 28.5t-51 11t-51 -11t-36.5 -28.5t-22 -40.5t-7.5 -47
t7.5 -47t22.5 -41.5t37 -29.5t51 -11t51 11t37 29.5t22.5 41.5t7.5 47zM381 576l-66 79l-66 -79h-125l121 140h144l118 -140h-126z" />
    <glyph glyph-name="otilde" unicode="&#xf5;" horiz-adv-x="632" 
d="M592 251q0 -61 -22 -110.5t-60 -84t-88 -53.5t-107 -19q-56 0 -106.5 19t-88 53.5t-59.5 84t-22 110.5t22 110t59.5 83t88 52t106.5 18q57 0 107 -18t88 -52t60 -83t22 -110zM434 251q0 24 -8 47t-23 40.5t-37 28.5t-51 11t-51 -11t-36.5 -28.5t-22 -40.5t-7.5 -47
t7.5 -47t22.5 -41.5t37 -29.5t51 -11t51 11t37 29.5t22.5 41.5t7.5 47zM501 708q-3 -26 -11 -50t-21.5 -42t-33.5 -29t-47 -11q-21 0 -41 6t-40 15q-20 11 -34.5 15.5t-28.5 4.5q-18 0 -27.5 -12t-14.5 -28h-72q3 26 11 49.5t21.5 41.5t33.5 28.5t47 10.5q21 0 40.5 -5.5
t39.5 -14.5q21 -10 36 -15t29 -5q19 0 28 11.5t14 29.5h71z" />
    <glyph glyph-name="odieresis" unicode="&#xf6;" horiz-adv-x="632" 
d="M592 251q0 -61 -22 -110.5t-60 -84t-88 -53.5t-107 -19q-56 0 -106.5 19t-88 53.5t-59.5 84t-22 110.5t22 110t59.5 83t88 52t106.5 18q57 0 107 -18t88 -52t60 -83t22 -110zM434 251q0 24 -8 47t-23 40.5t-37 28.5t-51 11t-51 -11t-36.5 -28.5t-22 -40.5t-7.5 -47
t7.5 -47t22.5 -41.5t37 -29.5t51 -11t51 11t37 29.5t22.5 41.5t7.5 47zM507 658q0 -35 -24.5 -58.5t-58.5 -23.5q-35 0 -59 24t-24 58q0 16 6.5 30.5t17.5 26t26 18t33 6.5q34 0 58.5 -23.5t24.5 -57.5zM290 658q0 -35 -24.5 -58.5t-59.5 -23.5t-59 24t-24 58q0 16 6.5 30.5
t17.5 26t26.5 18t32.5 6.5q35 0 59.5 -23.5t24.5 -57.5z" />
    <glyph glyph-name="divide" unicode="&#xf7;" horiz-adv-x="666" 
d="M246 489q0 17 7 32.5t19 27t27.5 18t33.5 6.5t33.5 -6.5t27 -18t18.5 -27t7 -32.5q0 -18 -7 -33.5t-18.5 -27t-27 -18t-33.5 -6.5t-33.5 6.5t-27.5 18t-19 27t-7 33.5zM246 117q0 17 7 32.5t19 27t27.5 18t33.5 6.5t33.5 -6.5t27 -18t18.5 -27t7 -32.5t-7 -32.5
t-18.5 -27t-27 -18.5t-33.5 -7t-33.5 7t-27.5 18.5t-19 27t-7 32.5zM79 240v127h507v-127h-507z" />
    <glyph glyph-name="oslash" unicode="&#xf8;" horiz-adv-x="632" 
d="M537 411q55 -64 55 -161q0 -60 -22 -109t-59.5 -84t-88 -54t-107.5 -19q-45 0 -85 12t-72 35l-75 -74l-59 58l72 71q-26 30 -41.5 72t-15.5 92q0 60 21.5 109t59 83.5t88 53.5t107.5 19q94 0 160 -49l72 72l60 -58zM372 365q-11 8 -26.5 13.5t-32.5 5.5q-29 0 -51.5 -11
t-38 -29t-23.5 -41.5t-8 -48.5q0 -15 3.5 -31t10.5 -26zM436 248q0 16 -3 31.5t-10 26.5l-167 -168q11 -10 27.5 -15t33.5 -5q29 0 51.5 11t37.5 29t22.5 41.5t7.5 48.5z" />
    <glyph glyph-name="ugrave" unicode="&#xf9;" horiz-adv-x="614" 
d="M392 0v69h-2q-9 -17 -23.5 -32t-34 -26t-43 -18t-49.5 -7q-50 0 -84.5 18t-56 46.5t-31 65t-9.5 74.5v308h165v-270q0 -21 3 -40t11.5 -34t22.5 -23.5t37 -8.5q43 0 65.5 32t22.5 75v269h164v-498h-158zM284 572l-146 144h166l104 -144h-124z" />
    <glyph glyph-name="uacute" unicode="&#xfa;" horiz-adv-x="614" 
d="M392 0v69h-2q-9 -17 -23.5 -32t-34 -26t-43 -18t-49.5 -7q-50 0 -84.5 18t-56 46.5t-31 65t-9.5 74.5v308h165v-270q0 -21 3 -40t11.5 -34t22.5 -23.5t37 -8.5q43 0 65.5 32t22.5 75v269h164v-498h-158zM343 572h-124l104 144h166z" />
    <glyph glyph-name="ucircumflex" unicode="&#xfb;" horiz-adv-x="614" 
d="M392 0v69h-2q-9 -17 -23.5 -32t-34 -26t-43 -18t-49.5 -7q-50 0 -84.5 18t-56 46.5t-31 65t-9.5 74.5v308h165v-270q0 -21 3 -40t11.5 -34t22.5 -23.5t37 -8.5q43 0 65.5 32t22.5 75v269h164v-498h-158zM375 572l-68 81l-68 -81h-128l124 144h148l122 -144h-130z" />
    <glyph glyph-name="udieresis" unicode="&#xfc;" horiz-adv-x="614" 
d="M392 0v69h-2q-9 -17 -23.5 -32t-34 -26t-43 -18t-49.5 -7q-50 0 -84.5 18t-56 46.5t-31 65t-9.5 74.5v308h165v-270q0 -21 3 -40t11.5 -34t22.5 -23.5t37 -8.5q43 0 65.5 32t22.5 75v269h164v-498h-158zM499 658q0 -35 -24.5 -58.5t-58.5 -23.5q-35 0 -59 24t-24 58
q0 16 6.5 30.5t17.5 26t26 18t33 6.5q34 0 58.5 -23.5t24.5 -57.5zM282 658q0 -35 -24.5 -58.5t-59.5 -23.5t-59 24t-24 58q0 16 6.5 30.5t17.5 26t26.5 18t32.5 6.5q35 0 59.5 -23.5t24.5 -57.5z" />
    <glyph glyph-name="yacute" unicode="&#xfd;" horiz-adv-x="567" 
d="M345 -75q-15 -39 -33.5 -69.5t-44 -52t-60 -32.5t-81.5 -11q-23 0 -47.5 3t-42.5 8l18 138q12 -4 26.5 -6.5t26.5 -2.5q38 0 55 17.5t29 49.5l16 41l-208 490h182l111 -320h3l99 320h174zM342 572h-124l104 144h166z" />
    <glyph glyph-name="thorn" unicode="&#xfe;" horiz-adv-x="659" 
d="M619 251q0 -52 -16 -100t-46 -84.5t-74 -58.5t-101 -22q-46 0 -87.5 19t-63.5 51h-2v-296h-163v996h163v-311h3q21 25 58.5 46t93.5 21q54 0 97.5 -21t74 -57t47 -83.5t16.5 -99.5zM461 251q0 24 -7.5 47t-22.5 40.5t-37 28.5t-51 11q-28 0 -50 -11t-37.5 -29t-24 -41
t-8.5 -47t8.5 -47t24 -41t37.5 -29t50 -11q29 0 51 11t37 29t22.5 41.5t7.5 47.5z" />
    <glyph glyph-name="ydieresis" unicode="&#xff;" horiz-adv-x="567" 
d="M345 -75q-15 -39 -33.5 -69.5t-44 -52t-60 -32.5t-81.5 -11q-23 0 -47.5 3t-42.5 8l18 138q12 -4 26.5 -6.5t26.5 -2.5q38 0 55 17.5t29 49.5l16 41l-208 490h182l111 -320h3l99 320h174zM485 658q0 -35 -24.5 -58.5t-58.5 -23.5q-35 0 -59 24t-24 58q0 16 6.5 30.5
t17.5 26t26 18t33 6.5q34 0 58.5 -23.5t24.5 -57.5zM268 658q0 -35 -24.5 -58.5t-59.5 -23.5t-59 24t-24 58q0 16 6.5 30.5t17.5 26t26.5 18t32.5 6.5q35 0 59.5 -23.5t24.5 -57.5z" />
    <glyph glyph-name="Amacron" unicode="&#x100;" horiz-adv-x="729" 
d="M553 0l-55 139h-274l-52 -139h-186l297 708h166l294 -708h-190zM363 519l-90 -243h178zM196 793v86h336v-86h-336z" />
    <glyph glyph-name="amacron" unicode="&#x101;" 
d="M358 217h-21q-27 0 -54.5 -2.5t-49 -9.5t-35.5 -20.5t-14 -35.5q0 -14 6.5 -24t16.5 -16t23 -8.5t25 -2.5q50 0 76.5 27.5t26.5 74.5v17zM57 430q44 42 102.5 63t119.5 21q63 0 106.5 -15.5t70.5 -48t39.5 -82t12.5 -117.5v-251h-150v53h-3q-19 -31 -57.5 -48t-83.5 -17
q-30 0 -62 8t-58.5 26t-43.5 48t-17 74q0 54 29.5 87t76 51t103.5 24t111 6v8q0 37 -26 54.5t-64 17.5q-35 0 -67.5 -15t-55.5 -36zM118 601v86h336v-86h-336z" />
    <glyph glyph-name="Abreve" unicode="&#x102;" horiz-adv-x="729" 
d="M553 0l-55 139h-274l-52 -139h-186l297 708h166l294 -708h-190zM363 519l-90 -243h178zM537 908q-3 -39 -18 -66.5t-38 -44.5t-53.5 -25t-65.5 -8q-34 0 -64.5 7.5t-53.5 25t-37.5 45t-17.5 66.5h84q3 -16 11.5 -26.5t21 -17t27.5 -9t30 -2.5q34 0 58.5 10t31.5 45h84z
" />
    <glyph glyph-name="abreve" unicode="&#x103;" 
d="M358 217h-21q-27 0 -54.5 -2.5t-49 -9.5t-35.5 -20.5t-14 -35.5q0 -14 6.5 -24t16.5 -16t23 -8.5t25 -2.5q50 0 76.5 27.5t26.5 74.5v17zM57 430q44 42 102.5 63t119.5 21q63 0 106.5 -15.5t70.5 -48t39.5 -82t12.5 -117.5v-251h-150v53h-3q-19 -31 -57.5 -48t-83.5 -17
q-30 0 -62 8t-58.5 26t-43.5 48t-17 74q0 54 29.5 87t76 51t103.5 24t111 6v8q0 37 -26 54.5t-64 17.5q-35 0 -67.5 -15t-55.5 -36zM460 716q-3 -39 -18 -66.5t-38 -44.5t-53.5 -25t-65.5 -8q-34 0 -64.5 7.5t-53.5 25t-37.5 45t-17.5 66.5h84q6 -29 32 -44q13 -6 28 -8.5
t30 -2.5q34 0 58.5 10t31.5 45h84z" />
    <glyph glyph-name="Aogonek" unicode="&#x104;" horiz-adv-x="729" 
d="M680 -196q-23 -17 -53 -28.5t-62 -11.5q-20 0 -40.5 5t-36.5 16t-26 28.5t-10 41.5q0 21 9.5 41.5t24 39.5t32.5 35t36 29h-1l-55 139h-274l-52 -139h-186l297 708h166l294 -708h-97q-38 -30 -64 -61t-26 -57q0 -16 10.5 -26t26.5 -10q14 0 28 5.5t27 14.5zM363 519
l-90 -243h178z" />
    <glyph glyph-name="aogonek" unicode="&#x105;" 
d="M480 -196q-23 -17 -53 -28.5t-62 -11.5q-20 0 -40.5 5t-36.5 16t-26 28.5t-10 41.5q0 22 10 43t25 40t34 35.5t37 28.5v51h-3q-19 -31 -57.5 -48t-83.5 -17q-30 0 -62 8t-58.5 26t-43.5 48t-17 74q0 54 29.5 87t76 51t103.5 24t111 6v8q0 37 -26 54.5t-64 17.5
q-35 0 -67.5 -15t-55.5 -36l-83 89q44 42 102.5 63t119.5 21q63 0 106.5 -15.5t70.5 -48t39.5 -82t12.5 -117.5v-251h-62q-38 -30 -64 -61t-26 -57q0 -16 10.5 -26t26.5 -10q14 0 28 5.5t27 14.5zM358 217h-21q-27 0 -54.5 -2.5t-49 -9.5t-35.5 -20.5t-14 -35.5
q0 -14 6.5 -24t16.5 -16t23 -8.5t25 -2.5q50 0 76.5 27.5t26.5 74.5v17z" />
    <glyph glyph-name="Cacute" unicode="&#x106;" horiz-adv-x="696" 
d="M696 98q-47 -54 -116 -85.5t-159 -31.5q-82 0 -151.5 27t-120.5 76.5t-80 118.5t-29 152q0 85 29.5 154t81.5 117.5t122 74.5t151 26q75 0 147.5 -26.5t117.5 -77.5l-116 -116q-24 33 -63 49t-80 16q-45 0 -82.5 -16.5t-64.5 -45.5t-42 -68.5t-15 -86.5q0 -48 15 -88
t41.5 -68.5t63.5 -44.5t81 -16q51 0 89 20t61 52zM453 764h-124l104 144h166z" />
    <glyph glyph-name="cacute" unicode="&#x107;" horiz-adv-x="503" 
d="M407 337q-14 18 -38 29t-49 11q-26 0 -47 -10.5t-36 -28t-23.5 -40.5t-8.5 -49t8 -49t23.5 -40.5t37 -27.5t48.5 -10q25 0 49.5 9.5t39.5 27.5l91 -111q-31 -30 -80 -47t-104 -17q-59 0 -110 18t-88.5 52.5t-59 83.5t-21.5 111q0 61 21.5 110t59 83.5t88.5 53t109 18.5
q27 0 53.5 -5t51 -13.5t45 -21t35.5 -27.5zM357 572h-124l104 144h166z" />
    <glyph glyph-name="Ccircumflex" unicode="&#x108;" horiz-adv-x="696" 
d="M696 98q-47 -54 -116 -85.5t-159 -31.5q-82 0 -151.5 27t-120.5 76.5t-80 118.5t-29 152q0 85 29.5 154t81.5 117.5t122 74.5t151 26q75 0 147.5 -26.5t117.5 -77.5l-116 -116q-24 33 -63 49t-80 16q-45 0 -82.5 -16.5t-64.5 -45.5t-42 -68.5t-15 -86.5q0 -48 15 -88
t41.5 -68.5t63.5 -44.5t81 -16q51 0 89 20t61 52zM495 764l-68 81l-68 -81h-128l124 144h148l122 -144h-130z" />
    <glyph glyph-name="ccircumflex" unicode="&#x109;" horiz-adv-x="503" 
d="M407 337q-14 18 -38 29t-49 11q-26 0 -47 -10.5t-36 -28t-23.5 -40.5t-8.5 -49t8 -49t23.5 -40.5t37 -27.5t48.5 -10q25 0 49.5 9.5t39.5 27.5l91 -111q-31 -30 -80 -47t-104 -17q-59 0 -110 18t-88.5 52.5t-59 83.5t-21.5 111q0 61 21.5 110t59 83.5t88.5 53t109 18.5
q27 0 53.5 -5t51 -13.5t45 -21t35.5 -27.5zM386 572l-68 81l-68 -81h-128l124 144h148l122 -144h-130z" />
    <glyph glyph-name="Cdotaccent" unicode="&#x10a;" horiz-adv-x="696" 
d="M696 98q-47 -54 -116 -85.5t-159 -31.5q-82 0 -151.5 27t-120.5 76.5t-80 118.5t-29 152q0 85 29.5 154t81.5 117.5t122 74.5t151 26q75 0 147.5 -26.5t117.5 -77.5l-116 -116q-24 33 -63 49t-80 16q-45 0 -82.5 -16.5t-64.5 -45.5t-42 -68.5t-15 -86.5q0 -48 15 -88
t41.5 -68.5t63.5 -44.5t81 -16q51 0 89 20t61 52zM515 849q0 -36 -26 -60.5t-64 -24.5t-63.5 25t-25.5 60t25.5 60.5t63.5 25.5t64 -25t26 -61z" />
    <glyph glyph-name="cdotaccent" unicode="&#x10b;" horiz-adv-x="503" 
d="M407 337q-14 18 -38 29t-49 11q-26 0 -47 -10.5t-36 -28t-23.5 -40.5t-8.5 -49t8 -49t23.5 -40.5t37 -27.5t48.5 -10q25 0 49.5 9.5t39.5 27.5l91 -111q-31 -30 -80 -47t-104 -17q-59 0 -110 18t-88.5 52.5t-59 83.5t-21.5 111q0 61 21.5 110t59 83.5t88.5 53t109 18.5
q27 0 53.5 -5t51 -13.5t45 -21t35.5 -27.5zM410 657q0 -36 -26 -60.5t-64 -24.5t-63.5 25t-25.5 60t25.5 60.5t63.5 25.5t64 -25t26 -61z" />
    <glyph glyph-name="Ccaron" unicode="&#x10c;" horiz-adv-x="696" 
d="M696 98q-47 -54 -116 -85.5t-159 -31.5q-82 0 -151.5 27t-120.5 76.5t-80 118.5t-29 152q0 85 29.5 154t81.5 117.5t122 74.5t151 26q75 0 147.5 -26.5t117.5 -77.5l-116 -116q-24 33 -63 49t-80 16q-45 0 -82.5 -16.5t-64.5 -45.5t-42 -68.5t-15 -86.5q0 -48 15 -88
t41.5 -68.5t63.5 -44.5t81 -16q51 0 89 20t61 52zM501 764h-147l-124 144h130l68 -81l68 81h128z" />
    <glyph glyph-name="ccaron" unicode="&#x10d;" horiz-adv-x="503" 
d="M407 337q-14 18 -38 29t-49 11q-26 0 -47 -10.5t-36 -28t-23.5 -40.5t-8.5 -49t8 -49t23.5 -40.5t37 -27.5t48.5 -10q25 0 49.5 9.5t39.5 27.5l91 -111q-31 -30 -80 -47t-104 -17q-59 0 -110 18t-88.5 52.5t-59 83.5t-21.5 111q0 61 21.5 110t59 83.5t88.5 53t109 18.5
q27 0 53.5 -5t51 -13.5t45 -21t35.5 -27.5zM391 572h-147l-124 144h130l68 -81l68 81h128z" />
    <glyph glyph-name="Dcaron" unicode="&#x10e;" horiz-adv-x="774" 
d="M734 356q0 -93 -34.5 -160.5t-91 -111t-127.5 -64t-144 -20.5h-264v708h256q75 0 148 -17.5t130 -58t92 -108.5t35 -168zM556 356q0 60 -19.5 99.5t-52 63t-74 33.5t-85.5 10h-85v-414h81q46 0 88.5 10.5t75 34.5t52 64t19.5 99zM431 764h-147l-124 144h130l68 -81l68 81
h128z" />
    <glyph glyph-name="dcaron" unicode="&#x10f;" horiz-adv-x="658" 
d="M441 0v65h-2q-24 -38 -68.5 -58.5t-94.5 -20.5q-56 0 -100 22t-74.5 58.5t-46.5 84.5t-16 100t16.5 99.5t47 83.5t74 57t97.5 21q55 0 93 -21t59 -46h2v311h164v-756h-151zM435 250q0 24 -8.5 47t-24 41t-37.5 29t-50 11q-29 0 -51 -11t-37 -28.5t-22.5 -40.5t-7.5 -47
t7.5 -47.5t22.5 -41.5t37 -29t51 -11q28 0 50 11t37.5 29t24 41t8.5 47zM746 513h-126l67 195h145z" />
    <glyph glyph-name="Dcroat" unicode="&#x110;" horiz-adv-x="774" 
d="M732 356q0 -92 -34 -159t-89 -111t-124 -65t-139 -21h-272v309h-61v107h61v292h273q75 0 145 -19.5t123 -62t85 -109.5t32 -161zM557 356q0 52 -16.5 90.5t-46.5 63.5t-71.5 37t-91.5 12h-90v-143h181v-107h-181v-159h74q52 0 96.5 11.5t76.5 36.5t50.5 64t18.5 94z" />
    <glyph glyph-name="dcroat" unicode="&#x111;" horiz-adv-x="658" 
d="M441 0v65h-2q-24 -38 -68.5 -58.5t-94.5 -20.5q-56 0 -100 22t-74.5 58.5t-46.5 84.5t-16 100t16.5 99.5t47 83.5t74 57t97.5 21q55 0 93 -21t59 -46h2v125h-149v89h149v97h164v-97h46v-89h-46v-570h-151zM435 250q0 24 -8.5 47t-24 41t-37.5 29t-50 11q-29 0 -51 -11
t-37 -28.5t-22.5 -40.5t-7.5 -47t7.5 -47.5t22.5 -41.5t37 -29t51 -11q28 0 50 11t37.5 29t24 41t8.5 47z" />
    <glyph glyph-name="Emacron" unicode="&#x112;" horiz-adv-x="607" 
d="M73 0v708h476v-145h-311v-133h294v-137h-294v-147h329v-146h-494zM142 793v86h336v-86h-336z" />
    <glyph glyph-name="emacron" unicode="&#x113;" horiz-adv-x="596" 
d="M407 306q0 39 -24.5 67t-73.5 28q-24 0 -44 -7.5t-35 -20.5t-24 -30.5t-10 -36.5h211zM558 243v-20q0 -10 -1 -19h-361q2 -21 12.5 -38t27 -29.5t37 -19.5t42.5 -7q39 0 66 14.5t44 37.5l114 -72q-35 -51 -92.5 -78.5t-133.5 -27.5q-56 0 -106 17.5t-87.5 51t-59 82.5
t-21.5 112q0 61 21 110.5t57 84t85 53.5t106 19q55 0 101 -18.5t79 -53.5t51.5 -85t18.5 -114zM144 601v86h336v-86h-336z" />
    <glyph glyph-name="Ebreve" unicode="&#x114;" horiz-adv-x="607" 
d="M73 0v708h476v-145h-311v-133h294v-137h-294v-147h329v-146h-494zM484 908q-3 -39 -18 -66.5t-38 -44.5t-53.5 -25t-65.5 -8q-34 0 -64.5 7.5t-53.5 25t-37.5 45t-17.5 66.5h84q3 -16 11.5 -26.5t21 -17t27.5 -9t30 -2.5q34 0 58.5 10t31.5 45h84z" />
    <glyph glyph-name="ebreve" unicode="&#x115;" horiz-adv-x="596" 
d="M407 306q0 39 -24.5 67t-73.5 28q-24 0 -44 -7.5t-35 -20.5t-24 -30.5t-10 -36.5h211zM558 243v-20q0 -10 -1 -19h-361q2 -21 12.5 -38t27 -29.5t37 -19.5t42.5 -7q39 0 66 14.5t44 37.5l114 -72q-35 -51 -92.5 -78.5t-133.5 -27.5q-56 0 -106 17.5t-87.5 51t-59 82.5
t-21.5 112q0 61 21 110.5t57 84t85 53.5t106 19q55 0 101 -18.5t79 -53.5t51.5 -85t18.5 -114zM486 716q-3 -39 -18 -66.5t-38 -44.5t-53.5 -25t-65.5 -8q-34 0 -64.5 7.5t-53.5 25t-37.5 45t-17.5 66.5h84q6 -29 32 -44q13 -6 28 -8.5t30 -2.5q34 0 58.5 10t31.5 45h84z
" />
    <glyph glyph-name="Edotaccent" unicode="&#x116;" horiz-adv-x="607" 
d="M73 0v708h476v-145h-311v-133h294v-137h-294v-147h329v-146h-494zM400 849q0 -36 -26 -60.5t-64 -24.5t-63.5 25t-25.5 60t25.5 60.5t63.5 25.5t64 -25t26 -61z" />
    <glyph glyph-name="edotaccent" unicode="&#x117;" horiz-adv-x="596" 
d="M407 306q0 39 -24.5 67t-73.5 28q-24 0 -44 -7.5t-35 -20.5t-24 -30.5t-10 -36.5h211zM558 243v-20q0 -10 -1 -19h-361q2 -21 12.5 -38t27 -29.5t37 -19.5t42.5 -7q39 0 66 14.5t44 37.5l114 -72q-35 -51 -92.5 -78.5t-133.5 -27.5q-56 0 -106 17.5t-87.5 51t-59 82.5
t-21.5 112q0 61 21 110.5t57 84t85 53.5t106 19q55 0 101 -18.5t79 -53.5t51.5 -85t18.5 -114zM401 657q0 -36 -26 -60.5t-64 -24.5t-63.5 25t-25.5 60t25.5 60.5t63.5 25.5t64 -25t26 -61z" />
    <glyph glyph-name="Eogonek" unicode="&#x118;" horiz-adv-x="607" 
d="M584 -196q-23 -17 -53 -28.5t-62 -11.5q-20 0 -40.5 5t-36.5 16t-26 28.5t-10 41.5q0 21 9.5 41.5t24 39.5t32.5 35t36 29h-385v708h476v-145h-311v-133h294v-137h-294v-147h329v-146h-17q-38 -30 -64 -61t-26 -57q0 -16 10.5 -26t26.5 -10q14 0 28 5.5t27 14.5z" />
    <glyph glyph-name="eogonek" unicode="&#x119;" horiz-adv-x="596" 
d="M434 -196q-23 -17 -53 -28.5t-62 -11.5q-20 0 -40.5 5t-36.5 16t-26 28.5t-10 41.5q0 37 25.5 70.5t56.5 59.5q-52 3 -97.5 22t-79 52.5t-53 80.5t-19.5 107q0 61 21 110.5t57 84t85 53.5t106 19q55 0 101 -18.5t79 -53.5t51.5 -85t18.5 -114v-20q0 -10 -1 -19h-361
q2 -21 12.5 -38t27 -29.5t37 -19.5t42.5 -7q39 0 66 14.5t44 37.5l114 -72q-51 -76 -149 -97q-34 -29 -57 -57.5t-23 -53.5q0 -16 10.5 -26t26.5 -10q14 0 28 5.5t27 14.5zM407 306q0 39 -24.5 67t-73.5 28q-24 0 -44 -7.5t-35 -20.5t-24 -30.5t-10 -36.5h211z" />
    <glyph glyph-name="Ecaron" unicode="&#x11a;" horiz-adv-x="607" 
d="M73 0v708h476v-145h-311v-133h294v-137h-294v-147h329v-146h-494zM385 764h-147l-124 144h130l68 -81l68 81h128z" />
    <glyph glyph-name="ecaron" unicode="&#x11b;" horiz-adv-x="596" 
d="M407 306q0 39 -24.5 67t-73.5 28q-24 0 -44 -7.5t-35 -20.5t-24 -30.5t-10 -36.5h211zM558 243v-20q0 -10 -1 -19h-361q2 -21 12.5 -38t27 -29.5t37 -19.5t42.5 -7q39 0 66 14.5t44 37.5l114 -72q-35 -51 -92.5 -78.5t-133.5 -27.5q-56 0 -106 17.5t-87.5 51t-59 82.5
t-21.5 112q0 61 21 110.5t57 84t85 53.5t106 19q55 0 101 -18.5t79 -53.5t51.5 -85t18.5 -114zM386 572h-147l-124 144h130l68 -81l68 81h128z" />
    <glyph glyph-name="Gcircumflex" unicode="&#x11c;" horiz-adv-x="769" 
d="M702 43q-52 -27 -121.5 -44t-151.5 -17q-85 0 -156.5 27t-123 76t-80.5 117.5t-29 152.5q0 85 29.5 154t81.5 117.5t122 74.5t151 26q84 0 156 -25.5t117 -68.5l-108 -123q-25 29 -66 47.5t-93 18.5q-45 0 -83 -16.5t-66 -46t-43.5 -70t-15.5 -88.5q0 -49 14 -90
t41.5 -70.5t68 -46t92.5 -16.5q30 0 57 4.5t50 14.5v129h-135v138h292v-375zM499 764l-68 81l-68 -81h-128l124 144h148l122 -144h-130z" />
    <glyph glyph-name="gcircumflex" unicode="&#x11d;" horiz-adv-x="658" 
d="M592 47q0 -73 -21 -127t-59 -89.5t-92.5 -53t-120.5 -17.5t-135.5 20t-120.5 58l82 117q36 -32 79.5 -47.5t85.5 -15.5q72 0 106.5 38t34.5 101v30h-3q-23 -30 -62 -48t-89 -18q-57 0 -101 20.5t-74.5 55.5t-46.5 81.5t-16 98.5t16 99t46.5 83t74.5 57.5t100 21.5
q47 0 90 -19t69 -59h2v64h155v-451zM436 252q0 25 -8.5 48t-24.5 40.5t-38 27.5t-50 10t-49.5 -10t-36.5 -27t-23 -40t-8 -49q0 -25 8 -48t23 -40.5t36.5 -28t49.5 -10.5t50.5 10.5t38 27.5t24 40t8.5 49zM387 572l-68 81l-68 -81h-128l124 144h148l122 -144h-130z" />
    <glyph glyph-name="Gbreve" unicode="&#x11e;" horiz-adv-x="769" 
d="M702 43q-52 -27 -121.5 -44t-151.5 -17q-85 0 -156.5 27t-123 76t-80.5 117.5t-29 152.5q0 85 29.5 154t81.5 117.5t122 74.5t151 26q84 0 156 -25.5t117 -68.5l-108 -123q-25 29 -66 47.5t-93 18.5q-45 0 -83 -16.5t-66 -46t-43.5 -70t-15.5 -88.5q0 -49 14 -90
t41.5 -70.5t68 -46t92.5 -16.5q30 0 57 4.5t50 14.5v129h-135v138h292v-375zM610 908q-3 -39 -18 -66.5t-38 -44.5t-53.5 -25t-65.5 -8q-34 0 -64.5 7.5t-53.5 25t-37.5 45t-17.5 66.5h84q3 -16 11.5 -26.5t21 -17t27.5 -9t30 -2.5q34 0 58.5 10t31.5 45h84z" />
    <glyph glyph-name="gbreve" unicode="&#x11f;" horiz-adv-x="658" 
d="M592 47q0 -73 -21 -127t-59 -89.5t-92.5 -53t-120.5 -17.5t-135.5 20t-120.5 58l82 117q36 -32 79.5 -47.5t85.5 -15.5q72 0 106.5 38t34.5 101v30h-3q-23 -30 -62 -48t-89 -18q-57 0 -101 20.5t-74.5 55.5t-46.5 81.5t-16 98.5t16 99t46.5 83t74.5 57.5t100 21.5
q47 0 90 -19t69 -59h2v64h155v-451zM436 252q0 25 -8.5 48t-24.5 40.5t-38 27.5t-50 10t-49.5 -10t-36.5 -27t-23 -40t-8 -49q0 -25 8 -48t23 -40.5t36.5 -28t49.5 -10.5t50.5 10.5t38 27.5t24 40t8.5 49zM499 716q-3 -39 -18 -66.5t-38 -44.5t-53.5 -25t-65.5 -8
q-34 0 -64.5 7.5t-53.5 25t-37.5 45t-17.5 66.5h84q6 -29 32 -44q13 -6 28 -8.5t30 -2.5q34 0 58.5 10t31.5 45h84z" />
    <glyph glyph-name="Gdotaccent" unicode="&#x120;" horiz-adv-x="769" 
d="M702 43q-52 -27 -121.5 -44t-151.5 -17q-85 0 -156.5 27t-123 76t-80.5 117.5t-29 152.5q0 85 29.5 154t81.5 117.5t122 74.5t151 26q84 0 156 -25.5t117 -68.5l-108 -123q-25 29 -66 47.5t-93 18.5q-45 0 -83 -16.5t-66 -46t-43.5 -70t-15.5 -88.5q0 -49 14 -90
t41.5 -70.5t68 -46t92.5 -16.5q30 0 57 4.5t50 14.5v129h-135v138h292v-375zM521 849q0 -36 -26 -60.5t-64 -24.5t-63.5 25t-25.5 60t25.5 60.5t63.5 25.5t64 -25t26 -61z" />
    <glyph glyph-name="gdotaccent" unicode="&#x121;" horiz-adv-x="658" 
d="M592 47q0 -73 -21 -127t-59 -89.5t-92.5 -53t-120.5 -17.5t-135.5 20t-120.5 58l82 117q36 -32 79.5 -47.5t85.5 -15.5q72 0 106.5 38t34.5 101v30h-3q-23 -30 -62 -48t-89 -18q-57 0 -101 20.5t-74.5 55.5t-46.5 81.5t-16 98.5t16 99t46.5 83t74.5 57.5t100 21.5
q47 0 90 -19t69 -59h2v64h155v-451zM436 252q0 25 -8.5 48t-24.5 40.5t-38 27.5t-50 10t-49.5 -10t-36.5 -27t-23 -40t-8 -49q0 -25 8 -48t23 -40.5t36.5 -28t49.5 -10.5t50.5 10.5t38 27.5t24 40t8.5 49zM411 657q0 -36 -26 -60.5t-64 -24.5t-63.5 25t-25.5 60t25.5 60.5
t63.5 25.5t64 -25t26 -61z" />
    <glyph glyph-name="Gcommaaccent" unicode="&#x122;" horiz-adv-x="769" 
d="M702 43q-52 -27 -121.5 -44t-151.5 -17q-85 0 -156.5 27t-123 76t-80.5 117.5t-29 152.5q0 85 29.5 154t81.5 117.5t122 74.5t151 26q84 0 156 -25.5t117 -68.5l-108 -123q-25 29 -66 47.5t-93 18.5q-45 0 -83 -16.5t-66 -46t-43.5 -70t-15.5 -88.5q0 -49 14 -90
t41.5 -70.5t68 -46t92.5 -16.5q30 0 57 4.5t50 14.5v129h-135v138h292v-375zM420 -240h-126l67 195h145z" />
    <glyph glyph-name="gcommaaccent" unicode="&#x123;" horiz-adv-x="658" 
d="M592 47q0 -73 -21 -127t-59 -89.5t-92.5 -53t-120.5 -17.5t-135.5 20t-120.5 58l82 117q36 -32 79.5 -47.5t85.5 -15.5q72 0 106.5 38t34.5 101v30h-3q-23 -30 -62 -48t-89 -18q-57 0 -101 20.5t-74.5 55.5t-46.5 81.5t-16 98.5t16 99t46.5 83t74.5 57.5t100 21.5
q47 0 90 -19t69 -59h2v64h155v-451zM436 252q0 25 -8.5 48t-24.5 40.5t-38 27.5t-50 10t-49.5 -10t-36.5 -27t-23 -40t-8 -49q0 -25 8 -48t23 -40.5t36.5 -28t49.5 -10.5t50.5 10.5t38 27.5t24 40t8.5 49zM333 767h126l-67 -195h-145z" />
    <glyph glyph-name="Hcircumflex" unicode="&#x124;" horiz-adv-x="764" 
d="M520 0v296h-276v-296h-171v708h171v-268h276v268h171v-708h-171zM452 764l-68 81l-68 -81h-128l124 144h148l122 -144h-130z" />
    <glyph glyph-name="hcircumflex" unicode="&#x125;" horiz-adv-x="617" 
d="M392 0v270q0 21 -3 40t-11.5 33.5t-22.5 23t-36 8.5q-43 0 -66 -30.5t-23 -75.5v-269h-164v756h164v-321h2q17 30 54 53.5t89 23.5q51 0 85.5 -18t56 -46.5t31 -65.5t9.5 -74v-308h-165zM214 796l-68 81l-68 -81h-128l124 144h148l122 -144h-130z" />
    <glyph glyph-name="Hbar" unicode="&#x126;" horiz-adv-x="764" 
d="M520 0v296h-276v-296h-171v708h171v-119h276v119h171v-708h-171zM520 440v60h-276v-60h276z" />
    <glyph glyph-name="hbar" unicode="&#x127;" horiz-adv-x="617" 
d="M392 0v270q0 21 -3 40t-11.5 33.5t-22.5 23t-36 8.5q-43 0 -66 -30.5t-23 -75.5v-269h-164v570h-46v89h46v97h164v-97h149v-89h-149v-135h2q17 30 54 53.5t89 23.5q51 0 85.5 -18t56 -46.5t31 -65.5t9.5 -74v-308h-165z" />
    <glyph glyph-name="Itilde" unicode="&#x128;" horiz-adv-x="318" 
d="M73 0v708h172v-708h-172zM345 900q-3 -26 -11 -50t-21.5 -42t-33.5 -29t-47 -11q-21 0 -41 6t-40 15q-20 11 -34.5 15.5t-28.5 4.5q-18 0 -27.5 -12t-14.5 -28h-72q3 26 11 49.5t21.5 41.5t33.5 28.5t47 10.5q21 0 40.5 -5.5t39.5 -14.5q21 -10 36 -15t29 -5
q19 0 28 11.5t14 29.5h71z" />
    <glyph glyph-name="itilde" unicode="&#x129;" horiz-adv-x="296" 
d="M66 0v498h164v-498h-164zM335 708q-3 -26 -11 -50t-21.5 -42t-33.5 -29t-47 -11q-21 0 -41 6t-40 15q-20 11 -34.5 15.5t-28.5 4.5q-18 0 -27.5 -12t-14.5 -28h-72q3 26 11 49.5t21.5 41.5t33.5 28.5t47 10.5q21 0 40.5 -5.5t39.5 -14.5q21 -10 36 -15t29 -5
q19 0 28 11.5t14 29.5h71z" />
    <glyph glyph-name="Imacron" unicode="&#x12a;" horiz-adv-x="318" 
d="M73 0v708h172v-708h-172zM-10 793v86h336v-86h-336z" />
    <glyph glyph-name="imacron" unicode="&#x12b;" horiz-adv-x="296" 
d="M66 0v498h164v-498h-164zM-18 601v86h336v-86h-336z" />
    <glyph glyph-name="Ibreve" unicode="&#x12c;" horiz-adv-x="318" 
d="M73 0v708h172v-708h-172zM333 927q-3 -39 -18 -66.5t-38 -44.5t-53.5 -25t-65.5 -8q-34 0 -64.5 7.5t-53.5 25t-37.5 45t-17.5 66.5h84q6 -29 32 -44q13 -6 28 -8.5t30 -2.5q34 0 58.5 10t31.5 45h84z" />
    <glyph glyph-name="ibreve" unicode="&#x12d;" horiz-adv-x="296" 
d="M66 0v498h164v-498h-164zM322 717q-3 -39 -18 -66.5t-38 -44.5t-53.5 -25t-65.5 -8q-34 0 -64.5 7.5t-53.5 25t-37.5 45t-17.5 66.5h84q6 -29 32 -44q13 -6 28 -8.5t30 -2.5q34 0 58.5 10t31.5 45h84z" />
    <glyph glyph-name="Iogonek" unicode="&#x12e;" horiz-adv-x="318" 
d="M268 -196q-23 -17 -53 -28.5t-62 -11.5q-20 0 -40.5 5t-36.5 16t-26 28.5t-10 41.5q0 21 9.5 41.5t24 39.5t32.5 35t36 29h-69v708h172v-708h-11q-38 -30 -64 -61t-26 -57q0 -16 10.5 -26t26.5 -10q14 0 28 5.5t27 14.5z" />
    <glyph glyph-name="iogonek" unicode="&#x12f;" horiz-adv-x="296" 
d="M249 -196q-23 -17 -53 -28.5t-62 -11.5q-20 0 -40.5 5t-36.5 16t-26 28.5t-10 41.5q0 21 9.5 41.5t24 39.5t32.5 35t36 29h-57v498h164v-498h-15q-38 -30 -64 -61t-26 -57q0 -16 10.5 -26t26.5 -10q14 0 28 5.5t27 14.5zM242 657q0 -19 -7.5 -35.5t-20 -28.5t-30 -19
t-36.5 -7q-40 0 -67 26.5t-27 63.5q0 18 7 34.5t20 28.5t30 19.5t37 7.5q19 0 36.5 -7t30 -19t20 -28.5t7.5 -35.5z" />
    <glyph glyph-name="Idotaccent" unicode="&#x130;" horiz-adv-x="318" 
d="M73 0v708h172v-708h-172zM249 849q0 -36 -26 -60.5t-64 -24.5t-63.5 25t-25.5 60t25.5 60.5t63.5 25.5t64 -25t26 -61z" />
    <glyph glyph-name="dotlessi" unicode="&#x131;" horiz-adv-x="296" 
d="M66 0v498h164v-498h-164z" />
    <glyph glyph-name="Jcircumflex" unicode="&#x134;" horiz-adv-x="529" 
d="M460 242q0 -42 -9.5 -88t-35 -84.5t-71 -63.5t-117.5 -25q-90 0 -150 46.5t-80 119.5l151 51q7 -28 25.5 -45t45.5 -17q42 0 55.5 29t13.5 76v467h172v-466zM440 764l-68 81l-68 -81h-128l124 144h148l122 -144h-130z" />
    <glyph glyph-name="jcircumflex" unicode="&#x135;" horiz-adv-x="299" 
d="M233 -13q0 -46 -8.5 -87.5t-30.5 -72.5t-61 -49t-99 -18q-17 0 -37 2t-34 6l11 137q9 -3 18.5 -4t16.5 -1q36 0 48 24.5t12 62.5v511h164v-511zM216 572l-68 81l-68 -81h-128l124 144h148l122 -144h-130z" />
    <glyph glyph-name="Kcommaaccent" unicode="&#x136;" horiz-adv-x="711" 
d="M506 0l-263 326h-2v-326h-168v708h168v-288h3l253 288h214l-305 -326l323 -382h-223zM357 -240h-126l67 195h145z" />
    <glyph glyph-name="kcommaaccent" unicode="&#x137;" horiz-adv-x="595" 
d="M599 0h-203l-163 239h-3v-239h-165v756h165v-460h3l159 202h199l-192 -225zM299 -240h-126l67 195h145z" />
    <glyph glyph-name="Lacute" unicode="&#x139;" horiz-adv-x="526" 
d="M73 0v708h172v-559h274v-149h-446zM219 764h-124l104 144h166z" />
    <glyph glyph-name="lacute" unicode="&#x13a;" horiz-adv-x="298" 
d="M66 0v756h166v-756h-166zM190 792h-124l104 144h166z" />
    <glyph glyph-name="Lcommaaccent" unicode="&#x13b;" horiz-adv-x="526" 
d="M73 0v708h172v-559h274v-149h-446zM280 -240h-126l67 195h145z" />
    <glyph glyph-name="lcommaaccent" unicode="&#x13c;" horiz-adv-x="298" 
d="M66 0v756h166v-756h-166zM137 -240h-126l67 195h145z" />
    <glyph glyph-name="Lcaron" unicode="&#x13d;" horiz-adv-x="526" 
d="M73 0v708h172v-559h274v-149h-446zM400 513h-126l67 195h145z" />
    <glyph glyph-name="lcaron" unicode="&#x13e;" horiz-adv-x="298" 
d="M66 0v756h166v-756h-166zM387 513h-126l67 195h145z" />
    <glyph glyph-name="Ldot" unicode="&#x13f;" horiz-adv-x="526" 
d="M73 0v708h172v-559h274v-149h-446zM508 347q0 -36 -26 -60.5t-64 -24.5t-63.5 25t-25.5 60t25.5 60.5t63.5 25.5t64 -25t26 -61z" />
    <glyph glyph-name="ldot" unicode="&#x140;" horiz-adv-x="448" 
d="M66 0v756h166v-756h-166zM460 337q0 -36 -26 -60.5t-64 -24.5t-63.5 25t-25.5 60t25.5 60.5t63.5 25.5t64 -25t26 -61z" />
    <glyph glyph-name="Lslash" unicode="&#x141;" horiz-adv-x="526" 
d="M73 0v177l-64 -56v142l64 56v389h172v-262l191 167v-141l-191 -167v-156h274v-149h-446z" />
    <glyph glyph-name="lslash" unicode="&#x142;" horiz-adv-x="298" 
d="M232 398v-398h-166v267l-58 -56v143l58 57v345h166v-217l58 57v-142z" />
    <glyph glyph-name="Nacute" unicode="&#x143;" horiz-adv-x="790" 
d="M523 0l-285 463h-3l4 -463h-166v708h195l284 -462h3l-4 462h166v-708h-194zM442 764h-124l104 144h166z" />
    <glyph glyph-name="nacute" unicode="&#x144;" horiz-adv-x="616" 
d="M391 0v272q0 21 -3.5 40t-11.5 33.5t-22.5 23t-36.5 8.5t-38.5 -8.5t-27.5 -23.5t-16.5 -34.5t-5.5 -40.5v-270h-165v498h159v-69h2q9 16 23.5 31.5t34 26.5t42.5 18t49 7q50 0 85 -18t56.5 -46.5t31 -65.5t9.5 -74v-308h-165zM338 572h-124l104 144h166z" />
    <glyph glyph-name="Ncommaaccent" unicode="&#x145;" horiz-adv-x="790" 
d="M523 0l-285 463h-3l4 -463h-166v708h195l284 -462h3l-4 462h166v-708h-194zM379 -240h-126l67 195h145z" />
    <glyph glyph-name="ncommaaccent" unicode="&#x146;" horiz-adv-x="616" 
d="M391 0v272q0 21 -3.5 40t-11.5 33.5t-22.5 23t-36.5 8.5t-38.5 -8.5t-27.5 -23.5t-16.5 -34.5t-5.5 -40.5v-270h-165v498h159v-69h2q9 16 23.5 31.5t34 26.5t42.5 18t49 7q50 0 85 -18t56.5 -46.5t31 -65.5t9.5 -74v-308h-165zM293 -240h-126l67 195h145z" />
    <glyph glyph-name="Ncaron" unicode="&#x147;" horiz-adv-x="790" 
d="M523 0l-285 463h-3l4 -463h-166v708h195l284 -462h3l-4 462h166v-708h-194zM472 764h-147l-124 144h130l68 -81l68 81h128z" />
    <glyph glyph-name="ncaron" unicode="&#x148;" horiz-adv-x="616" 
d="M391 0v272q0 21 -3.5 40t-11.5 33.5t-22.5 23t-36.5 8.5t-38.5 -8.5t-27.5 -23.5t-16.5 -34.5t-5.5 -40.5v-270h-165v498h159v-69h2q9 16 23.5 31.5t34 26.5t42.5 18t49 7q50 0 85 -18t56.5 -46.5t31 -65.5t9.5 -74v-308h-165zM384 572h-147l-124 144h130l68 -81l68 81
h128z" />
    <glyph glyph-name="Omacron" unicode="&#x14c;" horiz-adv-x="851" 
d="M811 357q0 -84 -29 -153.5t-80.5 -119t-122.5 -76.5t-154 -27t-153.5 27t-122 76.5t-80.5 119t-29 153.5q0 85 29 153.5t80.5 116.5t122 74t153.5 26t154 -26t122.5 -74t80.5 -116.5t29 -153.5zM628 357q0 46 -15 86t-41.5 68.5t-64 45t-82.5 16.5t-82 -16.5t-64 -45
t-41.5 -68.5t-14.5 -86q0 -48 15 -88.5t41.5 -69.5t63.5 -45.5t82 -16.5t82 16.5t64 45.5t42 69.5t15 88.5zM255 793v86h336v-86h-336z" />
    <glyph glyph-name="omacron" unicode="&#x14d;" horiz-adv-x="632" 
d="M592 251q0 -61 -22 -110.5t-60 -84t-88 -53.5t-107 -19q-56 0 -106.5 19t-88 53.5t-59.5 84t-22 110.5t22 110t59.5 83t88 52t106.5 18q57 0 107 -18t88 -52t60 -83t22 -110zM434 251q0 24 -8 47t-23 40.5t-37 28.5t-51 11t-51 -11t-36.5 -28.5t-22 -40.5t-7.5 -47
t7.5 -47t22.5 -41.5t37 -29.5t51 -11t51 11t37 29.5t22.5 41.5t7.5 47zM147 601v86h336v-86h-336z" />
    <glyph glyph-name="Obreve" unicode="&#x14e;" horiz-adv-x="851" 
d="M811 357q0 -84 -29 -153.5t-80.5 -119t-122.5 -76.5t-154 -27t-153.5 27t-122 76.5t-80.5 119t-29 153.5q0 85 29 153.5t80.5 116.5t122 74t153.5 26t154 -26t122.5 -74t80.5 -116.5t29 -153.5zM628 357q0 46 -15 86t-41.5 68.5t-64 45t-82.5 16.5t-82 -16.5t-64 -45
t-41.5 -68.5t-14.5 -86q0 -48 15 -88.5t41.5 -69.5t63.5 -45.5t82 -16.5t82 16.5t64 45.5t42 69.5t15 88.5zM598 908q-3 -39 -18 -66.5t-38 -44.5t-53.5 -25t-65.5 -8q-34 0 -64.5 7.5t-53.5 25t-37.5 45t-17.5 66.5h84q3 -16 11.5 -26.5t21 -17t27.5 -9t30 -2.5
q34 0 58.5 10t31.5 45h84z" />
    <glyph glyph-name="obreve" unicode="&#x14f;" horiz-adv-x="632" 
d="M592 251q0 -61 -22 -110.5t-60 -84t-88 -53.5t-107 -19q-56 0 -106.5 19t-88 53.5t-59.5 84t-22 110.5t22 110t59.5 83t88 52t106.5 18q57 0 107 -18t88 -52t60 -83t22 -110zM434 251q0 24 -8 47t-23 40.5t-37 28.5t-51 11t-51 -11t-36.5 -28.5t-22 -40.5t-7.5 -47
t7.5 -47t22.5 -41.5t37 -29.5t51 -11t51 11t37 29.5t22.5 41.5t7.5 47zM488 716q-3 -39 -18 -66.5t-38 -44.5t-53.5 -25t-65.5 -8q-34 0 -64.5 7.5t-53.5 25t-37.5 45t-17.5 66.5h84q6 -29 32 -44q13 -6 28 -8.5t30 -2.5q34 0 58.5 10t31.5 45h84z" />
    <glyph glyph-name="Ohungarumlaut" unicode="&#x150;" horiz-adv-x="851" 
d="M811 357q0 -84 -29 -153.5t-80.5 -119t-122.5 -76.5t-154 -27t-153.5 27t-122 76.5t-80.5 119t-29 153.5q0 85 29 153.5t80.5 116.5t122 74t153.5 26t154 -26t122.5 -74t80.5 -116.5t29 -153.5zM628 357q0 46 -15 86t-41.5 68.5t-64 45t-82.5 16.5t-82 -16.5t-64 -45
t-41.5 -68.5t-14.5 -86q0 -48 15 -88.5t41.5 -69.5t63.5 -45.5t82 -16.5t82 16.5t64 45.5t42 69.5t15 88.5zM589 764h-124l104 144h166zM369 764h-124l104 144h166z" />
    <glyph glyph-name="ohungarumlaut" unicode="&#x151;" horiz-adv-x="632" 
d="M592 251q0 -61 -22 -110.5t-60 -84t-88 -53.5t-107 -19q-56 0 -106.5 19t-88 53.5t-59.5 84t-22 110.5t22 110t59.5 83t88 52t106.5 18q57 0 107 -18t88 -52t60 -83t22 -110zM434 251q0 24 -8 47t-23 40.5t-37 28.5t-51 11t-51 -11t-36.5 -28.5t-22 -40.5t-7.5 -47
t7.5 -47t22.5 -41.5t37 -29.5t51 -11t51 11t37 29.5t22.5 41.5t7.5 47zM487 572h-124l104 144h166zM267 572h-124l104 144h166z" />
    <glyph glyph-name="OE" unicode="&#x152;" horiz-adv-x="1019" 
d="M442 0q-75 0 -147 19.5t-129 62t-91.5 110t-34.5 163.5q0 97 34.5 164.5t91.5 109.5t129 60.5t147 18.5h520v-145h-298v-133h281v-137h-281v-147h315v-146h-537zM501 563h-46q-45 0 -87 -10t-74.5 -34t-52 -64.5t-19.5 -102.5q0 -57 19.5 -96t52 -63.5t73.5 -35.5t84 -11
h50v417z" />
    <glyph glyph-name="oe" unicode="&#x153;" horiz-adv-x="973" 
d="M198 251q0 -24 7.5 -47.5t22 -41.5t36.5 -29t51 -11t51 11t37 29t22.5 41.5t7.5 47.5t-7.5 46.5t-22.5 40.5t-37 29t-51 11t-51 -11t-36.5 -29t-22 -40.5t-7.5 -46.5zM784 306q0 39 -24.5 67t-73.5 28q-24 0 -44 -7.5t-35 -20.5t-24 -30.5t-10 -36.5h211zM915 90
q-35 -51 -92 -78.5t-133 -27.5q-63 0 -113 23t-78 60q-29 -38 -76.5 -60.5t-109.5 -22.5q-57 0 -106.5 18.5t-87 53.5t-59 84t-21.5 111q0 61 21.5 109.5t59 82.5t87 52.5t106.5 18.5q61 0 110 -24.5t77 -62.5q31 37 78.5 62t108.5 25q54 0 99.5 -18.5t78.5 -53.5t51.5 -85
t18.5 -114v-20q0 -10 -1 -19h-361q3 -21 13.5 -38.5t26.5 -29.5t36.5 -19t42.5 -7q39 0 66 14.5t44 37.5z" />
    <glyph glyph-name="Racute" unicode="&#x154;" horiz-adv-x="663" 
d="M452 0l-153 281h-58v-281h-168v708h270q51 0 99.5 -10.5t87 -35.5t61.5 -66t23 -102q0 -72 -39 -121t-108 -70l185 -303h-200zM445 491q0 25 -10.5 40.5t-27 24t-37 11.5t-39.5 3h-91v-165h81q21 0 43 3.5t40 12.5t29.5 26t11.5 44zM350 764h-124l104 144h166z" />
    <glyph glyph-name="racute" unicode="&#x155;" horiz-adv-x="396" 
d="M387 364q-11 3 -21.5 4t-20.5 1q-33 0 -55.5 -12t-36 -29t-19.5 -37t-6 -35v-256h-164v498h158v-72h2q19 38 54 62t81 24q10 0 19.5 -1t15.5 -3zM231 572h-124l104 144h166z" />
    <glyph glyph-name="Rcommaaccent" unicode="&#x156;" horiz-adv-x="663" 
d="M452 0l-153 281h-58v-281h-168v708h270q51 0 99.5 -10.5t87 -35.5t61.5 -66t23 -102q0 -72 -39 -121t-108 -70l185 -303h-200zM445 491q0 25 -10.5 40.5t-27 24t-37 11.5t-39.5 3h-91v-165h81q21 0 43 3.5t40 12.5t29.5 26t11.5 44zM327 -240h-126l67 195h145z" />
    <glyph glyph-name="rcommaaccent" unicode="&#x157;" horiz-adv-x="396" 
d="M387 364q-11 3 -21.5 4t-20.5 1q-33 0 -55.5 -12t-36 -29t-19.5 -37t-6 -35v-256h-164v498h158v-72h2q19 38 54 62t81 24q10 0 19.5 -1t15.5 -3zM138 -241h-126l67 195h145z" />
    <glyph glyph-name="Rcaron" unicode="&#x158;" horiz-adv-x="663" 
d="M452 0l-153 281h-58v-281h-168v708h270q51 0 99.5 -10.5t87 -35.5t61.5 -66t23 -102q0 -72 -39 -121t-108 -70l185 -303h-200zM445 491q0 25 -10.5 40.5t-27 24t-37 11.5t-39.5 3h-91v-165h81q21 0 43 3.5t40 12.5t29.5 26t11.5 44zM394 764h-147l-124 144h130l68 -81
l68 81h128z" />
    <glyph glyph-name="rcaron" unicode="&#x159;" horiz-adv-x="396" 
d="M387 364q-11 3 -21.5 4t-20.5 1q-33 0 -55.5 -12t-36 -29t-19.5 -37t-6 -35v-256h-164v498h158v-72h2q19 38 54 62t81 24q10 0 19.5 -1t15.5 -3zM302 572h-147l-124 144h130l68 -81l68 81h128z" />
    <glyph glyph-name="Sacute" unicode="&#x15a;" horiz-adv-x="591" 
d="M447 524q-22 28 -57.5 44.5t-68.5 16.5q-17 0 -34.5 -3t-31.5 -11.5t-23.5 -22t-9.5 -34.5q0 -18 7.5 -30t22 -21t34.5 -16.5t45 -15.5q36 -12 75 -26.5t71 -38.5t53 -59.5t21 -88.5q0 -61 -22.5 -105.5t-60.5 -73.5t-87 -43t-101 -14q-76 0 -147 26.5t-118 75.5l112 114
q26 -32 68.5 -53.5t84.5 -21.5q19 0 37 4t31.5 13t21.5 24t8 36q0 20 -10 34t-28.5 25.5t-46 21t-62.5 20.5q-34 11 -66.5 26t-58 38.5t-41 57t-15.5 81.5q0 59 24 101t63 69t88 39.5t99 12.5q60 0 122.5 -22t109.5 -65zM341 764h-124l104 144h166z" />
    <glyph glyph-name="sacute" unicode="&#x15b;" horiz-adv-x="472" 
d="M357 351q-20 19 -47 32t-57 13q-23 0 -42.5 -9t-19.5 -31q0 -21 21.5 -30t69.5 -20q28 -6 56.5 -17t51.5 -29t37 -44t14 -62q0 -47 -19 -79.5t-49.5 -52.5t-68.5 -29t-76 -9q-61 0 -119.5 19.5t-97.5 57.5l92 97q22 -24 54 -40t68 -16q20 0 39.5 9.5t19.5 33.5
q0 23 -24 34t-75 23q-26 6 -52 16t-46.5 27t-33.5 42t-13 60q0 45 19 76.5t49 51.5t66.5 29.5t72.5 9.5q56 0 109.5 -17.5t90.5 -52.5zM278 572h-124l104 144h166z" />
    <glyph glyph-name="Scircumflex" unicode="&#x15c;" horiz-adv-x="591" 
d="M447 524q-22 28 -57.5 44.5t-68.5 16.5q-17 0 -34.5 -3t-31.5 -11.5t-23.5 -22t-9.5 -34.5q0 -18 7.5 -30t22 -21t34.5 -16.5t45 -15.5q36 -12 75 -26.5t71 -38.5t53 -59.5t21 -88.5q0 -61 -22.5 -105.5t-60.5 -73.5t-87 -43t-101 -14q-76 0 -147 26.5t-118 75.5l112 114
q26 -32 68.5 -53.5t84.5 -21.5q19 0 37 4t31.5 13t21.5 24t8 36q0 20 -10 34t-28.5 25.5t-46 21t-62.5 20.5q-34 11 -66.5 26t-58 38.5t-41 57t-15.5 81.5q0 59 24 101t63 69t88 39.5t99 12.5q60 0 122.5 -22t109.5 -65zM388 764l-68 81l-68 -81h-128l124 144h148l122 -144
h-130z" />
    <glyph glyph-name="scircumflex" unicode="&#x15d;" horiz-adv-x="472" 
d="M357 351q-20 19 -47 32t-57 13q-23 0 -42.5 -9t-19.5 -31q0 -21 21.5 -30t69.5 -20q28 -6 56.5 -17t51.5 -29t37 -44t14 -62q0 -47 -19 -79.5t-49.5 -52.5t-68.5 -29t-76 -9q-61 0 -119.5 19.5t-97.5 57.5l92 97q22 -24 54 -40t68 -16q20 0 39.5 9.5t19.5 33.5
q0 23 -24 34t-75 23q-26 6 -52 16t-46.5 27t-33.5 42t-13 60q0 45 19 76.5t49 51.5t66.5 29.5t72.5 9.5q56 0 109.5 -17.5t90.5 -52.5zM315 572l-68 81l-68 -81h-128l124 144h148l122 -144h-130z" />
    <glyph glyph-name="Scedilla" unicode="&#x15e;" horiz-adv-x="591" 
d="M417 -142q0 -29 -14 -48t-36 -30t-47.5 -15.5t-49.5 -4.5q-31 0 -63.5 7t-55.5 18l27 60q19 -9 41.5 -14t42.5 -5q16 0 33 6.5t17 26.5q0 18 -16 23.5t-31 5.5q-9 0 -20 -1.5t-20 -4.5l-31 29l54 72q-68 5 -129.5 30.5t-103.5 70.5l112 114q26 -32 68.5 -53.5t84.5 -21.5
q19 0 37 4t31.5 13t21.5 24t8 36q0 20 -10 34t-28.5 25.5t-46 21t-62.5 20.5q-34 11 -66.5 26t-58 38.5t-41 57t-15.5 81.5q0 59 24 101t63 69t88 39.5t99 12.5q60 0 122.5 -22t109.5 -65l-109 -115q-22 28 -57.5 44.5t-68.5 16.5q-17 0 -34.5 -3t-31.5 -11.5t-23.5 -22
t-9.5 -34.5q0 -18 7.5 -30t22 -21t34.5 -16.5t45 -15.5q36 -12 75 -26.5t71 -38.5t53 -59.5t21 -88.5q0 -54 -17.5 -94.5t-47.5 -69.5t-70 -45.5t-85 -22.5l-35 -46q5 1 9 1h9q18 0 36.5 -3.5t33 -12.5t24 -25.5t9.5 -41.5z" />
    <glyph glyph-name="scedilla" unicode="&#x15f;" horiz-adv-x="472" 
d="M363 -142q0 -29 -14 -48t-36 -30t-47.5 -15.5t-49.5 -4.5q-31 0 -63.5 7t-55.5 18l27 60q19 -9 41.5 -14t42.5 -5q16 0 33 6.5t17 26.5q0 18 -16 23.5t-31 5.5q-9 0 -20 -1.5t-20 -4.5l-31 29l56 75q-54 5 -102.5 23.5t-82.5 51.5l92 97q22 -24 54 -40t68 -16
q20 0 39.5 9.5t19.5 33.5q0 23 -24 34t-75 23q-26 6 -52 16t-46.5 27t-33.5 42t-13 60q0 45 19 76.5t49 52t66.5 30t72.5 9.5q56 0 109.5 -18t90.5 -53l-90 -93q-20 19 -47 32t-57 13q-23 0 -42.5 -9t-19.5 -31q0 -21 21.5 -30t69.5 -20q28 -6 56.5 -17t51.5 -29t37 -44
t14 -62q0 -39 -13.5 -68.5t-36 -49.5t-51.5 -32t-61 -16l-37 -48q5 1 9 1h9q18 0 36.5 -3.5t33 -12.5t24 -25.5t9.5 -41.5z" />
    <glyph glyph-name="Scaron" unicode="&#x160;" horiz-adv-x="591" 
d="M447 524q-22 28 -57.5 44.5t-68.5 16.5q-17 0 -34.5 -3t-31.5 -11.5t-23.5 -22t-9.5 -34.5q0 -18 7.5 -30t22 -21t34.5 -16.5t45 -15.5q36 -12 75 -26.5t71 -38.5t53 -59.5t21 -88.5q0 -61 -22.5 -105.5t-60.5 -73.5t-87 -43t-101 -14q-76 0 -147 26.5t-118 75.5l112 114
q26 -32 68.5 -53.5t84.5 -21.5q19 0 37 4t31.5 13t21.5 24t8 36q0 20 -10 34t-28.5 25.5t-46 21t-62.5 20.5q-34 11 -66.5 26t-58 38.5t-41 57t-15.5 81.5q0 59 24 101t63 69t88 39.5t99 12.5q60 0 122.5 -22t109.5 -65zM397 764h-147l-124 144h130l68 -81l68 81h128z" />
    <glyph glyph-name="scaron" unicode="&#x161;" horiz-adv-x="472" 
d="M357 351q-20 19 -47 32t-57 13q-23 0 -42.5 -9t-19.5 -31q0 -21 21.5 -30t69.5 -20q28 -6 56.5 -17t51.5 -29t37 -44t14 -62q0 -47 -19 -79.5t-49.5 -52.5t-68.5 -29t-76 -9q-61 0 -119.5 19.5t-97.5 57.5l92 97q22 -24 54 -40t68 -16q20 0 39.5 9.5t19.5 33.5
q0 23 -24 34t-75 23q-26 6 -52 16t-46.5 27t-33.5 42t-13 60q0 45 19 76.5t49 51.5t66.5 29.5t72.5 9.5q56 0 109.5 -17.5t90.5 -52.5zM321 572h-147l-124 144h130l68 -81l68 81h128z" />
    <glyph glyph-name="Tcommaaccent" unicode="&#x162;" horiz-adv-x="581" 
d="M413 -142q0 -29 -14 -48t-36 -30t-47.5 -15.5t-49.5 -4.5q-31 0 -63.5 7t-55.5 18l27 60q19 -9 41.5 -14t42.5 -5q16 0 33 6.5t17 26.5q0 18 -16 23.5t-31 5.5q-9 0 -20 -1.5t-20 -4.5l-31 29l67 89h-52v562h-200v146h571v-146h-200v-562h-37l-47 -60q5 1 9 1h9
q18 0 36.5 -3.5t33 -12.5t24 -25.5t9.5 -41.5z" />
    <glyph glyph-name="tcommaaccent" unicode="&#x163;" horiz-adv-x="372" 
d="M376 -142q0 -29 -14 -48t-36 -30t-47.5 -15.5t-49.5 -4.5q-31 0 -63.5 7t-55.5 18l27 60q19 -9 41.5 -14t42.5 -5q16 0 33 6.5t17 26.5q0 18 -16 23.5t-31 5.5q-9 0 -20 -1.5t-20 -4.5l-31 29l60 80q-36 6 -61 20.5t-40.5 37t-22.5 52t-7 64.5v210h-80v123h79v131h161
v-131h117v-123h-117v-190q0 -35 13.5 -52.5t48.5 -17.5q12 0 25.5 2t22.5 6l2 -120q-11 -4 -27 -7.5t-33 -5.5l-39 -50q5 1 9 1h9q18 0 36.5 -3.5t33 -12.5t24 -25.5t9.5 -41.5z" />
    <glyph glyph-name="Tcaron" unicode="&#x164;" horiz-adv-x="581" 
d="M376 562v-562h-171v562h-200v146h571v-146h-200zM365 764h-147l-124 144h130l68 -81l68 81h128z" />
    <glyph glyph-name="tcaron" unicode="&#x165;" horiz-adv-x="372" 
d="M242 375v-190q0 -35 13.5 -52.5t48.5 -17.5q12 0 25.5 2t22.5 6l2 -120q-17 -6 -43 -10.5t-52 -4.5q-50 0 -84 12.5t-54.5 36t-29.5 56t-9 72.5v210h-80v123h79v131h161v-131h117v-123h-117zM396 536h-126l67 195h145z" />
    <glyph glyph-name="Tbar" unicode="&#x166;" horiz-adv-x="581" 
d="M376 562v-85h136v-89h-136v-388h-171v388h-131v89h131v85h-200v146h571v-146h-200z" />
    <glyph glyph-name="tbar" unicode="&#x167;" horiz-adv-x="372" 
d="M242 215v-30q0 -35 13.5 -52.5t48.5 -17.5q12 0 25.5 2t22.5 6l2 -120q-17 -6 -43 -10.5t-52 -4.5q-50 0 -84 12.5t-54.5 36t-29.5 56t-9 72.5v50h-71v89h71v71h-80v123h79v131h161v-131h117v-123h-117v-71h97v-89h-97z" />
    <glyph glyph-name="Utilde" unicode="&#x168;" horiz-adv-x="738" 
d="M673 267q0 -64 -21.5 -116.5t-61.5 -90t-96.5 -58.5t-125.5 -21q-70 0 -126 21t-95 58.5t-60 90t-21 116.5v441h170v-427q0 -29 7.5 -55t23 -46.5t41 -32.5t61.5 -12t61.5 12t41.5 32.5t23 46.5t7 55v427h171v-441zM559 900q-3 -26 -11 -50t-21.5 -42t-33.5 -29t-47 -11
q-21 0 -41 6t-40 15q-20 11 -34.5 15.5t-28.5 4.5q-18 0 -27.5 -12t-14.5 -28h-72q3 26 11 49.5t21.5 41.5t33.5 28.5t47 10.5q21 0 40.5 -5.5t39.5 -14.5q21 -10 36 -15t29 -5q19 0 28 11.5t14 29.5h71z" />
    <glyph glyph-name="utilde" unicode="&#x169;" horiz-adv-x="614" 
d="M392 0v69h-2q-9 -17 -23.5 -32t-34 -26t-43 -18t-49.5 -7q-50 0 -84.5 18t-56 46.5t-31 65t-9.5 74.5v308h165v-270q0 -21 3 -40t11.5 -34t22.5 -23.5t37 -8.5q43 0 65.5 32t22.5 75v269h164v-498h-158zM491 708q-3 -26 -11 -50t-21.5 -42t-33.5 -29t-47 -11q-21 0 -41 6
t-40 15q-20 11 -34.5 15.5t-28.5 4.5q-18 0 -27.5 -12t-14.5 -28h-72q3 26 11 49.5t21.5 41.5t33.5 28.5t47 10.5q21 0 40.5 -5.5t39.5 -14.5q21 -10 36 -15t29 -5q19 0 28 11.5t14 29.5h71z" />
    <glyph glyph-name="Umacron" unicode="&#x16a;" horiz-adv-x="738" 
d="M673 267q0 -64 -21.5 -116.5t-61.5 -90t-96.5 -58.5t-125.5 -21q-70 0 -126 21t-95 58.5t-60 90t-21 116.5v441h170v-427q0 -29 7.5 -55t23 -46.5t41 -32.5t61.5 -12t61.5 12t41.5 32.5t23 46.5t7 55v427h171v-441zM206 793v86h336v-86h-336z" />
    <glyph glyph-name="umacron" unicode="&#x16b;" horiz-adv-x="614" 
d="M392 0v69h-2q-9 -17 -23.5 -32t-34 -26t-43 -18t-49.5 -7q-50 0 -84.5 18t-56 46.5t-31 65t-9.5 74.5v308h165v-270q0 -21 3 -40t11.5 -34t22.5 -23.5t37 -8.5q43 0 65.5 32t22.5 75v269h164v-498h-158zM136 601v86h336v-86h-336z" />
    <glyph glyph-name="Ubreve" unicode="&#x16c;" horiz-adv-x="738" 
d="M673 267q0 -64 -21.5 -116.5t-61.5 -90t-96.5 -58.5t-125.5 -21q-70 0 -126 21t-95 58.5t-60 90t-21 116.5v441h170v-427q0 -29 7.5 -55t23 -46.5t41 -32.5t61.5 -12t61.5 12t41.5 32.5t23 46.5t7 55v427h171v-441zM544 908q-3 -39 -18 -66.5t-38 -44.5t-53.5 -25
t-65.5 -8q-34 0 -64.5 7.5t-53.5 25t-37.5 45t-17.5 66.5h84q3 -16 11.5 -26.5t21 -17t27.5 -9t30 -2.5q34 0 58.5 10t31.5 45h84z" />
    <glyph glyph-name="ubreve" unicode="&#x16d;" horiz-adv-x="614" 
d="M392 0v69h-2q-9 -17 -23.5 -32t-34 -26t-43 -18t-49.5 -7q-50 0 -84.5 18t-56 46.5t-31 65t-9.5 74.5v308h165v-270q0 -21 3 -40t11.5 -34t22.5 -23.5t37 -8.5q43 0 65.5 32t22.5 75v269h164v-498h-158zM479 716q-3 -39 -18 -66.5t-38 -44.5t-53.5 -25t-65.5 -8
q-34 0 -64.5 7.5t-53.5 25t-37.5 45t-17.5 66.5h84q6 -29 32 -44q13 -6 28 -8.5t30 -2.5q34 0 58.5 10t31.5 45h84z" />
    <glyph glyph-name="Uring" unicode="&#x16e;" horiz-adv-x="738" 
d="M673 267q0 -64 -21.5 -116.5t-61.5 -90t-96.5 -58.5t-125.5 -21q-70 0 -126 21t-95 58.5t-60 90t-21 116.5v441h170v-427q0 -29 7.5 -55t23 -46.5t41 -32.5t61.5 -12t61.5 12t41.5 32.5t23 46.5t7 55v427h171v-441zM483 856q0 -23 -8.5 -43t-23.5 -34t-35 -22t-42 -8
q-23 0 -42.5 8t-34.5 22t-23.5 33.5t-8.5 42.5q0 47 31.5 77.5t77.5 30.5q22 0 42 -8t35 -22.5t23.5 -34t8.5 -42.5zM433 856q0 25 -17 41.5t-42 16.5q-26 0 -42.5 -17t-16.5 -42q0 -24 17 -40.5t42 -16.5t42 16.5t17 41.5z" />
    <glyph glyph-name="uring" unicode="&#x16f;" horiz-adv-x="614" 
d="M392 0v69h-2q-9 -17 -23.5 -32t-34 -26t-43 -18t-49.5 -7q-50 0 -84.5 18t-56 46.5t-31 65t-9.5 74.5v308h165v-270q0 -21 3 -40t11.5 -34t22.5 -23.5t37 -8.5q43 0 65.5 32t22.5 75v269h164v-498h-158zM414 664q0 -23 -8.5 -43t-23.5 -34t-35 -22t-42 -8q-23 0 -42.5 8
t-34.5 22t-23.5 33.5t-8.5 42.5q0 47 31.5 77.5t77.5 30.5q22 0 42 -8t35 -22.5t23.5 -34t8.5 -42.5zM364 664q0 25 -17 41.5t-42 16.5q-26 0 -42.5 -17t-16.5 -42q0 -24 17 -40.5t42 -16.5t42 16.5t17 41.5z" />
    <glyph glyph-name="Uhungarumlaut" unicode="&#x170;" horiz-adv-x="738" 
d="M673 267q0 -64 -21.5 -116.5t-61.5 -90t-96.5 -58.5t-125.5 -21q-70 0 -126 21t-95 58.5t-60 90t-21 116.5v441h170v-427q0 -29 7.5 -55t23 -46.5t41 -32.5t61.5 -12t61.5 12t41.5 32.5t23 46.5t7 55v427h171v-441zM540 764h-124l104 144h166zM320 764h-124l104 144h166z
" />
    <glyph glyph-name="uhungarumlaut" unicode="&#x171;" horiz-adv-x="614" 
d="M392 0v69h-2q-9 -17 -23.5 -32t-34 -26t-43 -18t-49.5 -7q-50 0 -84.5 18t-56 46.5t-31 65t-9.5 74.5v308h165v-270q0 -21 3 -40t11.5 -34t22.5 -23.5t37 -8.5q43 0 65.5 32t22.5 75v269h164v-498h-158zM476 572h-124l104 144h166zM256 572h-124l104 144h166z" />
    <glyph glyph-name="Uogonek" unicode="&#x172;" horiz-adv-x="738" 
d="M483 -196q-23 -17 -53 -28.5t-62 -11.5q-20 0 -40.5 5t-36.5 16t-26 28.5t-10 41.5q0 36 24.5 69t55.5 59q-63 5 -112.5 27.5t-84.5 59.5t-53.5 87t-18.5 110v441h170v-427q0 -29 7.5 -55t23 -46.5t41 -32.5t61.5 -12t61.5 12t41.5 32.5t23 46.5t7 55v427h171v-441
q0 -56 -17 -103.5t-48 -84t-76 -60.5t-100 -33q-31 -27 -52 -54t-21 -50q0 -16 10.5 -26t26.5 -10q14 0 28 5.5t27 14.5z" />
    <glyph glyph-name="uogonek" unicode="&#x173;" horiz-adv-x="614" 
d="M518 -196q-23 -17 -53 -28.5t-62 -11.5q-20 0 -40.5 5t-36.5 16t-26 28.5t-10 41.5q0 21 9.5 41.5t24 39.5t32.5 35t36 29v69h-2q-9 -17 -23.5 -32t-34 -26t-43 -18t-49.5 -7q-50 0 -84.5 18t-56 46.5t-31 65t-9.5 74.5v308h165v-270q0 -21 3 -40t11.5 -34t22.5 -23.5
t37 -8.5q43 0 65.5 32t22.5 75v269h164v-498h-66q-38 -30 -64 -61t-26 -57q0 -16 10.5 -26t26.5 -10q14 0 28 5.5t27 14.5z" />
    <glyph glyph-name="Wcircumflex" unicode="&#x174;" horiz-adv-x="1025" 
d="M823 0h-169l-140 479h-3l-140 -479h-170l-201 708h184l112 -471h3l126 471h178l127 -471h3l114 471h178zM582 764l-68 81l-68 -81h-128l124 144h148l122 -144h-130z" />
    <glyph glyph-name="wcircumflex" unicode="&#x175;" horiz-adv-x="871" 
d="M698 0h-165l-98 310h-2l-96 -310h-165l-172 498h177l86 -315h3l89 315h165l92 -315h2l87 315h170zM505 572l-68 81l-68 -81h-128l124 144h148l122 -144h-130z" />
    <glyph glyph-name="Ycircumflex" unicode="&#x176;" horiz-adv-x="669" 
d="M417 300v-300h-171v300l-266 408h207l151 -262l151 262h200zM405 764l-68 81l-68 -81h-128l124 144h148l122 -144h-130z" />
    <glyph glyph-name="ycircumflex" unicode="&#x177;" horiz-adv-x="567" 
d="M345 -75q-15 -39 -33.5 -69.5t-44 -52t-60 -32.5t-81.5 -11q-23 0 -47.5 3t-42.5 8l18 138q12 -4 26.5 -6.5t26.5 -2.5q38 0 55 17.5t29 49.5l16 41l-208 490h182l111 -320h3l99 320h174zM359 572l-68 81l-68 -81h-128l124 144h148l122 -144h-130z" />
    <glyph glyph-name="Ydieresis" unicode="&#x178;" horiz-adv-x="669" 
d="M417 300v-300h-171v300l-266 408h207l151 -262l151 262h200zM530 850q0 -35 -24.5 -58.5t-58.5 -23.5q-35 0 -59 24t-24 58q0 16 6.5 30.5t17.5 26t26 18t33 6.5q34 0 58.5 -23.5t24.5 -57.5zM313 850q0 -35 -24.5 -58.5t-59.5 -23.5t-59 24t-24 58q0 16 6.5 30.5
t17.5 26t26.5 18t32.5 6.5q35 0 59.5 -23.5t24.5 -57.5z" />
    <glyph glyph-name="Zacute" unicode="&#x179;" horiz-adv-x="635" 
d="M39 0v148l337 415h-329v145h543v-137l-345 -423h352v-148h-558zM371 764h-124l104 144h166z" />
    <glyph glyph-name="zacute" unicode="&#x17a;" horiz-adv-x="512" 
d="M34 0v128l234 244h-225v126h425v-123l-241 -248h251v-127h-444zM297 572h-124l104 144h166z" />
    <glyph glyph-name="Zdotaccent" unicode="&#x17b;" horiz-adv-x="635" 
d="M39 0v148l337 415h-329v145h543v-137l-345 -423h352v-148h-558zM418 849q0 -36 -26 -60.5t-64 -24.5t-63.5 25t-25.5 60t25.5 60.5t63.5 25.5t64 -25t26 -61z" />
    <glyph glyph-name="zdotaccent" unicode="&#x17c;" horiz-adv-x="512" 
d="M34 0v128l234 244h-225v126h425v-123l-241 -248h251v-127h-444zM349 657q0 -36 -26 -60.5t-64 -24.5t-63.5 25t-25.5 60t25.5 60.5t63.5 25.5t64 -25t26 -61z" />
    <glyph glyph-name="Zcaron" unicode="&#x17d;" horiz-adv-x="635" 
d="M39 0v148l337 415h-329v145h543v-137l-345 -423h352v-148h-558zM393 764h-147l-124 144h130l68 -81l68 81h128z" />
    <glyph glyph-name="zcaron" unicode="&#x17e;" horiz-adv-x="512" 
d="M34 0v128l234 244h-225v126h425v-123l-241 -248h251v-127h-444zM336 572h-147l-124 144h130l68 -81l68 81h128z" />
    <glyph glyph-name="florin" unicode="&#x192;" horiz-adv-x="646" 
d="M528 323h-148l-55 -274q-18 -91 -66.5 -139.5t-138.5 -48.5q-32 0 -64 7t-58 21l58 120q12 -8 25.5 -12t24.5 -4q33 0 47.5 24.5t22.5 64.5l49 241h-114v113h134l16 78q8 39 21 77t36.5 67t59.5 47t91 18q42 0 76 -9t61 -25l-60 -121q-30 18 -57 18q-35 0 -50.5 -24.5
t-22.5 -60.5l-14 -65h126v-113z" />
    <glyph glyph-name="Ohorn" unicode="&#x1a0;" horiz-adv-x="855" 
d="M844 845q19 -37 19 -91q0 -73 -35.5 -111t-101.5 -43q40 -47 62.5 -108t22.5 -135q0 -84 -29 -153.5t-80.5 -119t-122.5 -76.5t-154 -27t-153.5 27t-122 76.5t-80.5 119t-29 153.5q0 85 29 153.5t80.5 116.5t122 74t153.5 26q52 0 87.5 -7.5t61.5 -17.5l47 -16
q20 -8 42 -8q41 0 58 18.5t17 55.5t-18 63zM223 357q0 -48 15 -88.5t41.5 -69.5t63.5 -45.5t82 -16.5t82 16.5t64 45.5t42 69.5t15 88.5q0 46 -15 86t-41.5 68.5t-64 45t-82.5 16.5t-82 -16.5t-64 -45t-41.5 -68.5t-14.5 -86z" />
    <glyph glyph-name="ohorn" unicode="&#x1a1;" horiz-adv-x="642" 
d="M673 562q0 -72 -34 -109.5t-97 -43.5q23 -32 36.5 -71.5t13.5 -86.5q0 -61 -22 -110.5t-60 -84t-88 -53.5t-107 -19q-56 0 -106.5 19t-88 53.5t-59.5 84t-22 110.5t22 110t59.5 83t88 52.5t106.5 18.5q32 0 55.5 -4.5t41.5 -10.5l32 -10q15 -5 30 -5q40 0 56.5 19
t16.5 56q0 17 -4.5 34t-12.5 29l124 30q9 -19 14 -41.5t5 -49.5zM315 378q-29 0 -51 -11t-36.5 -28.5t-22 -40.5t-7.5 -47t7.5 -47t22.5 -41.5t37 -29.5t51 -11t51 11t37 29.5t22.5 41.5t7.5 47t-8 47t-23 40.5t-37 28.5t-51 11z" />
    <glyph glyph-name="Uhorn" unicode="&#x1af;" horiz-adv-x="748" 
d="M673 267q0 -64 -21.5 -116.5t-61.5 -90t-96.5 -58.5t-125.5 -21q-70 0 -126 21t-95 58.5t-60 90t-21 116.5v441h170v-427q0 -29 7.5 -55t23 -46.5t41 -32.5t61.5 -12t61.5 12t41.5 32.5t23 46.5t7 55v427h106q45 0 63 19.5t18 56.5q0 17 -5 34t-13 29l124 29
q19 -37 19 -91q0 -78 -38.5 -114t-102.5 -40v-364z" />
    <glyph glyph-name="uhorn" unicode="&#x1b0;" horiz-adv-x="634" 
d="M550 0h-158v69h-2q-9 -17 -23.5 -32t-34 -26t-43 -18t-49.5 -7q-50 0 -84.5 18t-56 46.5t-31 65t-9.5 74.5v308h165v-270q0 -21 3 -40t11.5 -34t22.5 -23.5t37 -8.5q43 0 65.5 32t22.5 75v269h99q42 0 59.5 19.5t17.5 56.5q0 17 -5 34t-13 29l125 30q18 -38 18 -91
q0 -78 -37.5 -114t-99.5 -40v-422z" />
    <glyph glyph-name="clickdental" unicode="&#x1c0;" horiz-adv-x="241" 
d="M56 -250l-1 1000h131v-1000h-130z" />
    <glyph glyph-name="clicklateral" unicode="&#x1c1;" horiz-adv-x="482" 
d="M56 -250l-1 1000h131v-1000h-130zM297 -250l-1 1000h131v-1000h-130z" />
    <glyph glyph-name="clickretroflex" unicode="&#x1c3;" horiz-adv-x="357" 
d="M94 237v471h168v-471h-168zM276 85q0 -20 -7.5 -37.5t-21 -30t-31.5 -20t-38 -7.5t-37.5 7t-30.5 20t-21 30t-8 37q0 19 7.5 36.5t20.5 30.5t31 20.5t38 7.5t38 -7.5t31.5 -20t21 -30t7.5 -36.5z" />
    <glyph glyph-name="DZcaron" unicode="&#x1c4;" horiz-adv-x="1709" 
d="M734 356q0 -93 -34.5 -160.5t-91 -111t-127.5 -64t-144 -20.5h-264v708h256q75 0 148 -17.5t130 -58t92 -108.5t35 -168zM556 356q0 60 -19.5 99.5t-52 63t-74 33.5t-85.5 10h-85v-414h81q46 0 88.5 10.5t75 34.5t52 64t19.5 99zM813 0v148l337 415h-329v145h543v-137
l-345 -423h352v-148h-558zM1176 783h-147l-124 144h130l68 -81l68 81h128z" />
    <glyph glyph-name="Dzcaron" unicode="&#x1c5;" horiz-adv-x="1586" 
d="M734 356q0 -93 -34.5 -160.5t-91 -111t-127.5 -64t-144 -20.5h-264v708h256q75 0 148 -17.5t130 -58t92 -108.5t35 -168zM556 356q0 60 -19.5 99.5t-52 63t-74 33.5t-85.5 10h-85v-414h81q46 0 88.5 10.5t75 34.5t52 64t19.5 99zM808 0v128l234 244h-225v126h425v-123
l-241 -248h251v-127h-444zM1114 573h-147l-124 144h130l68 -81l68 81h128z" />
    <glyph glyph-name="dzcaron" unicode="&#x1c6;" horiz-adv-x="1470" 
d="M441 0v65h-2q-24 -38 -68.5 -58.5t-94.5 -20.5q-56 0 -100 22t-74.5 58.5t-46.5 84.5t-16 100t16.5 99.5t47 83.5t74 57t97.5 21q55 0 93 -21t59 -46h2v311h164v-756h-151zM435 250q0 24 -8.5 47t-24 41t-37.5 29t-50 11q-29 0 -51 -11t-37 -28.5t-22.5 -40.5t-7.5 -47
t7.5 -47.5t22.5 -41.5t37 -29t51 -11q28 0 50 11t37.5 29t24 41t8.5 47zM692 0v128l234 244h-225v126h425v-123l-241 -248h251v-127h-444zM998 573h-147l-124 144h130l68 -81l68 81h128z" />
    <glyph glyph-name="LJ" unicode="&#x1c7;" horiz-adv-x="1055" 
d="M73 0v708h172v-559h274v-149h-446zM986 242q0 -42 -9.5 -88t-35 -84.5t-71 -63.5t-117.5 -25q-90 0 -150 46.5t-80 119.5l151 51q7 -28 25.5 -45t45.5 -17q42 0 55.5 29t13.5 76v467h172v-466z" />
    <glyph glyph-name="Lj" unicode="&#x1c8;" horiz-adv-x="825" 
d="M73 0v708h172v-559h274v-149h-446zM771 657q0 -19 -7.5 -35.5t-20 -28.5t-30 -19t-36.5 -7q-40 0 -67 26.5t-27 63.5q0 18 7 34.5t20 28.5t30 19.5t37 7.5q19 0 36.5 -7t30 -19t20 -28.5t7.5 -35.5zM759 -13q0 -46 -8.5 -87.5t-30.5 -72.5t-61 -49t-99 -18q-17 0 -37 2
t-34 6l11 137q9 -3 18.5 -4t16.5 -1q36 0 48 24.5t12 62.5v511h164v-511z" />
    <glyph glyph-name="lj" unicode="&#x1c9;" horiz-adv-x="597" 
d="M66 0v756h166v-756h-166zM543 657q0 -19 -7.5 -35.5t-20 -28.5t-30 -19t-36.5 -7q-40 0 -67 26.5t-27 63.5q0 18 7 34.5t20 28.5t30 19.5t37 7.5q19 0 36.5 -7t30 -19t20 -28.5t7.5 -35.5zM531 -13q0 -46 -8.5 -87.5t-30.5 -72.5t-61 -49t-99 -18q-17 0 -37 2t-34 6
l11 137q9 -3 18.5 -4t16.5 -1q36 0 48 24.5t12 62.5v511h164v-511z" />
    <glyph glyph-name="NJ" unicode="&#x1ca;" horiz-adv-x="1319" 
d="M523 0l-285 463h-3l4 -463h-166v708h195l284 -462h3l-4 462h166v-708h-194zM1250 242q0 -42 -9.5 -88t-35 -84.5t-71 -63.5t-117.5 -25q-90 0 -150 46.5t-80 119.5l151 51q7 -28 25.5 -45t45.5 -17q42 0 55.5 29t13.5 76v467h172v-466z" />
    <glyph glyph-name="Nj" unicode="&#x1cb;" horiz-adv-x="1089" 
d="M523 0l-285 463h-3l4 -463h-166v708h195l284 -462h3l-4 462h166v-708h-194zM1035 657q0 -19 -7.5 -35.5t-20 -28.5t-30 -19t-36.5 -7q-40 0 -67 26.5t-27 63.5q0 18 7 34.5t20 28.5t30 19.5t37 7.5q19 0 36.5 -7t30 -19t20 -28.5t7.5 -35.5zM1023 -13q0 -46 -8.5 -87.5
t-30.5 -72.5t-61 -49t-99 -18q-17 0 -37 2t-34 6l11 137q9 -3 18.5 -4t16.5 -1q36 0 48 24.5t12 62.5v511h164v-511z" />
    <glyph glyph-name="nj" unicode="&#x1cc;" horiz-adv-x="915" 
d="M391 0v272q0 21 -3.5 40t-11.5 33.5t-22.5 23t-36.5 8.5t-38.5 -8.5t-27.5 -23.5t-16.5 -34.5t-5.5 -40.5v-270h-165v498h159v-69h2q9 16 23.5 31.5t34 26.5t42.5 18t49 7q50 0 85 -18t56.5 -46.5t31 -65.5t9.5 -74v-308h-165zM861 657q0 -19 -7.5 -35.5t-20 -28.5
t-30 -19t-36.5 -7q-40 0 -67 26.5t-27 63.5q0 18 7 34.5t20 28.5t30 19.5t37 7.5q19 0 36.5 -7t30 -19t20 -28.5t7.5 -35.5zM849 -13q0 -46 -8.5 -87.5t-30.5 -72.5t-61 -49t-99 -18q-17 0 -37 2t-34 6l11 137q9 -3 18.5 -4t16.5 -1q36 0 48 24.5t12 62.5v511h164v-511z" />
    <glyph glyph-name="Acaron" unicode="&#x1cd;" horiz-adv-x="729" 
d="M553 0l-55 139h-274l-52 -139h-186l297 708h166l294 -708h-190zM363 519l-90 -243h178zM438 783h-147l-124 144h130l68 -81l68 81h128z" />
    <glyph glyph-name="acaron" unicode="&#x1ce;" 
d="M358 217h-21q-27 0 -54.5 -2.5t-49 -9.5t-35.5 -20.5t-14 -35.5q0 -14 6.5 -24t16.5 -16t23 -8.5t25 -2.5q50 0 76.5 27.5t26.5 74.5v17zM57 430q44 42 102.5 63t119.5 21q63 0 106.5 -15.5t70.5 -48t39.5 -82t12.5 -117.5v-251h-150v53h-3q-19 -31 -57.5 -48t-83.5 -17
q-30 0 -62 8t-58.5 26t-43.5 48t-17 74q0 54 29.5 87t76 51t103.5 24t111 6v8q0 37 -26 54.5t-64 17.5q-35 0 -67.5 -15t-55.5 -36zM344 589h-147l-124 144h130l68 -81l68 81h128z" />
    <glyph glyph-name="Icaron" unicode="&#x1cf;" horiz-adv-x="318" 
d="M73 0v708h172v-708h-172zM233 783h-147l-124 144h130l68 -81l68 81h128z" />
    <glyph glyph-name="icaron" unicode="&#x1d0;" horiz-adv-x="296" 
d="M66 0v498h164v-498h-164zM222 573h-147l-124 144h130l68 -81l68 81h128z" />
    <glyph glyph-name="Ocaron" unicode="&#x1d1;" horiz-adv-x="851" 
d="M811 357q0 -84 -29 -153.5t-80.5 -119t-122.5 -76.5t-154 -27t-153.5 27t-122 76.5t-80.5 119t-29 153.5q0 85 29 153.5t80.5 116.5t122 74t153.5 26t154 -26t122.5 -74t80.5 -116.5t29 -153.5zM628 357q0 46 -15 86t-41.5 68.5t-64 45t-82.5 16.5t-82 -16.5t-64 -45
t-41.5 -68.5t-14.5 -86q0 -48 15 -88.5t41.5 -69.5t63.5 -45.5t82 -16.5t82 16.5t64 45.5t42 69.5t15 88.5zM499 802h-147l-124 144h130l68 -81l68 81h128z" />
    <glyph glyph-name="ocaron" unicode="&#x1d2;" horiz-adv-x="632" 
d="M592 251q0 -61 -22 -110.5t-60 -84t-88 -53.5t-107 -19q-56 0 -106.5 19t-88 53.5t-59.5 84t-22 110.5t22 110t59.5 83t88 52t106.5 18q57 0 107 -18t88 -52t60 -83t22 -110zM434 251q0 24 -8 47t-23 40.5t-37 28.5t-51 11t-51 -11t-36.5 -28.5t-22 -40.5t-7.5 -47
t7.5 -47t22.5 -41.5t37 -29.5t51 -11t51 11t37 29.5t22.5 41.5t7.5 47zM389 589h-147l-124 144h130l68 -81l68 81h128z" />
    <glyph glyph-name="Ucaron" unicode="&#x1d3;" horiz-adv-x="738" 
d="M673 267q0 -64 -21.5 -116.5t-61.5 -90t-96.5 -58.5t-125.5 -21q-70 0 -126 21t-95 58.5t-60 90t-21 116.5v441h170v-427q0 -29 7.5 -55t23 -46.5t41 -32.5t61.5 -12t61.5 12t41.5 32.5t23 46.5t7 55v427h171v-441zM443 783h-147l-124 144h130l68 -81l68 81h128z" />
    <glyph glyph-name="ucaron" unicode="&#x1d4;" horiz-adv-x="614" 
d="M392 0v69h-2q-9 -17 -23.5 -32t-34 -26t-43 -18t-49.5 -7q-50 0 -84.5 18t-56 46.5t-31 65t-9.5 74.5v308h165v-270q0 -21 3 -40t11.5 -34t22.5 -23.5t37 -8.5q43 0 65.5 32t22.5 75v269h164v-498h-158zM378 573h-147l-124 144h130l68 -81l68 81h128z" />
    <glyph glyph-name="Udieresismacron" unicode="&#x1d5;" horiz-adv-x="738" 
d="M673 267q0 -64 -21.5 -116.5t-61.5 -90t-96.5 -58.5t-125.5 -21q-70 0 -126 21t-95 58.5t-60 90t-21 116.5v441h170v-427q0 -29 7.5 -55t23 -46.5t41 -32.5t61.5 -12t61.5 12t41.5 32.5t23 46.5t7 55v427h171v-441zM561 865q0 -35 -24.5 -58.5t-58.5 -23.5q-35 0 -59 24
t-24 58q0 16 6.5 30.5t17.5 26t26 18t33 6.5q34 0 58.5 -23.5t24.5 -57.5zM344 865q0 -35 -24.5 -58.5t-59.5 -23.5t-59 24t-24 58q0 16 6.5 30.5t17.5 26t26.5 18t32.5 6.5q35 0 59.5 -23.5t24.5 -57.5zM201 1021v86h336v-86h-336z" />
    <glyph glyph-name="udieresismacron" unicode="&#x1d6;" horiz-adv-x="614" 
d="M392 0v69h-2q-9 -17 -23.5 -32t-34 -26t-43 -18t-49.5 -7q-50 0 -84.5 18t-56 46.5t-31 65t-9.5 74.5v308h165v-270q0 -21 3 -40t11.5 -34t22.5 -23.5t37 -8.5q43 0 65.5 32t22.5 75v269h164v-498h-158zM496 655q0 -35 -24.5 -58.5t-58.5 -23.5q-35 0 -59 24t-24 58
q0 16 6.5 30.5t17.5 26t26 18t33 6.5q34 0 58.5 -23.5t24.5 -57.5zM279 655q0 -35 -24.5 -58.5t-59.5 -23.5t-59 24t-24 58q0 16 6.5 30.5t17.5 26t26.5 18t32.5 6.5q35 0 59.5 -23.5t24.5 -57.5zM136 811v86h336v-86h-336z" />
    <glyph glyph-name="Udieresisacute" unicode="&#x1d7;" horiz-adv-x="738" 
d="M673 267q0 -64 -21.5 -116.5t-61.5 -90t-96.5 -58.5t-125.5 -21q-70 0 -126 21t-95 58.5t-60 90t-21 116.5v441h170v-427q0 -29 7.5 -55t23 -46.5t41 -32.5t61.5 -12t61.5 12t41.5 32.5t23 46.5t7 55v427h171v-441zM565 865q0 -35 -24.5 -58.5t-58.5 -23.5q-35 0 -59 24
t-24 58q0 16 6.5 30.5t17.5 26t26 18t33 6.5q34 0 58.5 -23.5t24.5 -57.5zM348 865q0 -35 -24.5 -58.5t-59.5 -23.5t-59 24t-24 58q0 16 6.5 30.5t17.5 26t26.5 18t32.5 6.5q35 0 59.5 -23.5t24.5 -57.5zM432 1021h-124l104 144h166z" />
    <glyph glyph-name="udieresisacute" unicode="&#x1d8;" horiz-adv-x="614" 
d="M392 0v69h-2q-9 -17 -23.5 -32t-34 -26t-43 -18t-49.5 -7q-50 0 -84.5 18t-56 46.5t-31 65t-9.5 74.5v308h165v-270q0 -21 3 -40t11.5 -34t22.5 -23.5t37 -8.5q43 0 65.5 32t22.5 75v269h164v-498h-158zM496 655q0 -35 -24.5 -58.5t-58.5 -23.5q-35 0 -59 24t-24 58
q0 16 6.5 30.5t17.5 26t26 18t33 6.5q34 0 58.5 -23.5t24.5 -57.5zM279 655q0 -35 -24.5 -58.5t-59.5 -23.5t-59 24t-24 58q0 16 6.5 30.5t17.5 26t26.5 18t32.5 6.5q35 0 59.5 -23.5t24.5 -57.5zM363 811h-124l104 144h166z" />
    <glyph glyph-name="Udieresiscaron" unicode="&#x1d9;" horiz-adv-x="738" 
d="M673 267q0 -64 -21.5 -116.5t-61.5 -90t-96.5 -58.5t-125.5 -21q-70 0 -126 21t-95 58.5t-60 90t-21 116.5v441h170v-427q0 -29 7.5 -55t23 -46.5t41 -32.5t61.5 -12t61.5 12t41.5 32.5t23 46.5t7 55v427h171v-441zM561 865q0 -35 -24.5 -58.5t-58.5 -23.5q-35 0 -59 24
t-24 58q0 16 6.5 30.5t17.5 26t26 18t33 6.5q34 0 58.5 -23.5t24.5 -57.5zM344 865q0 -35 -24.5 -58.5t-59.5 -23.5t-59 24t-24 58q0 16 6.5 30.5t17.5 26t26.5 18t32.5 6.5q35 0 59.5 -23.5t24.5 -57.5zM443 1021h-147l-124 144h130l68 -81l68 81h128z" />
    <glyph glyph-name="udieresiscaron" unicode="&#x1da;" horiz-adv-x="614" 
d="M392 0v69h-2q-9 -17 -23.5 -32t-34 -26t-43 -18t-49.5 -7q-50 0 -84.5 18t-56 46.5t-31 65t-9.5 74.5v308h165v-270q0 -21 3 -40t11.5 -34t22.5 -23.5t37 -8.5q43 0 65.5 32t22.5 75v269h164v-498h-158zM496 655q0 -35 -24.5 -58.5t-58.5 -23.5q-35 0 -59 24t-24 58
q0 16 6.5 30.5t17.5 26t26 18t33 6.5q34 0 58.5 -23.5t24.5 -57.5zM279 655q0 -35 -24.5 -58.5t-59.5 -23.5t-59 24t-24 58q0 16 6.5 30.5t17.5 26t26.5 18t32.5 6.5q35 0 59.5 -23.5t24.5 -57.5zM378 811h-147l-124 144h130l68 -81l68 81h128z" />
    <glyph glyph-name="Udieresisgrave" unicode="&#x1db;" horiz-adv-x="738" 
d="M673 267q0 -64 -21.5 -116.5t-61.5 -90t-96.5 -58.5t-125.5 -21q-70 0 -126 21t-95 58.5t-60 90t-21 116.5v441h170v-427q0 -29 7.5 -55t23 -46.5t41 -32.5t61.5 -12t61.5 12t41.5 32.5t23 46.5t7 55v427h171v-441zM561 865q0 -35 -24.5 -58.5t-58.5 -23.5q-35 0 -59 24
t-24 58q0 16 6.5 30.5t17.5 26t26 18t33 6.5q34 0 58.5 -23.5t24.5 -57.5zM344 865q0 -35 -24.5 -58.5t-59.5 -23.5t-59 24t-24 58q0 16 6.5 30.5t17.5 26t26.5 18t32.5 6.5q35 0 59.5 -23.5t24.5 -57.5zM310 1021l-146 144h166l104 -144h-124z" />
    <glyph glyph-name="udieresisgrave" unicode="&#x1dc;" horiz-adv-x="614" 
d="M392 0v69h-2q-9 -17 -23.5 -32t-34 -26t-43 -18t-49.5 -7q-50 0 -84.5 18t-56 46.5t-31 65t-9.5 74.5v308h165v-270q0 -21 3 -40t11.5 -34t22.5 -23.5t37 -8.5q43 0 65.5 32t22.5 75v269h164v-498h-158zM496 655q0 -35 -24.5 -58.5t-58.5 -23.5q-35 0 -59 24t-24 58
q0 16 6.5 30.5t17.5 26t26 18t33 6.5q34 0 58.5 -23.5t24.5 -57.5zM279 655q0 -35 -24.5 -58.5t-59.5 -23.5t-59 24t-24 58q0 16 6.5 30.5t17.5 26t26.5 18t32.5 6.5q35 0 59.5 -23.5t24.5 -57.5zM235 811l-146 144h166l104 -144h-124z" />
    <glyph glyph-name="Adieresismacron" unicode="&#x1de;" horiz-adv-x="729" 
d="M553 0l-55 139h-274l-52 -139h-186l297 708h166l294 -708h-190zM363 519l-90 -243h178zM556 865q0 -35 -24.5 -58.5t-58.5 -23.5q-35 0 -59 24t-24 58q0 16 6.5 30.5t17.5 26t26 18t33 6.5q34 0 58.5 -23.5t24.5 -57.5zM339 865q0 -35 -24.5 -58.5t-59.5 -23.5t-59 24
t-24 58q0 16 6.5 30.5t17.5 26t26.5 18t32.5 6.5q35 0 59.5 -23.5t24.5 -57.5zM196 1021v86h336v-86h-336z" />
    <glyph glyph-name="adieresismacron" unicode="&#x1df;" 
d="M358 217h-21q-27 0 -54.5 -2.5t-49 -9.5t-35.5 -20.5t-14 -35.5q0 -14 6.5 -24t16.5 -16t23 -8.5t25 -2.5q50 0 76.5 27.5t26.5 74.5v17zM57 430q44 42 102.5 63t119.5 21q63 0 106.5 -15.5t70.5 -48t39.5 -82t12.5 -117.5v-251h-150v53h-3q-19 -31 -57.5 -48t-83.5 -17
q-30 0 -62 8t-58.5 26t-43.5 48t-17 74q0 54 29.5 87t76 51t103.5 24t111 6v8q0 37 -26 54.5t-64 17.5q-35 0 -67.5 -15t-55.5 -36zM462 671q0 -35 -24.5 -58.5t-58.5 -23.5q-35 0 -59 24t-24 58q0 16 6.5 30.5t17.5 26t26 18t33 6.5q34 0 58.5 -23.5t24.5 -57.5zM245 671
q0 -35 -24.5 -58.5t-59.5 -23.5t-59 24t-24 58q0 16 6.5 30.5t17.5 26t26.5 18t32.5 6.5q35 0 59.5 -23.5t24.5 -57.5zM102 827v86h336v-86h-336z" />
    <glyph glyph-name="Adotmacron" unicode="&#x1e0;" horiz-adv-x="729" 
d="M553 0l-55 139h-274l-52 -139h-186l297 708h166l294 -708h-190zM363 519l-90 -243h178zM454 868q0 -36 -26 -60.5t-64 -24.5t-63.5 25t-25.5 60t25.5 60.5t63.5 25.5t64 -25t26 -61zM196 1029v86h336v-86h-336z" />
    <glyph glyph-name="adotmacron" unicode="&#x1e1;" 
d="M358 217h-21q-27 0 -54.5 -2.5t-49 -9.5t-35.5 -20.5t-14 -35.5q0 -14 6.5 -24t16.5 -16t23 -8.5t25 -2.5q50 0 76.5 27.5t26.5 74.5v17zM57 430q44 42 102.5 63t119.5 21q63 0 106.5 -15.5t70.5 -48t39.5 -82t12.5 -117.5v-251h-150v53h-3q-19 -31 -57.5 -48t-83.5 -17
q-30 0 -62 8t-58.5 26t-43.5 48t-17 74q0 54 29.5 87t76 51t103.5 24t111 6v8q0 37 -26 54.5t-64 17.5q-35 0 -67.5 -15t-55.5 -36zM360 674q0 -36 -26 -60.5t-64 -24.5t-63.5 25t-25.5 60t25.5 60.5t63.5 25.5t64 -25t26 -61zM102 835v86h336v-86h-336z" />
    <glyph glyph-name="AEmacron" unicode="&#x1e2;" horiz-adv-x="1033" 
d="M514 0v153h-231l-88 -153h-199l414 708h565v-145h-298v-133h281v-137h-281v-147h316v-146h-479zM514 563h-10l-153 -272h163v272zM536 783v86h336v-86h-336z" />
    <glyph glyph-name="aemacron" unicode="&#x1e3;" horiz-adv-x="899" 
d="M358 207h-21q-71 0 -112 -11t-41 -47q0 -14 6.5 -24t16.5 -16t23 -8.5t25 -2.5q50 0 76.5 25t26.5 68v16zM709 306q0 39 -24.5 67t-73.5 28q-24 0 -44 -7.5t-35 -20.5t-24 -30.5t-10 -36.5h211zM840 90q-35 -51 -92 -78.5t-134 -27.5q-59 0 -108.5 23.5t-78.5 66.5
q-23 -38 -70.5 -62t-131.5 -24q-32 0 -66 8.5t-62 27t-46 48t-18 72.5q0 52 27 83.5t72 49t102.5 23t118.5 5.5v7q0 42 -24 61t-65 19q-35 0 -68 -15t-56 -36l-82 89q43 42 101.5 63t119.5 21q62 0 101.5 -22t59.5 -51q27 32 70.5 52.5t100.5 20.5q55 0 101 -18.5t79 -53.5
t51.5 -85t18.5 -114q0 -10 -0.5 -20t-1.5 -19h-360q5 -42 39 -68t79 -26q40 0 67 14.5t43 37.5zM279 589v86h336v-86h-336z" />
    <glyph glyph-name="Gcaron" unicode="&#x1e6;" horiz-adv-x="769" 
d="M702 43q-52 -27 -121.5 -44t-151.5 -17q-85 0 -156.5 27t-123 76t-80.5 117.5t-29 152.5q0 85 29.5 154t81.5 117.5t122 74.5t151 26q84 0 156 -25.5t117 -68.5l-108 -123q-25 29 -66 47.5t-93 18.5q-45 0 -83 -16.5t-66 -46t-43.5 -70t-15.5 -88.5q0 -49 14 -90
t41.5 -70.5t68 -46t92.5 -16.5q30 0 57 4.5t50 14.5v129h-135v138h292v-375zM485 802h-147l-124 144h130l68 -81l68 81h128z" />
    <glyph glyph-name="gcaron" unicode="&#x1e7;" horiz-adv-x="658" 
d="M592 47q0 -73 -21 -127t-59 -89.5t-92.5 -53t-120.5 -17.5t-135.5 20t-120.5 58l82 117q36 -32 79.5 -47.5t85.5 -15.5q72 0 106.5 38t34.5 101v30h-3q-23 -30 -62 -48t-89 -18q-57 0 -101 20.5t-74.5 55.5t-46.5 81.5t-16 98.5t16 99t46.5 83t74.5 57.5t100 21.5
q47 0 90 -19t69 -59h2v64h155v-451zM436 252q0 25 -8.5 48t-24.5 40.5t-38 27.5t-50 10t-49.5 -10t-36.5 -27t-23 -40t-8 -49q0 -25 8 -48t23 -40.5t36.5 -28t49.5 -10.5t50.5 10.5t38 27.5t24 40t8.5 49zM429 587h-147l-124 144h130l68 -81l68 81h128z" />
    <glyph glyph-name="Kcaron" unicode="&#x1e8;" horiz-adv-x="711" 
d="M506 0l-263 326h-2v-326h-168v708h168v-288h3l253 288h214l-305 -326l323 -382h-223zM415 783h-147l-124 144h130l68 -81l68 81h128z" />
    <glyph glyph-name="kcaron" unicode="&#x1e9;" horiz-adv-x="595" 
d="M599 0h-203l-163 239h-3v-239h-165v756h165v-460h3l159 202h199l-192 -225zM223 831h-147l-124 144h130l68 -81l68 81h128z" />
    <glyph glyph-name="Oogonek" unicode="&#x1ea;" horiz-adv-x="851" 
d="M811 357q0 -74 -22.5 -136t-62.5 -110t-96.5 -79.5t-123.5 -43.5q-38 -30 -64.5 -62.5t-26.5 -66.5q0 -16 10.5 -26t26.5 -10q14 0 28 5.5t27 14.5l32 -62q-23 -17 -53 -28.5t-62 -11.5q-20 0 -40.5 5t-36.5 16t-26 28.5t-10 41.5t8.5 45.5t22 40t30.5 35t34 29.5
q-80 3 -147 31.5t-115.5 77.5t-76 116.5t-27.5 149.5q0 85 29 153.5t80.5 116.5t122 74t153.5 26t154 -26t122.5 -74t80.5 -116.5t29 -153.5zM628 357q0 46 -15 86t-41.5 68.5t-64 45t-82.5 16.5t-82 -16.5t-64 -45t-41.5 -68.5t-14.5 -86q0 -48 15 -88.5t41.5 -69.5
t63.5 -45.5t82 -16.5t82 16.5t64 45.5t42 69.5t15 88.5z" />
    <glyph glyph-name="oogonek" unicode="&#x1eb;" horiz-adv-x="632" 
d="M592 251q0 -51 -15.5 -94t-42.5 -76t-64.5 -55.5t-81.5 -32.5q-38 -31 -65.5 -63.5t-27.5 -67.5q0 -16 10.5 -26t26.5 -10q14 0 28 5.5t27 14.5l32 -62q-23 -17 -53 -28.5t-62 -11.5q-20 0 -40.5 5t-36.5 16t-26 28.5t-10 41.5t8.5 45.5t22 40.5t31 35t34.5 29
q-52 4 -97 25t-78.5 55.5t-53 81.5t-19.5 104q0 61 22 110t59.5 83t88 52t106.5 18q57 0 107 -18t88 -52t60 -83t22 -110zM434 251q0 24 -8 47t-23 40.5t-37 28.5t-51 11t-51 -11t-36.5 -28.5t-22 -40.5t-7.5 -47t7.5 -47t22.5 -41.5t37 -29.5t51 -11t51 11t37 29.5
t22.5 41.5t7.5 47z" />
    <glyph glyph-name="Oogonekmacron" unicode="&#x1ec;" horiz-adv-x="851" 
d="M811 357q0 -74 -22.5 -136t-62.5 -110t-96.5 -79.5t-123.5 -43.5q-38 -30 -64.5 -62.5t-26.5 -66.5q0 -16 10.5 -26t26.5 -10q14 0 28 5.5t27 14.5l32 -62q-23 -17 -53 -28.5t-62 -11.5q-20 0 -40.5 5t-36.5 16t-26 28.5t-10 41.5t8.5 45.5t22 40t30.5 35t34 29.5
q-80 3 -147 31.5t-115.5 77.5t-76 116.5t-27.5 149.5q0 85 29 153.5t80.5 116.5t122 74t153.5 26t154 -26t122.5 -74t80.5 -116.5t29 -153.5zM628 357q0 46 -15 86t-41.5 68.5t-64 45t-82.5 16.5t-82 -16.5t-64 -45t-41.5 -68.5t-14.5 -86q0 -48 15 -88.5t41.5 -69.5
t63.5 -45.5t82 -16.5t82 16.5t64 45.5t42 69.5t15 88.5zM257 802v86h336v-86h-336z" />
    <glyph glyph-name="oogonekmacron" unicode="&#x1ed;" horiz-adv-x="632" 
d="M592 251q0 -51 -15.5 -94t-42.5 -76t-64.5 -55.5t-81.5 -32.5q-38 -31 -65.5 -63.5t-27.5 -67.5q0 -16 10.5 -26t26.5 -10q14 0 28 5.5t27 14.5l32 -62q-23 -17 -53 -28.5t-62 -11.5q-20 0 -40.5 5t-36.5 16t-26 28.5t-10 41.5t8.5 45.5t22 40.5t31 35t34.5 29
q-52 4 -97 25t-78.5 55.5t-53 81.5t-19.5 104q0 61 22 110t59.5 83t88 52t106.5 18q57 0 107 -18t88 -52t60 -83t22 -110zM434 251q0 24 -8 47t-23 40.5t-37 28.5t-51 11t-51 -11t-36.5 -28.5t-22 -40.5t-7.5 -47t7.5 -47t22.5 -41.5t37 -29.5t51 -11t51 11t37 29.5
t22.5 41.5t7.5 47zM147 589v86h336v-86h-336z" />
    <glyph glyph-name="DZ" unicode="&#x1f1;" horiz-adv-x="1409" 
d="M734 356q0 -93 -34.5 -160.5t-91 -111t-127.5 -64t-144 -20.5h-264v708h256q75 0 148 -17.5t130 -58t92 -108.5t35 -168zM556 356q0 60 -19.5 99.5t-52 63t-74 33.5t-85.5 10h-85v-414h81q46 0 88.5 10.5t75 34.5t52 64t19.5 99zM813 0v148l337 415h-329v145h543v-137
l-345 -423h352v-148h-558z" />
    <glyph glyph-name="Dz" unicode="&#x1f2;" horiz-adv-x="1286" 
d="M734 356q0 -93 -34.5 -160.5t-91 -111t-127.5 -64t-144 -20.5h-264v708h256q75 0 148 -17.5t130 -58t92 -108.5t35 -168zM556 356q0 60 -19.5 99.5t-52 63t-74 33.5t-85.5 10h-85v-414h81q46 0 88.5 10.5t75 34.5t52 64t19.5 99zM808 0v128l234 244h-225v126h425v-123
l-241 -248h251v-127h-444z" />
    <glyph glyph-name="dz" unicode="&#x1f3;" horiz-adv-x="1170" 
d="M441 0v65h-2q-24 -38 -68.5 -58.5t-94.5 -20.5q-56 0 -100 22t-74.5 58.5t-46.5 84.5t-16 100t16.5 99.5t47 83.5t74 57t97.5 21q55 0 93 -21t59 -46h2v311h164v-756h-151zM435 250q0 24 -8.5 47t-24 41t-37.5 29t-50 11q-29 0 -51 -11t-37 -28.5t-22.5 -40.5t-7.5 -47
t7.5 -47.5t22.5 -41.5t37 -29t51 -11q28 0 50 11t37.5 29t24 41t8.5 47zM692 0v128l234 244h-225v126h425v-123l-241 -248h251v-127h-444z" />
    <glyph glyph-name="Gacute" unicode="&#x1f4;" horiz-adv-x="769" 
d="M702 43q-52 -27 -121.5 -44t-151.5 -17q-85 0 -156.5 27t-123 76t-80.5 117.5t-29 152.5q0 85 29.5 154t81.5 117.5t122 74.5t151 26q84 0 156 -25.5t117 -68.5l-108 -123q-25 29 -66 47.5t-93 18.5q-45 0 -83 -16.5t-66 -46t-43.5 -70t-15.5 -88.5q0 -49 14 -90
t41.5 -70.5t68 -46t92.5 -16.5q30 0 57 4.5t50 14.5v129h-135v138h292v-375zM420 802h-124l104 144h166z" />
    <glyph glyph-name="gacute" unicode="&#x1f5;" horiz-adv-x="658" 
d="M592 47q0 -73 -21 -127t-59 -89.5t-92.5 -53t-120.5 -17.5t-135.5 20t-120.5 58l82 117q36 -32 79.5 -47.5t85.5 -15.5q72 0 106.5 38t34.5 101v30h-3q-23 -30 -62 -48t-89 -18q-57 0 -101 20.5t-74.5 55.5t-46.5 81.5t-16 98.5t16 99t46.5 83t74.5 57.5t100 21.5
q47 0 90 -19t69 -59h2v64h155v-451zM436 252q0 25 -8.5 48t-24.5 40.5t-38 27.5t-50 10t-49.5 -10t-36.5 -27t-23 -40t-8 -49q0 -25 8 -48t23 -40.5t36.5 -28t49.5 -10.5t50.5 10.5t38 27.5t24 40t8.5 49zM374 587h-124l104 144h166z" />
    <glyph glyph-name="Ngrave" unicode="&#x1f8;" horiz-adv-x="790" 
d="M523 0l-285 463h-3l4 -463h-166v708h195l284 -462h3l-4 462h166v-708h-194zM356 783l-146 144h166l104 -144h-124z" />
    <glyph glyph-name="ngrave" unicode="&#x1f9;" horiz-adv-x="616" 
d="M391 0v272q0 21 -3.5 40t-11.5 33.5t-22.5 23t-36.5 8.5t-38.5 -8.5t-27.5 -23.5t-16.5 -34.5t-5.5 -40.5v-270h-165v498h159v-69h2q9 16 23.5 31.5t34 26.5t42.5 18t49 7q50 0 85 -18t56.5 -46.5t31 -65.5t9.5 -74v-308h-165zM271 587l-146 144h166l104 -144h-124z" />
    <glyph glyph-name="Aringacute" unicode="&#x1fa;" horiz-adv-x="729" 
d="M553 0l-55 139h-274l-52 -139h-186l297 708h166l294 -708h-190zM363 519l-90 -243h178zM473 890q0 -23 -8.5 -43t-23.5 -34t-35 -22t-42 -8q-23 0 -42.5 8t-34.5 22t-23.5 33.5t-8.5 42.5q0 47 31.5 77.5t77.5 30.5q22 0 42 -8t35 -22.5t23.5 -34t8.5 -42.5zM423 890
q0 25 -17 41.5t-42 16.5q-26 0 -42.5 -17t-16.5 -42q0 -24 17 -40.5t42 -16.5t42 16.5t17 41.5zM353 1072h-124l104 144h166z" />
    <glyph glyph-name="aringacute" unicode="&#x1fb;" 
d="M358 217h-21q-27 0 -54.5 -2.5t-49 -9.5t-35.5 -20.5t-14 -35.5q0 -14 6.5 -24t16.5 -16t23 -8.5t25 -2.5q50 0 76.5 27.5t26.5 74.5v17zM57 430q44 42 102.5 63t119.5 21q63 0 106.5 -15.5t70.5 -48t39.5 -82t12.5 -117.5v-251h-150v53h-3q-19 -31 -57.5 -48t-83.5 -17
q-30 0 -62 8t-58.5 26t-43.5 48t-17 74q0 54 29.5 87t76 51t103.5 24t111 6v8q0 37 -26 54.5t-64 17.5q-35 0 -67.5 -15t-55.5 -36zM379 696q0 -23 -8.5 -43t-23.5 -34t-35 -22t-42 -8q-23 0 -42.5 8t-34.5 22t-23.5 33.5t-8.5 42.5q0 47 31.5 77.5t77.5 30.5q22 0 42 -8
t35 -22.5t23.5 -34t8.5 -42.5zM329 696q0 25 -17 41.5t-42 16.5q-26 0 -42.5 -17t-16.5 -42q0 -24 17 -40.5t42 -16.5t42 16.5t17 41.5zM259 878h-124l104 144h166z" />
    <glyph glyph-name="AEacute" unicode="&#x1fc;" horiz-adv-x="1033" 
d="M514 0v153h-231l-88 -153h-199l414 708h565v-145h-298v-133h281v-137h-281v-147h316v-146h-479zM514 563h-10l-153 -272h163v272zM703 783h-124l104 144h166z" />
    <glyph glyph-name="aeacute" unicode="&#x1fd;" horiz-adv-x="899" 
d="M358 207h-21q-71 0 -112 -11t-41 -47q0 -14 6.5 -24t16.5 -16t23 -8.5t25 -2.5q50 0 76.5 25t26.5 68v16zM709 306q0 39 -24.5 67t-73.5 28q-24 0 -44 -7.5t-35 -20.5t-24 -30.5t-10 -36.5h211zM840 90q-35 -51 -92 -78.5t-134 -27.5q-59 0 -108.5 23.5t-78.5 66.5
q-23 -38 -70.5 -62t-131.5 -24q-32 0 -66 8.5t-62 27t-46 48t-18 72.5q0 52 27 83.5t72 49t102.5 23t118.5 5.5v7q0 42 -24 61t-65 19q-35 0 -68 -15t-56 -36l-82 89q43 42 101.5 63t119.5 21q62 0 101.5 -22t59.5 -51q27 32 70.5 52.5t100.5 20.5q55 0 101 -18.5t79 -53.5
t51.5 -85t18.5 -114q0 -10 -0.5 -20t-1.5 -19h-360q5 -42 39 -68t79 -26q40 0 67 14.5t43 37.5zM476 589h-124l104 144h166z" />
    <glyph glyph-name="Oslashacute" unicode="&#x1fe;" horiz-adv-x="851" 
d="M40 356q0 85 29 153.5t80.5 116.5t122 74t153.5 26q126 0 219 -58l43 48l44 49l67 -59l-43 -46l-43 -47q48 -49 73.5 -113t25.5 -144q0 -84 -29.5 -152.5t-81 -117.5t-122.5 -76.5t-154 -27.5h-5q-66 0 -123 17.5t-101 51.5l-89 -95l-34 28l-33 29l89 97
q-43 46 -65.5 109t-22.5 137zM635 356q0 38 -9 71t-29 59l-292 -318q46 -37 119 -37q48 0 87 17.5t66.5 47.5t42.5 71t15 89zM214 355q0 -73 31 -120l290 315q-20 14 -48.5 21.5t-61.5 7.5q-50 0 -89 -17.5t-66 -48t-41.5 -71.5t-14.5 -87zM454 840h-124l104 144h166z" />
    <glyph glyph-name="oslashacute" unicode="&#x1ff;" horiz-adv-x="632" 
d="M537 411q55 -64 55 -161q0 -60 -22 -109t-59.5 -84t-88 -54t-107.5 -19q-45 0 -85 12t-72 35l-75 -74l-59 58l72 71q-26 30 -41.5 72t-15.5 92q0 60 21.5 109t59 83.5t88 53.5t107.5 19q94 0 160 -49l72 72l60 -58zM372 365q-11 8 -26.5 13.5t-32.5 5.5q-29 0 -51.5 -11
t-38 -29t-23.5 -41.5t-8 -48.5q0 -15 3.5 -31t10.5 -26zM436 248q0 16 -3 31.5t-10 26.5l-167 -168q11 -10 27.5 -15t33.5 -5q29 0 51.5 11t37.5 29t22.5 41.5t7.5 48.5zM344 613h-124l104 144h166z" />
    <glyph glyph-name="Adblgrave" unicode="&#x200;" horiz-adv-x="729" 
d="M553 0l-55 139h-274l-52 -139h-186l297 708h166l294 -708h-190zM363 519l-90 -243h178zM444 783l-146 144h166l104 -144h-124zM207 783l-146 144h166l104 -144h-124z" />
    <glyph glyph-name="adblgrave" unicode="&#x201;" 
d="M358 217h-21q-27 0 -54.5 -2.5t-49 -9.5t-35.5 -20.5t-14 -35.5q0 -14 6.5 -24t16.5 -16t23 -8.5t25 -2.5q50 0 76.5 27.5t26.5 74.5v17zM57 430q44 42 102.5 63t119.5 21q63 0 106.5 -15.5t70.5 -48t39.5 -82t12.5 -117.5v-251h-150v53h-3q-19 -31 -57.5 -48t-83.5 -17
q-30 0 -62 8t-58.5 26t-43.5 48t-17 74q0 54 29.5 87t76 51t103.5 24t111 6v8q0 37 -26 54.5t-64 17.5q-35 0 -67.5 -15t-55.5 -36zM360 589l-146 144h166l104 -144h-124zM123 589l-146 144h166l104 -144h-124z" />
    <glyph glyph-name="Ainvertedbreve" unicode="&#x202;" horiz-adv-x="729" 
d="M553 0l-55 139h-274l-52 -139h-186l297 708h166l294 -708h-190zM363 519l-90 -243h178zM454 783q-7 35 -31.5 45t-58.5 10q-15 0 -30 -2.5t-28 -8.5q-26 -15 -32 -44h-84q3 39 17.5 66.5t37.5 45t53.5 25t64.5 7.5q35 0 65.5 -8t53.5 -25t38 -44.5t18 -66.5h-84z" />
    <glyph glyph-name="ainvertedbreve" unicode="&#x203;" 
d="M358 217h-21q-27 0 -54.5 -2.5t-49 -9.5t-35.5 -20.5t-14 -35.5q0 -14 6.5 -24t16.5 -16t23 -8.5t25 -2.5q50 0 76.5 27.5t26.5 74.5v17zM57 430q44 42 102.5 63t119.5 21q63 0 106.5 -15.5t70.5 -48t39.5 -82t12.5 -117.5v-251h-150v53h-3q-19 -31 -57.5 -48t-83.5 -17
q-30 0 -62 8t-58.5 26t-43.5 48t-17 74q0 54 29.5 87t76 51t103.5 24t111 6v8q0 37 -26 54.5t-64 17.5q-35 0 -67.5 -15t-55.5 -36zM360 589q-7 35 -31.5 45t-58.5 10q-15 0 -30 -2.5t-28 -8.5q-26 -15 -32 -44h-84q3 39 17.5 66.5t37.5 45t53.5 25t64.5 7.5q35 0 65.5 -8
t53.5 -25t38 -44.5t18 -66.5h-84z" />
    <glyph glyph-name="Edblgrave" unicode="&#x204;" horiz-adv-x="607" 
d="M73 0v708h476v-145h-311v-133h294v-137h-294v-147h329v-146h-494zM380 783l-146 144h166l104 -144h-124zM143 783l-146 144h166l104 -144h-124z" />
    <glyph glyph-name="edblgrave" unicode="&#x205;" horiz-adv-x="596" 
d="M407 306q0 39 -24.5 67t-73.5 28q-24 0 -44 -7.5t-35 -20.5t-24 -30.5t-10 -36.5h211zM558 243v-20q0 -10 -1 -19h-361q2 -21 12.5 -38t27 -29.5t37 -19.5t42.5 -7q39 0 66 14.5t44 37.5l114 -72q-35 -51 -92.5 -78.5t-133.5 -27.5q-56 0 -106 17.5t-87.5 51t-59 82.5
t-21.5 112q0 61 21 110.5t57 84t85 53.5t106 19q55 0 101 -18.5t79 -53.5t51.5 -85t18.5 -114zM368 589l-146 144h166l104 -144h-124zM131 589l-146 144h166l104 -144h-124z" />
    <glyph glyph-name="Einvertedbreve" unicode="&#x206;" horiz-adv-x="607" 
d="M73 0v708h476v-145h-311v-133h294v-137h-294v-147h329v-146h-494zM410 783q-7 35 -31.5 45t-58.5 10q-15 0 -30 -2.5t-28 -8.5q-26 -15 -32 -44h-84q3 39 17.5 66.5t37.5 45t53.5 25t64.5 7.5q35 0 65.5 -8t53.5 -25t38 -44.5t18 -66.5h-84z" />
    <glyph glyph-name="einvertedbreve" unicode="&#x207;" horiz-adv-x="596" 
d="M407 306q0 39 -24.5 67t-73.5 28q-24 0 -44 -7.5t-35 -20.5t-24 -30.5t-10 -36.5h211zM558 243v-20q0 -10 -1 -19h-361q2 -21 12.5 -38t27 -29.5t37 -19.5t42.5 -7q39 0 66 14.5t44 37.5l114 -72q-35 -51 -92.5 -78.5t-133.5 -27.5q-56 0 -106 17.5t-87.5 51t-59 82.5
t-21.5 112q0 61 21 110.5t57 84t85 53.5t106 19q55 0 101 -18.5t79 -53.5t51.5 -85t18.5 -114zM388 589q-7 35 -31.5 45t-58.5 10q-15 0 -30 -2.5t-28 -8.5q-26 -15 -32 -44h-84q3 39 17.5 66.5t37.5 45t53.5 25t64.5 7.5q35 0 65.5 -8t53.5 -25t38 -44.5t18 -66.5h-84z" />
    <glyph glyph-name="Idblgrave" unicode="&#x208;" horiz-adv-x="318" 
d="M73 0v708h172v-708h-172zM259 783l-146 144h166l104 -144h-124zM22 783l-146 144h166l104 -144h-124z" />
    <glyph glyph-name="idblgrave" unicode="&#x209;" horiz-adv-x="296" 
d="M66 0v498h164v-498h-164zM238 573l-146 144h166l104 -144h-124zM1 573l-146 144h166l104 -144h-124z" />
    <glyph glyph-name="Iinvertedbreve" unicode="&#x20a;" horiz-adv-x="318" 
d="M73 0v708h172v-708h-172zM249 783q-7 35 -31.5 45t-58.5 10q-15 0 -30 -2.5t-28 -8.5q-26 -15 -32 -44h-84q3 39 17.5 66.5t37.5 45t53.5 25t64.5 7.5q35 0 65.5 -8t53.5 -25t38 -44.5t18 -66.5h-84z" />
    <glyph glyph-name="iinvertedbreve" unicode="&#x20b;" horiz-adv-x="296" 
d="M66 0v498h164v-498h-164zM238 573q-7 35 -31.5 45t-58.5 10q-15 0 -30 -2.5t-28 -8.5q-26 -15 -32 -44h-84q3 39 17.5 66.5t37.5 45t53.5 25t64.5 7.5q35 0 65.5 -8t53.5 -25t38 -44.5t18 -66.5h-84z" />
    <glyph glyph-name="Odblgrave" unicode="&#x20c;" horiz-adv-x="851" 
d="M811 357q0 -84 -29 -153.5t-80.5 -119t-122.5 -76.5t-154 -27t-153.5 27t-122 76.5t-80.5 119t-29 153.5q0 85 29 153.5t80.5 116.5t122 74t153.5 26t154 -26t122.5 -74t80.5 -116.5t29 -153.5zM628 357q0 46 -15 86t-41.5 68.5t-64 45t-82.5 16.5t-82 -16.5t-64 -45
t-41.5 -68.5t-14.5 -86q0 -48 15 -88.5t41.5 -69.5t63.5 -45.5t82 -16.5t82 16.5t64 45.5t42 69.5t15 88.5zM505 802l-146 144h166l104 -144h-124zM268 802l-146 144h166l104 -144h-124z" />
    <glyph glyph-name="odblgrave" unicode="&#x20d;" horiz-adv-x="632" 
d="M592 251q0 -61 -22 -110.5t-60 -84t-88 -53.5t-107 -19q-56 0 -106.5 19t-88 53.5t-59.5 84t-22 110.5t22 110t59.5 83t88 52t106.5 18q57 0 107 -18t88 -52t60 -83t22 -110zM434 251q0 24 -8 47t-23 40.5t-37 28.5t-51 11t-51 -11t-36.5 -28.5t-22 -40.5t-7.5 -47
t7.5 -47t22.5 -41.5t37 -29.5t51 -11t51 11t37 29.5t22.5 41.5t7.5 47zM395 589l-146 144h166l104 -144h-124zM158 589l-146 144h166l104 -144h-124z" />
    <glyph glyph-name="Oinvertedbreve" unicode="&#x20e;" horiz-adv-x="851" 
d="M811 357q0 -84 -29 -153.5t-80.5 -119t-122.5 -76.5t-154 -27t-153.5 27t-122 76.5t-80.5 119t-29 153.5q0 85 29 153.5t80.5 116.5t122 74t153.5 26t154 -26t122.5 -74t80.5 -116.5t29 -153.5zM628 357q0 46 -15 86t-41.5 68.5t-64 45t-82.5 16.5t-82 -16.5t-64 -45
t-41.5 -68.5t-14.5 -86q0 -48 15 -88.5t41.5 -69.5t63.5 -45.5t82 -16.5t82 16.5t64 45.5t42 69.5t15 88.5zM515 802q-7 35 -31.5 45t-58.5 10q-15 0 -30 -2.5t-28 -8.5q-26 -15 -32 -44h-84q3 39 17.5 66.5t37.5 45t53.5 25t64.5 7.5q35 0 65.5 -8t53.5 -25t38 -44.5
t18 -66.5h-84z" />
    <glyph glyph-name="oinvertedbreve" unicode="&#x20f;" horiz-adv-x="632" 
d="M592 251q0 -61 -22 -110.5t-60 -84t-88 -53.5t-107 -19q-56 0 -106.5 19t-88 53.5t-59.5 84t-22 110.5t22 110t59.5 83t88 52t106.5 18q57 0 107 -18t88 -52t60 -83t22 -110zM434 251q0 24 -8 47t-23 40.5t-37 28.5t-51 11t-51 -11t-36.5 -28.5t-22 -40.5t-7.5 -47
t7.5 -47t22.5 -41.5t37 -29.5t51 -11t51 11t37 29.5t22.5 41.5t7.5 47zM405 589q-7 35 -31.5 45t-58.5 10q-15 0 -30 -2.5t-28 -8.5q-26 -15 -32 -44h-84q3 39 17.5 66.5t37.5 45t53.5 25t64.5 7.5q35 0 65.5 -8t53.5 -25t38 -44.5t18 -66.5h-84z" />
    <glyph glyph-name="Rdblgrave" unicode="&#x210;" horiz-adv-x="663" 
d="M452 0l-153 281h-58v-281h-168v708h270q51 0 99.5 -10.5t87 -35.5t61.5 -66t23 -102q0 -72 -39 -121t-108 -70l185 -303h-200zM445 491q0 25 -10.5 40.5t-27 24t-37 11.5t-39.5 3h-91v-165h81q21 0 43 3.5t40 12.5t29.5 26t11.5 44zM382 783l-146 144h166l104 -144h-124z
M145 783l-146 144h166l104 -144h-124z" />
    <glyph glyph-name="rdblgrave" unicode="&#x211;" horiz-adv-x="396" 
d="M387 364q-11 3 -21.5 4t-20.5 1q-33 0 -55.5 -12t-36 -29t-19.5 -37t-6 -35v-256h-164v498h158v-72h2q19 38 54 62t81 24q10 0 19.5 -1t15.5 -3zM289 587l-146 144h166l104 -144h-124zM52 587l-146 144h166l104 -144h-124z" />
    <glyph glyph-name="Rinvertedbreve" unicode="&#x212;" horiz-adv-x="663" 
d="M452 0l-153 281h-58v-281h-168v708h270q51 0 99.5 -10.5t87 -35.5t61.5 -66t23 -102q0 -72 -39 -121t-108 -70l185 -303h-200zM445 491q0 25 -10.5 40.5t-27 24t-37 11.5t-39.5 3h-91v-165h81q21 0 43 3.5t40 12.5t29.5 26t11.5 44zM382 783q-7 35 -31.5 45t-58.5 10
q-15 0 -30 -2.5t-28 -8.5q-26 -15 -32 -44h-84q3 39 17.5 66.5t37.5 45t53.5 25t64.5 7.5q35 0 65.5 -8t53.5 -25t38 -44.5t18 -66.5h-84z" />
    <glyph glyph-name="rinvertedbreve" unicode="&#x213;" horiz-adv-x="396" 
d="M387 364q-11 3 -21.5 4t-20.5 1q-33 0 -55.5 -12t-36 -29t-19.5 -37t-6 -35v-256h-164v498h158v-72h2q19 38 54 62t81 24q10 0 19.5 -1t15.5 -3zM309 587q-7 35 -31.5 45t-58.5 10q-15 0 -30 -2.5t-28 -8.5q-26 -15 -32 -44h-84q3 39 17.5 66.5t37.5 45t53.5 25t64.5 7.5
q35 0 65.5 -8t53.5 -25t38 -44.5t18 -66.5h-84z" />
    <glyph glyph-name="Udblgrave" unicode="&#x214;" horiz-adv-x="738" 
d="M673 267q0 -64 -21.5 -116.5t-61.5 -90t-96.5 -58.5t-125.5 -21q-70 0 -126 21t-95 58.5t-60 90t-21 116.5v441h170v-427q0 -29 7.5 -55t23 -46.5t41 -32.5t61.5 -12t61.5 12t41.5 32.5t23 46.5t7 55v427h171v-441zM449 783l-146 144h166l104 -144h-124zM212 783
l-146 144h166l104 -144h-124z" />
    <glyph glyph-name="udblgrave" unicode="&#x215;" horiz-adv-x="614" 
d="M392 0v69h-2q-9 -17 -23.5 -32t-34 -26t-43 -18t-49.5 -7q-50 0 -84.5 18t-56 46.5t-31 65t-9.5 74.5v308h165v-270q0 -21 3 -40t11.5 -34t22.5 -23.5t37 -8.5q43 0 65.5 32t22.5 75v269h164v-498h-158zM364 573l-146 144h166l104 -144h-124zM127 573l-146 144h166
l104 -144h-124z" />
    <glyph glyph-name="Uinvertedbreve" unicode="&#x216;" horiz-adv-x="738" 
d="M673 267q0 -64 -21.5 -116.5t-61.5 -90t-96.5 -58.5t-125.5 -21q-70 0 -126 21t-95 58.5t-60 90t-21 116.5v441h170v-427q0 -29 7.5 -55t23 -46.5t41 -32.5t61.5 -12t61.5 12t41.5 32.5t23 46.5t7 55v427h171v-441zM459 783q-7 35 -31.5 45t-58.5 10q-15 0 -30 -2.5
t-28 -8.5q-26 -15 -32 -44h-84q3 39 17.5 66.5t37.5 45t53.5 25t64.5 7.5q35 0 65.5 -8t53.5 -25t38 -44.5t18 -66.5h-84z" />
    <glyph glyph-name="uinvertedbreve" unicode="&#x217;" horiz-adv-x="614" 
d="M392 0v69h-2q-9 -17 -23.5 -32t-34 -26t-43 -18t-49.5 -7q-50 0 -84.5 18t-56 46.5t-31 65t-9.5 74.5v308h165v-270q0 -21 3 -40t11.5 -34t22.5 -23.5t37 -8.5q43 0 65.5 32t22.5 75v269h164v-498h-158zM394 573q-7 35 -31.5 45t-58.5 10q-15 0 -30 -2.5t-28 -8.5
q-26 -15 -32 -44h-84q3 39 17.5 66.5t37.5 45t53.5 25t64.5 7.5q35 0 65.5 -8t53.5 -25t38 -44.5t18 -66.5h-84z" />
    <glyph glyph-name="Scommaaccent" unicode="&#x218;" horiz-adv-x="591" 
d="M447 524q-22 28 -57.5 44.5t-68.5 16.5q-17 0 -34.5 -3t-31.5 -11.5t-23.5 -22t-9.5 -34.5q0 -18 7.5 -30t22 -21t34.5 -16.5t45 -15.5q36 -12 75 -26.5t71 -38.5t53 -59.5t21 -88.5q0 -61 -22.5 -105.5t-60.5 -73.5t-87 -43t-101 -14q-76 0 -147 26.5t-118 75.5l112 114
q26 -32 68.5 -53.5t84.5 -21.5q19 0 37 4t31.5 13t21.5 24t8 36q0 20 -10 34t-28.5 25.5t-46 21t-62.5 20.5q-34 11 -66.5 26t-58 38.5t-41 57t-15.5 81.5q0 59 24 101t63 69t88 39.5t99 12.5q60 0 122.5 -22t109.5 -65zM278 -240h-126l67 195h145z" />
    <glyph glyph-name="scommaaccent" unicode="&#x219;" horiz-adv-x="472" 
d="M357 351q-20 19 -47 32t-57 13q-23 0 -42.5 -9t-19.5 -31q0 -21 21.5 -30t69.5 -20q28 -6 56.5 -17t51.5 -29t37 -44t14 -62q0 -47 -19 -79.5t-49.5 -52.5t-68.5 -29t-76 -9q-61 0 -119.5 19.5t-97.5 57.5l92 97q22 -24 54 -40t68 -16q20 0 39.5 9.5t19.5 33.5
q0 23 -24 34t-75 23q-26 6 -52 16t-46.5 27t-33.5 42t-13 60q0 45 19 76.5t49 51.5t66.5 29.5t72.5 9.5q56 0 109.5 -17.5t90.5 -52.5zM218 -240h-126l67 195h145z" />
    <glyph glyph-name="uni021A" unicode="&#x21a;" horiz-adv-x="581" 
d="M376 562v-562h-171v562h-200v146h571v-146h-200zM279 -240h-126l67 195h145z" />
    <glyph glyph-name="uni021B" unicode="&#x21b;" horiz-adv-x="372" 
d="M242 375v-190q0 -35 13.5 -52.5t48.5 -17.5q12 0 25.5 2t22.5 6l2 -120q-17 -6 -43 -10.5t-52 -4.5q-50 0 -84 12.5t-54.5 36t-29.5 56t-9 72.5v210h-80v123h79v131h161v-131h117v-123h-117zM202 -240h-126l67 195h145z" />
    <glyph glyph-name="Hcaron" unicode="&#x21e;" horiz-adv-x="764" 
d="M520 0v296h-276v-296h-171v708h171v-268h276v268h171v-708h-171zM456 783h-147l-124 144h130l68 -81l68 81h128z" />
    <glyph glyph-name="hcaron" unicode="&#x21f;" horiz-adv-x="617" 
d="M392 0v270q0 21 -3 40t-11.5 33.5t-22.5 23t-36 8.5q-43 0 -66 -30.5t-23 -75.5v-269h-164v756h164v-321h2q17 30 54 53.5t89 23.5q51 0 85.5 -18t56 -46.5t31 -65.5t9.5 -74v-308h-165zM222 831h-147l-124 144h130l68 -81l68 81h128z" />
    <glyph glyph-name="Adotaccent" unicode="&#x226;" horiz-adv-x="729" 
d="M553 0l-55 139h-274l-52 -139h-186l297 708h166l294 -708h-190zM363 519l-90 -243h178zM454 868q0 -36 -26 -60.5t-64 -24.5t-63.5 25t-25.5 60t25.5 60.5t63.5 25.5t64 -25t26 -61z" />
    <glyph glyph-name="adotaccent" unicode="&#x227;" 
d="M358 217h-21q-27 0 -54.5 -2.5t-49 -9.5t-35.5 -20.5t-14 -35.5q0 -14 6.5 -24t16.5 -16t23 -8.5t25 -2.5q50 0 76.5 27.5t26.5 74.5v17zM57 430q44 42 102.5 63t119.5 21q63 0 106.5 -15.5t70.5 -48t39.5 -82t12.5 -117.5v-251h-150v53h-3q-19 -31 -57.5 -48t-83.5 -17
q-30 0 -62 8t-58.5 26t-43.5 48t-17 74q0 54 29.5 87t76 51t103.5 24t111 6v8q0 37 -26 54.5t-64 17.5q-35 0 -67.5 -15t-55.5 -36zM360 674q0 -36 -26 -60.5t-64 -24.5t-63.5 25t-25.5 60t25.5 60.5t63.5 25.5t64 -25t26 -61z" />
    <glyph glyph-name="Ecedilla" unicode="&#x228;" horiz-adv-x="607" 
d="M453 -142q0 -29 -14 -48t-36 -30t-47.5 -15.5t-49.5 -4.5q-31 0 -63.5 7t-55.5 18l27 60q19 -9 41.5 -14t42.5 -5q16 0 33 6.5t17 26.5q0 18 -16 23.5t-31 5.5q-9 0 -20 -1.5t-20 -4.5l-31 29l67 89h-224v708h476v-145h-311v-133h294v-137h-294v-147h329v-146h-188
l-47 -60q5 1 9 1h9q18 0 36.5 -3.5t33 -12.5t24 -25.5t9.5 -41.5z" />
    <glyph glyph-name="ecedilla" unicode="&#x229;" horiz-adv-x="596" 
d="M558 243v-20q0 -10 -1 -19h-361q2 -21 12.5 -38t27 -29.5t37 -19.5t42.5 -7q39 0 66 14.5t44 37.5l114 -72q-63 -90 -185 -104l-44 -62q5 1 9 1h9q18 0 36.5 -3.5t33 -12.5t24 -25.5t9.5 -41.5q0 -29 -14 -48t-36 -30t-47.5 -15.5t-49.5 -4.5q-31 0 -63.5 7t-55.5 18
l27 60q19 -9 41.5 -14t42.5 -5q16 0 33 6.5t17 26.5q0 18 -16 23.5t-31 5.5q-9 0 -20 -1.5t-20 -4.5l-31 29l64 92q-49 6 -91.5 25.5t-74 52.5t-49.5 79t-18 103q0 61 21 110.5t57 84t85 53.5t106 19q55 0 101 -18.5t79 -53.5t51.5 -85t18.5 -114zM407 306q0 39 -24.5 67
t-73.5 28q-24 0 -44 -7.5t-35 -20.5t-24 -30.5t-10 -36.5h211z" />
    <glyph glyph-name="Odieresismacron" unicode="&#x22a;" horiz-adv-x="851" 
d="M811 357q0 -84 -29 -153.5t-80.5 -119t-122.5 -76.5t-154 -27t-153.5 27t-122 76.5t-80.5 119t-29 153.5q0 85 29 153.5t80.5 116.5t122 74t153.5 26t154 -26t122.5 -74t80.5 -116.5t29 -153.5zM628 357q0 46 -15 86t-41.5 68.5t-64 45t-82.5 16.5t-82 -16.5t-64 -45
t-41.5 -68.5t-14.5 -86q0 -48 15 -88.5t41.5 -69.5t63.5 -45.5t82 -16.5t82 16.5t64 45.5t42 69.5t15 88.5zM617 884q0 -35 -24.5 -58.5t-58.5 -23.5q-35 0 -59 24t-24 58q0 16 6.5 30.5t17.5 26t26 18t33 6.5q34 0 58.5 -23.5t24.5 -57.5zM400 884q0 -35 -24.5 -58.5
t-59.5 -23.5t-59 24t-24 58q0 16 6.5 30.5t17.5 26t26.5 18t32.5 6.5q35 0 59.5 -23.5t24.5 -57.5zM257 1040v86h336v-86h-336z" />
    <glyph glyph-name="odieresismacron" unicode="&#x22b;" horiz-adv-x="632" 
d="M592 251q0 -61 -22 -110.5t-60 -84t-88 -53.5t-107 -19q-56 0 -106.5 19t-88 53.5t-59.5 84t-22 110.5t22 110t59.5 83t88 52t106.5 18q57 0 107 -18t88 -52t60 -83t22 -110zM434 251q0 24 -8 47t-23 40.5t-37 28.5t-51 11t-51 -11t-36.5 -28.5t-22 -40.5t-7.5 -47
t7.5 -47t22.5 -41.5t37 -29.5t51 -11t51 11t37 29.5t22.5 41.5t7.5 47zM507 671q0 -35 -24.5 -58.5t-58.5 -23.5q-35 0 -59 24t-24 58q0 16 6.5 30.5t17.5 26t26 18t33 6.5q34 0 58.5 -23.5t24.5 -57.5zM290 671q0 -35 -24.5 -58.5t-59.5 -23.5t-59 24t-24 58q0 16 6.5 30.5
t17.5 26t26.5 18t32.5 6.5q35 0 59.5 -23.5t24.5 -57.5zM147 827v86h336v-86h-336z" />
    <glyph glyph-name="Otildemacron" unicode="&#x22c;" horiz-adv-x="851" 
d="M811 357q0 -84 -29 -153.5t-80.5 -119t-122.5 -76.5t-154 -27t-153.5 27t-122 76.5t-80.5 119t-29 153.5q0 85 29 153.5t80.5 116.5t122 74t153.5 26t154 -26t122.5 -74t80.5 -116.5t29 -153.5zM628 357q0 46 -15 86t-41.5 68.5t-64 45t-82.5 16.5t-82 -16.5t-64 -45
t-41.5 -68.5t-14.5 -86q0 -48 15 -88.5t41.5 -69.5t63.5 -45.5t82 -16.5t82 16.5t64 45.5t42 69.5t15 88.5zM611 934q-3 -26 -11 -50t-21.5 -42t-33.5 -29t-47 -11q-21 0 -41 6t-40 15q-20 11 -34.5 15.5t-28.5 4.5q-18 0 -27.5 -12t-14.5 -28h-72q3 26 11 49.5t21.5 41.5
t33.5 28.5t47 10.5q21 0 40.5 -5.5t39.5 -14.5q21 -10 36 -15t29 -5q19 0 28 11.5t14 29.5h71zM257 1009v86h336v-86h-336z" />
    <glyph glyph-name="otildemacron" unicode="&#x22d;" horiz-adv-x="632" 
d="M592 251q0 -61 -22 -110.5t-60 -84t-88 -53.5t-107 -19q-56 0 -106.5 19t-88 53.5t-59.5 84t-22 110.5t22 110t59.5 83t88 52t106.5 18q57 0 107 -18t88 -52t60 -83t22 -110zM434 251q0 24 -8 47t-23 40.5t-37 28.5t-51 11t-51 -11t-36.5 -28.5t-22 -40.5t-7.5 -47
t7.5 -47t22.5 -41.5t37 -29.5t51 -11t51 11t37 29.5t22.5 41.5t7.5 47zM501 721q-3 -26 -11 -50t-21.5 -42t-33.5 -29t-47 -11q-21 0 -41 6t-40 15q-20 11 -34.5 15.5t-28.5 4.5q-18 0 -27.5 -12t-14.5 -28h-72q3 26 11 49.5t21.5 41.5t33.5 28.5t47 10.5q21 0 40.5 -5.5
t39.5 -14.5q21 -10 36 -15t29 -5q19 0 28 11.5t14 29.5h71zM147 796v86h336v-86h-336z" />
    <glyph glyph-name="Odotaccent" unicode="&#x22e;" horiz-adv-x="851" 
d="M811 357q0 -84 -29 -153.5t-80.5 -119t-122.5 -76.5t-154 -27t-153.5 27t-122 76.5t-80.5 119t-29 153.5q0 85 29 153.5t80.5 116.5t122 74t153.5 26t154 -26t122.5 -74t80.5 -116.5t29 -153.5zM628 357q0 46 -15 86t-41.5 68.5t-64 45t-82.5 16.5t-82 -16.5t-64 -45
t-41.5 -68.5t-14.5 -86q0 -48 15 -88.5t41.5 -69.5t63.5 -45.5t82 -16.5t82 16.5t64 45.5t42 69.5t15 88.5zM515 887q0 -36 -26 -60.5t-64 -24.5t-63.5 25t-25.5 60t25.5 60.5t63.5 25.5t64 -25t26 -61z" />
    <glyph glyph-name="odotaccent" unicode="&#x22f;" horiz-adv-x="632" 
d="M592 251q0 -61 -22 -110.5t-60 -84t-88 -53.5t-107 -19q-56 0 -106.5 19t-88 53.5t-59.5 84t-22 110.5t22 110t59.5 83t88 52t106.5 18q57 0 107 -18t88 -52t60 -83t22 -110zM434 251q0 24 -8 47t-23 40.5t-37 28.5t-51 11t-51 -11t-36.5 -28.5t-22 -40.5t-7.5 -47
t7.5 -47t22.5 -41.5t37 -29.5t51 -11t51 11t37 29.5t22.5 41.5t7.5 47zM405 674q0 -36 -26 -60.5t-64 -24.5t-63.5 25t-25.5 60t25.5 60.5t63.5 25.5t64 -25t26 -61z" />
    <glyph glyph-name="Odotaccentmacron" unicode="&#x230;" horiz-adv-x="851" 
d="M811 357q0 -84 -29 -153.5t-80.5 -119t-122.5 -76.5t-154 -27t-153.5 27t-122 76.5t-80.5 119t-29 153.5q0 85 29 153.5t80.5 116.5t122 74t153.5 26t154 -26t122.5 -74t80.5 -116.5t29 -153.5zM628 357q0 46 -15 86t-41.5 68.5t-64 45t-82.5 16.5t-82 -16.5t-64 -45
t-41.5 -68.5t-14.5 -86q0 -48 15 -88.5t41.5 -69.5t63.5 -45.5t82 -16.5t82 16.5t64 45.5t42 69.5t15 88.5zM515 887q0 -36 -26 -60.5t-64 -24.5t-63.5 25t-25.5 60t25.5 60.5t63.5 25.5t64 -25t26 -61zM257 1048v86h336v-86h-336z" />
    <glyph glyph-name="odotaccentmacron" unicode="&#x231;" horiz-adv-x="632" 
d="M592 251q0 -61 -22 -110.5t-60 -84t-88 -53.5t-107 -19q-56 0 -106.5 19t-88 53.5t-59.5 84t-22 110.5t22 110t59.5 83t88 52t106.5 18q57 0 107 -18t88 -52t60 -83t22 -110zM434 251q0 24 -8 47t-23 40.5t-37 28.5t-51 11t-51 -11t-36.5 -28.5t-22 -40.5t-7.5 -47
t7.5 -47t22.5 -41.5t37 -29.5t51 -11t51 11t37 29.5t22.5 41.5t7.5 47zM405 674q0 -36 -26 -60.5t-64 -24.5t-63.5 25t-25.5 60t25.5 60.5t63.5 25.5t64 -25t26 -61zM147 835v86h336v-86h-336z" />
    <glyph glyph-name="Ymacron" unicode="&#x232;" horiz-adv-x="669" 
d="M417 300v-300h-171v300l-266 408h207l151 -262l151 262h200zM166 783v86h336v-86h-336z" />
    <glyph glyph-name="ymacron" unicode="&#x233;" horiz-adv-x="567" 
d="M345 -75q-15 -39 -33.5 -69.5t-44 -52t-60 -32.5t-81.5 -11q-23 0 -47.5 3t-42.5 8l18 138q12 -4 26.5 -6.5t26.5 -2.5q38 0 55 17.5t29 49.5l16 41l-208 490h182l111 -320h3l99 320h174zM115 573v86h336v-86h-336z" />
    <glyph glyph-name="dotlessj" unicode="&#x237;" horiz-adv-x="299" 
d="M233 -13q0 -46 -8.5 -87.5t-30.5 -72.5t-61 -49t-99 -18q-17 0 -37 2t-34 6l11 137q9 -3 18.5 -4t16.5 -1q36 0 48 24.5t12 62.5v511h164v-511z" />
    <glyph glyph-name="commaturnedmod" unicode="&#x2bb;" horiz-adv-x="300" 
d="M187 437h-145l91 271h126z" />
    <glyph glyph-name="afii57929" unicode="&#x2bc;" horiz-adv-x="300" 
d="M167 437h-126l72 271h145z" />
    <glyph glyph-name="circumflex" unicode="&#x2c6;" horiz-adv-x="300" 
d="M217 572l-68 81l-68 -81h-128l124 144h148l122 -144h-130z" />
    <glyph glyph-name="caron" unicode="&#x2c7;" horiz-adv-x="300" 
d="M224 572h-147l-124 144h130l68 -81l68 81h128z" />
    <glyph glyph-name="uni02C9" unicode="&#x2c9;" horiz-adv-x="300" 
d="M-18 793v86h336v-86h-336z" />
    <glyph glyph-name="breve" unicode="&#x2d8;" horiz-adv-x="300" 
d="M324 716q-3 -39 -18 -66.5t-38 -44.5t-53.5 -25t-65.5 -8q-34 0 -64.5 7.5t-53.5 25t-37.5 45t-17.5 66.5h84q6 -29 32 -44q13 -6 28 -8.5t30 -2.5q34 0 58.5 10t31.5 45h84z" />
    <glyph glyph-name="dotaccent" unicode="&#x2d9;" horiz-adv-x="300" 
d="M240 657q0 -36 -26 -60.5t-64 -24.5t-63.5 25t-25.5 60t25.5 60.5t63.5 25.5t64 -25t26 -61z" />
    <glyph glyph-name="ring" unicode="&#x2da;" horiz-adv-x="300" 
d="M259 664q0 -23 -8.5 -43t-23.5 -34t-35 -22t-42 -8q-23 0 -42.5 8t-34.5 22t-23.5 33.5t-8.5 42.5q0 47 31.5 77.5t77.5 30.5q22 0 42 -8t35 -22.5t23.5 -34t8.5 -42.5zM209 664q0 25 -17 41.5t-42 16.5q-26 0 -42.5 -17t-16.5 -42q0 -24 17 -40.5t42 -16.5t42 16.5
t17 41.5z" />
    <glyph glyph-name="ogonek" unicode="&#x2db;" horiz-adv-x="300" 
d="M240 -196q-23 -17 -53 -28.5t-62 -11.5q-20 0 -40.5 5t-36.5 16t-26 28.5t-10 41.5q0 22 10 43.5t26 40.5t35 35.5t37 29.5h91q-39 -31 -67 -63t-28 -59q0 -16 10.5 -26t26.5 -10q14 0 28 5.5t27 14.5z" />
    <glyph glyph-name="tilde" unicode="&#x2dc;" horiz-adv-x="300" 
d="M335 708q-3 -26 -11 -50t-21.5 -42t-33.5 -29t-47 -11q-21 0 -41 6t-40 15q-20 11 -34.5 15.5t-28.5 4.5q-18 0 -27.5 -12t-14.5 -28h-72q3 26 11 49.5t21.5 41.5t33.5 28.5t47 10.5q21 0 40.5 -5.5t39.5 -14.5q21 -10 36 -15t29 -5q19 0 28 11.5t14 29.5h71z" />
    <glyph glyph-name="hungarumlaut" unicode="&#x2dd;" horiz-adv-x="300" 
d="M310 572h-124l104 144h166zM90 572h-124l104 144h166z" />
    <glyph glyph-name="uni02EE" unicode="&#x2ee;" horiz-adv-x="507" 
d="M375 437h-127l74 271h143zM167 437h-126l72 271h143z" />
    <glyph glyph-name="gravecmb" unicode="&#x300;" horiz-adv-x="0" 
d="M-154 572l-146 144h166l104 -144h-124z" />
    <glyph glyph-name="acutecmb" unicode="&#x301;" horiz-adv-x="0" 
d="M-176 572h-124l104 144h166z" />
    <glyph glyph-name="circumflexcmb" unicode="&#x302;" horiz-adv-x="0" 
d="M-36 572l-68 81l-68 -81h-128l124 144h148l122 -144h-130z" />
    <glyph glyph-name="tildecmb" unicode="&#x303;" horiz-adv-x="0" 
d="M71 708q-3 -26 -11 -50t-21.5 -42t-33.5 -29t-47 -11q-21 0 -41 6t-40 15q-20 11 -34.5 15.5t-28.5 4.5q-18 0 -27.5 -12t-14.5 -28h-72q3 26 11 49.5t21.5 41.5t33.5 28.5t47 10.5q21 0 40.5 -5.5t39.5 -14.5q21 -10 36 -15t29 -5q19 0 28 11.5t14 29.5h71z" />
    <glyph glyph-name="macroncmb" unicode="&#x304;" horiz-adv-x="0" 
d="M-300 601v86h336v-86h-336z" />
    <glyph glyph-name="brevecmb" unicode="&#x306;" horiz-adv-x="0" 
d="M48 716q-3 -39 -18 -66.5t-38 -44.5t-53.5 -25t-65.5 -8q-34 0 -64.5 7.5t-53.5 25t-37.5 45t-17.5 66.5h84q6 -29 32 -44q13 -6 28 -8.5t30 -2.5q34 0 58.5 10t31.5 45h84z" />
    <glyph glyph-name="dotaccentcmb" unicode="&#x307;" horiz-adv-x="0" 
d="M-121 657q0 -36 -26 -60.5t-64 -24.5t-63.5 25t-25.5 60t25.5 60.5t63.5 25.5t64 -25t26 -61z" />
    <glyph glyph-name="dieresiscmb" unicode="&#x308;" horiz-adv-x="0" 
d="M84 658q0 -35 -24.5 -58.5t-58.5 -23.5q-35 0 -59 24t-24 58q0 16 6.5 30.5t17.5 26t26 18t33 6.5q34 0 58.5 -23.5t24.5 -57.5zM-133 658q0 -35 -24.5 -58.5t-59.5 -23.5t-59 24t-24 58q0 16 6.5 30.5t17.5 26t26.5 18t32.5 6.5q35 0 59.5 -23.5t24.5 -57.5z" />
    <glyph glyph-name="hookabovecomb" unicode="&#x309;" horiz-adv-x="300" 
d="M107 562q0 26 10 42.5t38 32.5q29 17 29 39q0 30 -32 30q-18 0 -28 -11t-13 -37l-98 11q8 55 44.5 82t96.5 27q63 0 96.5 -28.5t33.5 -67.5q0 -29 -13.5 -48t-42.5 -33q-17 -8 -23 -17t-6 -22h-92z" />
    <glyph glyph-name="ringcmb" unicode="&#x30a;" horiz-adv-x="0" 
d="M-82 664q0 -23 -8.5 -43t-23.5 -34t-35 -22t-42 -8q-23 0 -42.5 8t-34.5 22t-23.5 33.5t-8.5 42.5q0 47 31.5 77.5t77.5 30.5q22 0 42 -8t35 -22.5t23.5 -34t8.5 -42.5zM-132 664q0 25 -17 41.5t-42 16.5q-26 0 -42.5 -17t-16.5 -42q0 -24 17 -40.5t42 -16.5t42 16.5
t17 41.5z" />
    <glyph glyph-name="hungarumlautcmb" unicode="&#x30b;" horiz-adv-x="0" 
d="M44 572h-124l104 144h166zM-176 572h-124l104 144h166z" />
    <glyph glyph-name="caroncmb" unicode="&#x30c;" horiz-adv-x="0" 
d="M-29 572h-147l-124 144h130l68 -81l68 81h128z" />
    <glyph glyph-name="doublegravecmb" unicode="&#x30f;" horiz-adv-x="0" 
d="M-154 572l-146 144h166l104 -144h-124zM-391 572l-146 144h166l104 -144h-124z" />
    <glyph glyph-name="invertedbrevecmb" unicode="&#x311;" horiz-adv-x="0" 
d="M-84 572q-7 35 -31.5 45t-58.5 10q-15 0 -30 -2.5t-28 -8.5q-26 -15 -32 -44h-84q3 39 17.5 66.5t37.5 45t53.5 25t64.5 7.5q35 0 65.5 -8t53.5 -25t38 -44.5t18 -66.5h-84z" />
    <glyph glyph-name="horncmb" unicode="&#x31b;" horiz-adv-x="0" 
d="M-241 485q35 0 50.5 19t15.5 56q0 17 -4.5 34t-12.5 29l124 30q9 -19 14 -41.5t5 -49.5q0 -72 -38 -117.5t-107 -45.5q-35 0 -61 8.5t-43 19.5q-20 12 -33 28l2 73q13 -12 27 -22q12 -8 28 -14.5t33 -6.5z" />
    <glyph glyph-name="dotbelowcmb" unicode="&#x323;" horiz-adv-x="0" 
d="M-98 -168q0 -42 -29.5 -70t-70.5 -28q-21 0 -39.5 7.5t-32.5 20.5t-22 30.5t-8 38.5q0 20 8 38t22 31.5t32.5 21.5t39.5 8q41 0 70.5 -28t29.5 -70z" />
    <glyph glyph-name="dieresisbelowcmb" unicode="&#x324;" horiz-adv-x="0" 
d="M84 -151q0 -35 -24.5 -58.5t-58.5 -23.5q-35 0 -59 24t-24 58q0 16 6.5 30.5t17.5 26t26 18t33 6.5q34 0 58.5 -23.5t24.5 -57.5zM-133 -151q0 -35 -24.5 -58.5t-59.5 -23.5t-59 24t-24 58q0 16 6.5 30.5t17.5 26t26.5 18t32.5 6.5q35 0 59.5 -23.5t24.5 -57.5z" />
    <glyph glyph-name="ringbelowcmb" unicode="&#x325;" horiz-adv-x="0" 
d="M-82 -177q0 -23 -8.5 -43t-23.5 -34t-35 -22t-42 -8q-23 0 -42.5 8t-34.5 22t-23.5 33.5t-8.5 42.5q0 47 31.5 77.5t77.5 30.5q22 0 42 -8t35 -22.5t23.5 -34t8.5 -42.5zM-132 -177q0 25 -17 41.5t-42 16.5q-26 0 -42.5 -17t-16.5 -42q0 -24 17 -40.5t42 -16.5t42 16.5
t17 41.5z" />
    <glyph glyph-name="commabelowcmb" unicode="&#x326;" horiz-adv-x="0" 
d="M-165 -354h-135l75 284h157z" />
    <glyph glyph-name="cedillacmb" unicode="&#x327;" horiz-adv-x="0" 
d="M-34 -142q0 -29 -14 -48t-36 -30t-47.5 -15.5t-49.5 -4.5q-31 0 -63.5 7t-55.5 18l27 60q19 -9 41.5 -14t42.5 -5q16 0 33 6.5t17 26.5q0 18 -16 23.5t-31 5.5q-9 0 -20 -1.5t-20 -4.5l-31 29l67 89h82l-47 -60q5 1 9 1h9q18 0 36.5 -3.5t33 -12.5t24 -25.5t9.5 -41.5z
" />
    <glyph glyph-name="ogonekcmb" unicode="&#x328;" horiz-adv-x="0" 
d="M-72 -196q-23 -17 -53 -28.5t-62 -11.5q-20 0 -40.5 5t-36.5 16t-26 28.5t-10 41.5q0 22 10 43.5t26 40.5t35 35.5t37 29.5h91q-39 -31 -67 -63t-28 -59q0 -16 10.5 -26t26.5 -10q14 0 28 5.5t27 14.5z" />
    <glyph glyph-name="circumflexbelowcmb" unicode="&#x32d;" horiz-adv-x="0" 
d="M-36 -214l-68 81l-68 -81h-128l124 144h148l122 -144h-130z" />
    <glyph glyph-name="brevebelowcmb" unicode="&#x32e;" horiz-adv-x="0" 
d="M48 -70q-3 -39 -18 -66.5t-38 -44.5t-53.5 -25t-65.5 -8q-34 0 -64.5 7.5t-53.5 25t-37.5 45t-17.5 66.5h84q6 -29 32 -44q13 -6 28 -8.5t30 -2.5q34 0 58.5 10t31.5 45h84z" />
    <glyph glyph-name="tildebelowcmb" unicode="&#x330;" horiz-adv-x="0" 
d="M71 -70q-3 -26 -11 -50t-21.5 -42t-33.5 -29t-47 -11q-21 0 -41 6t-40 15q-20 11 -34.5 15.5t-28.5 4.5q-18 0 -27.5 -12t-14.5 -28h-72q3 26 11 49.5t21.5 41.5t33.5 28.5t47 10.5q21 0 40.5 -5.5t39.5 -14.5q21 -10 36 -15t29 -5q19 0 28 11.5t14 29.5h71z" />
    <glyph glyph-name="macronbelowcmb" unicode="&#x331;" horiz-adv-x="0" 
d="M-300 -156v86h336v-86h-336z" />
    <glyph glyph-name="gravetonecmb" unicode="&#x340;" horiz-adv-x="0" 
d="M-154 572l-146 144h166l104 -144h-124z" />
    <glyph glyph-name="acutetonecmb" unicode="&#x341;" horiz-adv-x="0" 
d="M-176 572h-124l104 144h166z" />
    <glyph glyph-name="dialytikatonoscmb" unicode="&#x344;" horiz-adv-x="0" 
d="M84 658q0 -35 -24.5 -58.5t-58.5 -23.5q-35 0 -59 24t-24 58q0 16 6.5 30.5t17.5 26t26 18t33 6.5q34 0 58.5 -23.5t24.5 -57.5zM-133 658q0 -35 -24.5 -58.5t-59.5 -23.5t-59 24t-24 58q0 16 6.5 30.5t17.5 26t26.5 18t32.5 6.5q35 0 59.5 -23.5t24.5 -57.5zM-119 814
h-124l104 144h166z" />
    <glyph glyph-name="combininggraphemejoiner" unicode="&#x34f;" horiz-adv-x="0" 
 />
    <glyph glyph-name="uni037E" unicode="&#x37e;" horiz-adv-x="332" 
d="M264 410q0 -40 -28.5 -67.5t-68.5 -27.5q-20 0 -37.5 7t-31 20t-21.5 30t-8 37t7.5 37.5t21 30.5t31.5 20.5t38 7.5q19 0 37 -7.5t31 -20t21 -30t8 -37.5zM168 -124h-138l75 284h160z" />
    <glyph glyph-name="u0384" unicode="&#x384;" horiz-adv-x="260" 
d="M66 774h127l-10 -223h-106z" />
    <glyph glyph-name="u0385" unicode="&#x385;" horiz-adv-x="240" 
d="M-118 613q0 24 18 43.5t45 19.5t45 -19.5t18 -43.5t-18 -43.5t-45 -19.5t-45 19.5t-18 43.5zM212 613q0 24 18 43.5t45 19.5t45 -19.5t18 -43.5t-18 -43.5t-45 -19.5t-45 19.5t-18 43.5zM59 775h107l-10 -223h-86z" />
    <glyph glyph-name="u0386" unicode="&#x386;" horiz-adv-x="753" 
d="M577 0l-55 139h-274l-52 -139h-186l297 708h166l294 -708h-190zM387 519l-90 -243h178zM46 774h127l-10 -223h-106z" />
    <glyph glyph-name="anoteleia" unicode="&#x387;" horiz-adv-x="300" 
d="M251 291q0 -42 -29.5 -70t-70.5 -28q-21 0 -39.5 7.5t-32.5 20.5t-22 30.5t-8 38.5q0 20 8 38t22 31.5t32.5 21.5t39.5 8q41 0 70.5 -28t29.5 -70z" />
    <glyph glyph-name="u0388" unicode="&#x388;" horiz-adv-x="716" 
d="M182 0v708h476v-145h-311v-133h294v-137h-294v-147h329v-146h-494zM0 774h127l-10 -223h-106z" />
    <glyph glyph-name="u0389" unicode="&#x389;" horiz-adv-x="879" 
d="M635 0v296h-276v-296h-171v708h171v-268h276v268h171v-708h-171zM0 774h127l-10 -223h-106z" />
    <glyph glyph-name="u038A" unicode="&#x38a;" horiz-adv-x="433" 
d="M188 0v708h172v-708h-172zM0 774h127l-10 -223h-106z" />
    <glyph glyph-name="u038C" unicode="&#x38c;" horiz-adv-x="953" 
d="M913 357q0 -84 -29 -153.5t-80.5 -119t-122.5 -76.5t-154 -27t-153.5 27t-122 76.5t-80.5 119t-29 153.5q0 85 29 153.5t80.5 116.5t122 74t153.5 26t154 -26t122.5 -74t80.5 -116.5t29 -153.5zM730 357q0 46 -15 86t-41.5 68.5t-64 45t-82.5 16.5t-82 -16.5t-64 -45
t-41.5 -68.5t-14.5 -86q0 -48 15 -88.5t41.5 -69.5t63.5 -45.5t82 -16.5t82 16.5t64 45.5t42 69.5t15 88.5zM0 774h127l-10 -223h-106z" />
    <glyph glyph-name="u038E" unicode="&#x38e;" horiz-adv-x="862" 
d="M610 300v-300h-171v300l-266 408h207l151 -262l151 262h200zM0 774h127l-10 -223h-106z" />
    <glyph glyph-name="u038F" unicode="&#x38f;" horiz-adv-x="909" 
d="M552 0v196q67 22 105.5 67t38.5 128q0 89 -48.5 137.5t-136.5 48.5q-44 0 -80 -12.5t-62 -36.5t-40.5 -58.5t-14.5 -78.5q0 -42 12.5 -76t34 -58.5t49.5 -40t59 -19.5v-197h-313v125h179v7q-33 5 -69 26.5t-66 56.5t-49.5 82t-19.5 103q0 75 29.5 136.5t81.5 104.5
t121.5 66.5t149.5 23.5q78 0 145 -25t116 -69t77 -104.5t28 -132.5q0 -56 -21.5 -102.5t-53 -82t-67.5 -57t-64 -26.5v-7h191v-125h-312zM-1 707h127l-10 -223h-106z" />
    <glyph glyph-name="u0390" unicode="&#x390;" horiz-adv-x="496" 
d="M164 0v498h164v-498h-164zM20 633q0 24 18 43.5t45 19.5t45 -19.5t18 -43.5t-18 -43.5t-45 -19.5t-45 19.5t-18 43.5zM350 633q0 24 18 43.5t45 19.5t45 -19.5t18 -43.5t-18 -43.5t-45 -19.5t-45 19.5t-18 43.5zM197 795h107l-10 -223h-86z" />
    <glyph glyph-name="u0391" unicode="&#x391;" horiz-adv-x="729" 
d="M553 0l-55 139h-274l-52 -139h-186l297 708h166l294 -708h-190zM363 519l-90 -243h178z" />
    <glyph glyph-name="u0392" unicode="&#x392;" horiz-adv-x="665" 
d="M625 206q0 -58 -23 -97.5t-61 -63.5t-86.5 -34.5t-99.5 -10.5h-282v708h282q41 0 84 -8.5t78 -29t57 -55.5t22 -89q0 -59 -32 -97.5t-84 -55.5v-2q30 -5 56.5 -18.5t46 -34.5t31 -49t11.5 -63zM431 503q0 36 -27.5 52.5t-81.5 16.5h-84v-146h92q48 0 74.5 19.5t26.5 57.5
zM454 222q0 44 -33 61t-88 17h-95v-162h96q20 0 41.5 3.5t39 12.5t28.5 25.5t11 42.5z" />
    <glyph glyph-name="u0393" unicode="&#x393;" horiz-adv-x="524" 
d="M519 708v-149h-274v-559h-172v708h446z" />
    <glyph glyph-name="u0394" unicode="&#x394;" horiz-adv-x="790" 
d="M48 0v147l265 561h166l263 -559v-149h-694zM392 524l-174 -379h345z" />
    <glyph glyph-name="u0395" unicode="&#x395;" horiz-adv-x="607" 
d="M73 0v708h476v-145h-311v-133h294v-137h-294v-147h329v-146h-494z" />
    <glyph glyph-name="u0396" unicode="&#x396;" horiz-adv-x="635" 
d="M39 0v148l337 415h-329v145h543v-137l-345 -423h352v-148h-558z" />
    <glyph glyph-name="u0397" unicode="&#x397;" horiz-adv-x="764" 
d="M520 0v296h-276v-296h-171v708h171v-268h276v268h171v-708h-171z" />
    <glyph glyph-name="u0398" unicode="&#x398;" horiz-adv-x="851" 
d="M811 357q0 -84 -29 -153.5t-80.5 -119t-122.5 -76.5t-154 -27t-153.5 27t-122 76.5t-80.5 119t-29 153.5q0 85 29 153.5t80.5 116.5t122 74t153.5 26t154 -26t122.5 -74t80.5 -116.5t29 -153.5zM425 137q76 0 128.5 45t68.5 119h-394q16 -74 68.5 -119t128.5 -45z
M425 573q-75 0 -126.5 -43t-68.5 -112h390q-17 69 -68.5 112t-126.5 43z" />
    <glyph glyph-name="u0399" unicode="&#x399;" horiz-adv-x="318" 
d="M73 0v708h172v-708h-172z" />
    <glyph glyph-name="u039A" unicode="&#x39a;" horiz-adv-x="711" 
d="M506 0l-263 326h-2v-326h-168v708h168v-288h3l253 288h214l-305 -326l323 -382h-223z" />
    <glyph glyph-name="u039B" unicode="&#x39b;" horiz-adv-x="729" 
d="M182 0h-183l275 708h175l281 -708h-187l-180 472z" />
    <glyph glyph-name="u039C" unicode="&#x39c;" horiz-adv-x="955" 
d="M715 0l4 501h-3l-184 -501h-120l-179 501h-3l4 -501h-161v708h243l161 -454h4l154 454h247v-708h-167z" />
    <glyph glyph-name="u039D" unicode="&#x39d;" horiz-adv-x="790" 
d="M523 0l-285 463h-3l4 -463h-166v708h195l284 -462h3l-4 462h166v-708h-194z" />
    <glyph glyph-name="u039E" unicode="&#x39e;" horiz-adv-x="594" 
d="M552 708v-144h-512v144h512zM503 423v-130h-417v130h417zM554 144v-144h-514v144h514z" />
    <glyph glyph-name="u039F" unicode="&#x39f;" horiz-adv-x="851" 
d="M811 357q0 -84 -29 -153.5t-80.5 -119t-122.5 -76.5t-154 -27t-153.5 27t-122 76.5t-80.5 119t-29 153.5q0 85 29 153.5t80.5 116.5t122 74t153.5 26t154 -26t122.5 -74t80.5 -116.5t29 -153.5zM628 357q0 46 -15 86t-41.5 68.5t-64 45t-82.5 16.5t-82 -16.5t-64 -45
t-41.5 -68.5t-14.5 -86q0 -48 15 -88.5t41.5 -69.5t63.5 -45.5t82 -16.5t82 16.5t64 45.5t42 69.5t15 88.5z" />
    <glyph glyph-name="u03A0" unicode="&#x3a0;" horiz-adv-x="746" 
d="M673 708v-708h-170v564h-260v-564h-170v708h600z" />
    <glyph glyph-name="u03A1" unicode="&#x3a1;" horiz-adv-x="640" 
d="M610 490q0 -62 -23 -104.5t-62 -68.5t-90 -38t-106 -12h-85v-267h-171v708h260q58 0 108.5 -11.5t88 -37t59 -67t21.5 -102.5zM439 489q0 25 -10 41t-27 25t-38.5 12t-44.5 3h-75v-167h72q24 0 46 4t39.5 14t27.5 26.5t10 41.5z" />
    <glyph glyph-name="u03A3" unicode="&#x3a3;" horiz-adv-x="614" 
d="M60 0v120l226 233v6l-226 228v121h509v-139h-298l216 -204v-15l-196 -211h283v-139h-514z" />
    <glyph glyph-name="u03A4" unicode="&#x3a4;" horiz-adv-x="581" 
d="M376 562v-562h-171v562h-200v146h571v-146h-200z" />
    <glyph glyph-name="u03A5" unicode="&#x3a5;" horiz-adv-x="669" 
d="M417 300v-300h-171v300l-266 408h207l151 -262l151 262h200z" />
    <glyph glyph-name="u03A6" unicode="&#x3a6;" horiz-adv-x="950" 
d="M556 710q77 -11 142 -40.5t112 -76t73.5 -107t26.5 -132.5t-26.5 -133t-73.5 -107.5t-112 -77t-142 -40.5v-67h-160v67q-78 10 -143 40t-112.5 76.5t-74 108t-26.5 133.5t26.5 133t74 107t112.5 76t143 40v62h160v-62zM223 354q0 -74 43 -128.5t130 -72.5v401
q-44 -9 -76 -27.5t-54 -44.5t-32.5 -58.5t-10.5 -69.5zM727 354q0 73 -42.5 127t-128.5 73v-400q86 18 128.5 72.5t42.5 127.5z" />
    <glyph glyph-name="u03A7" unicode="&#x3a7;" horiz-adv-x="703" 
d="M500 0l-155 250l-149 -250h-204l248 374l-228 334h206l132 -220l130 220h199l-224 -334l256 -374h-211z" />
    <glyph glyph-name="u03A8" unicode="&#x3a8;" horiz-adv-x="888" 
d="M529 269h15q31 0 53.5 10.5t36.5 29t20.5 43.5t6.5 54v302h170v-336q0 -64 -22.5 -112t-60.5 -80t-89.5 -48t-109.5 -16h-20v-116h-170v116h-20q-58 0 -109 16t-89.5 48t-61 80t-22.5 112v336h170v-302q0 -29 6.5 -54t20.5 -43.5t36 -29t54 -10.5h15v439h170v-439z" />
    <glyph glyph-name="u03A9" unicode="&#x3a9;" horiz-adv-x="808" 
d="M451 0v196q67 22 105.5 67t38.5 128q0 89 -48.5 137.5t-136.5 48.5q-44 0 -80 -12.5t-62 -36.5t-40.5 -58.5t-14.5 -78.5q0 -42 12.5 -76t34 -58.5t49.5 -40t59 -19.5v-197h-313v125h179v7q-33 5 -69 26.5t-66 56.5t-49.5 82t-19.5 103q0 75 29.5 136.5t81.5 104.5
t121.5 66.5t149.5 23.5q78 0 145 -25t116 -69t77 -104.5t28 -132.5q0 -56 -21.5 -102.5t-53 -82t-67.5 -57t-64 -26.5v-7h191v-125h-312z" />
    <glyph glyph-name="u03AA" unicode="&#x3aa;" horiz-adv-x="318" 
d="M73 0v708h172v-708h-172zM351 850q0 -35 -24.5 -58.5t-58.5 -23.5q-35 0 -59 24t-24 58q0 16 6.5 30.5t17.5 26t26 18t33 6.5q34 0 58.5 -23.5t24.5 -57.5zM134 850q0 -35 -24.5 -58.5t-59.5 -23.5t-59 24t-24 58q0 16 6.5 30.5t17.5 26t26.5 18t32.5 6.5
q35 0 59.5 -23.5t24.5 -57.5z" />
    <glyph glyph-name="u03AB" unicode="&#x3ab;" horiz-adv-x="669" 
d="M417 300v-300h-171v300l-266 408h207l151 -262l151 262h200zM530 850q0 -35 -24.5 -58.5t-58.5 -23.5q-35 0 -59 24t-24 58q0 16 6.5 30.5t17.5 26t26 18t33 6.5q34 0 58.5 -23.5t24.5 -57.5zM313 850q0 -35 -24.5 -58.5t-59.5 -23.5t-59 24t-24 58q0 16 6.5 30.5
t17.5 26t26.5 18t32.5 6.5q35 0 59.5 -23.5t24.5 -57.5z" />
    <glyph glyph-name="u03AC" unicode="&#x3ac;" horiz-adv-x="644" 
d="M433 65q-24 -38 -68.5 -58.5t-94.5 -20.5q-56 0 -100 22t-74.5 58.5t-46.5 84.5t-16 100t16.5 99.5t47 83.5t74 57t97.5 21q55 0 93 -21t59 -46h2v55h164v-500h-151v65h-2zM191 251q0 -24 7.5 -47.5t22.5 -41.5t37 -29t51 -11q28 0 50 11t37.5 29t24 41t8.5 47t-8.5 47
t-24 41t-37.5 29t-50 11q-29 0 -51 -11t-37 -28.5t-22.5 -40.5t-7.5 -47zM266 774h127l-10 -223h-106z" />
    <glyph glyph-name="u03AD" unicode="&#x3ad;" horiz-adv-x="569" 
d="M441 338q-14 11 -34 21q-17 8 -43.5 14.5t-61.5 6.5q-42 0 -68 -9.5t-26 -26.5q0 -12 10.5 -20t27 -12.5t37.5 -6t42 -1.5h73v-111h-73q-55 0 -88.5 -7.5t-33.5 -29.5q0 -12 9.5 -19t24.5 -10.5t32.5 -4.5t33.5 -1q42 0 71 5.5t48 13.5q21 9 35 20l79 -98
q-9 -10 -27.5 -23.5t-48.5 -25.5t-71.5 -20.5t-96.5 -8.5q-49 0 -94.5 8t-80.5 25.5t-56 45.5t-21 68q0 30 12 52t29.5 37t37 22.5t34.5 9.5v3q-15 5 -32 14t-31.5 22.5t-24.5 32.5t-10 44q0 35 18.5 62t51.5 45t78 27.5t98 9.5q95 0 149 -25.5t76 -58.5zM344 774l-10 -223
h-106l-11 223h127z" />
    <glyph glyph-name="u03AE" unicode="&#x3ae;" horiz-adv-x="619" 
d="M223 498v-69h2q9 16 24 31.5t35 26.5t43.5 18t49.5 7q50 0 85.5 -18t58 -46.5t32.5 -65.5t10 -74v-548h-163v512q0 21 -4 40t-13.5 33.5t-25 23t-37.5 8.5q-44 0 -67.5 -32t-23.5 -75v-270h-165v498h159zM241 774h127l-10 -223h-106z" />
    <glyph glyph-name="u03AF" unicode="&#x3af;" horiz-adv-x="272" 
d="M54 0v498h164v-498h-164zM73 841h127l-10 -223h-106z" />
    <glyph glyph-name="u03B0" unicode="&#x3b0;" horiz-adv-x="615" 
d="M306 -15q-70 0 -117.5 18.5t-76 48.5t-40.5 68.5t-12 78.5v299h164v-263q0 -24 3.5 -44.5t13 -35.5t25.5 -23.5t41 -8.5q50 0 68 31.5t18 80.5v263h164v-299q0 -40 -13 -78.5t-42.5 -68.5t-77.5 -48.5t-118 -18.5zM75 613q0 24 18 43.5t45 19.5t45 -19.5t18 -43.5
t-18 -43.5t-45 -19.5t-45 19.5t-18 43.5zM405 613q0 24 18 43.5t45 19.5t45 -19.5t18 -43.5t-18 -43.5t-45 -19.5t-45 19.5t-18 43.5zM252 775h107l-10 -223h-86z" />
    <glyph glyph-name="u03B1" unicode="&#x3b1;" horiz-adv-x="644" 
d="M433 65q-24 -38 -68.5 -58.5t-94.5 -20.5q-56 0 -100 22t-74.5 58.5t-46.5 84.5t-16 100t16.5 99.5t47 83.5t74 57t97.5 21q55 0 93 -21t59 -46h2v55h164v-500h-151v65h-2zM191 251q0 -24 7.5 -47.5t22.5 -41.5t37 -29t51 -11q28 0 50 11t37.5 29t24 41t8.5 47t-8.5 47
t-24 41t-37.5 29t-50 11q-29 0 -51 -11t-37 -28.5t-22.5 -40.5t-7.5 -47z" />
    <glyph glyph-name="u03B2" unicode="&#x3b2;" horiz-adv-x="663" 
d="M224 85v-325h-164v776q0 54 18.5 95.5t52.5 70t81 43t104 14.5q51 0 96 -12.5t78.5 -37t53 -60.5t19.5 -82q0 -33 -10 -61.5t-26 -49.5t-37 -34.5t-42 -16.5v-3q24 -1 54.5 -11.5t57.5 -32.5t45 -57t18 -86q0 -52 -17.5 -93.5t-48.5 -71t-73 -45t-91 -15.5
q-51 0 -84 14.5t-52 32.5q-22 21 -33 48zM224 519v-218q0 -27 3 -51q7 -59 32 -89t79 -30q46 0 77 23.5t31 73.5q0 43 -28.5 72t-92.5 29h-40v134h30q33 0 57 19.5t24 57.5q0 41 -26 60.5t-60 19.5q-35 0 -60.5 -22.5t-25.5 -78.5z" />
    <glyph glyph-name="u03B3" unicode="&#x3b3;" horiz-adv-x="620" 
d="M398 -240h-165v258l-231 480h182l132 -333l125 333h177l-220 -480v-258z" />
    <glyph glyph-name="u03B4" unicode="&#x3b4;" horiz-adv-x="634" 
d="M75 623q0 31 19.5 56.5t54 42.5t82.5 26.5t106 9.5q53 0 95.5 -7t73.5 -15q36 -10 64 -21l-32 -136q-26 12 -57 23q-26 8 -61.5 15.5t-75.5 7.5q-39 0 -54.5 -8t-15.5 -18q0 -18 23.5 -28.5t68.5 -27.5q39 -14 79.5 -39.5t73.5 -62t54 -84.5t21 -107q0 -53 -18.5 -101.5
t-53.5 -85t-86.5 -58t-117.5 -21.5q-62 0 -112.5 20t-87 55t-57 84t-20.5 106q0 61 24 106.5t57 76t66.5 45.5t52.5 15l4 8q-8 2 -19 5q-9 2 -22 6t-27 9q-16 6 -34 13.5t-33 19.5t-25 29t-10 41zM436 251q0 55 -32 91t-86 36q-55 0 -86.5 -37t-31.5 -91q0 -27 8.5 -50.5
t24 -40.5t37 -27t48.5 -10t49 10t37.5 27.5t23.5 41t8 50.5z" />
    <glyph glyph-name="u03B5" unicode="&#x3b5;" horiz-adv-x="569" 
d="M441 338q-14 11 -34 21q-17 8 -43.5 14.5t-61.5 6.5q-42 0 -68 -9.5t-26 -26.5q0 -12 10.5 -20t27 -12.5t37.5 -6t42 -1.5h73v-111h-73q-55 0 -88.5 -7.5t-33.5 -29.5q0 -12 9.5 -19t24.5 -10.5t32.5 -4.5t33.5 -1q42 0 71 5.5t48 13.5q21 9 35 20l79 -98
q-9 -10 -27.5 -23.5t-48.5 -25.5t-71.5 -20.5t-96.5 -8.5q-49 0 -94.5 8t-80.5 25.5t-56 45.5t-21 68q0 30 12 52t29.5 37t37 22.5t34.5 9.5v3q-15 5 -32 14t-31.5 22.5t-24.5 32.5t-10 44q0 35 18.5 62t51.5 45t78 27.5t98 9.5q95 0 149 -25.5t76 -58.5z" />
    <glyph glyph-name="u03B6" unicode="&#x3b6;" horiz-adv-x="541" 
d="M276 0q-40 14 -81.5 35t-76 53.5t-56 79t-21.5 111.5q0 71 21.5 126t53.5 96t71 70t75 48h-206v137h464v-106l-125 -78q-59 -38 -102 -80t-68 -90.5t-25 -109.5q0 -63 32 -104t109 -67q29 -10 61.5 -24t60 -34t45.5 -48t18 -67q0 -44 -15 -78t-37.5 -59t-49.5 -41.5
t-51 -25.5l-121 70l44 23q21 12 37 25.5t25.5 29.5t9.5 35q0 16 -7.5 26.5t-20 19t-29.5 14.5z" />
    <glyph glyph-name="u03B7" unicode="&#x3b7;" horiz-adv-x="619" 
d="M223 498v-69h2q9 16 24 31.5t35 26.5t43.5 18t49.5 7q50 0 85.5 -18t58 -46.5t32.5 -65.5t10 -74v-548h-163v512q0 21 -4 40t-13.5 33.5t-25 23t-37.5 8.5q-44 0 -67.5 -32t-23.5 -75v-270h-165v498h159z" />
    <glyph glyph-name="u03B8" unicode="&#x3b8;" horiz-adv-x="664" 
d="M332 760q68 0 121 -29.5t90 -82t56 -123.5t19 -154t-17.5 -154t-52.5 -122.5t-89 -81t-127 -29.5t-127 29t-89 81t-52.5 123t-17.5 154t19 154.5t56 123.5t90 81.5t121 29.5zM332 625q-30 0 -51.5 -14.5t-36 -40t-23 -60.5t-11.5 -77h242q-3 42 -11.5 77t-23 60.5
t-35.5 40t-50 14.5zM210 314q3 -43 11 -79t23 -61.5t36.5 -40t51.5 -14.5q29 0 50.5 14.5t36 40.5t23 61.5t11.5 78.5h-243z" />
    <glyph glyph-name="u03B9" unicode="&#x3b9;" horiz-adv-x="296" 
d="M66 0v498h164v-498h-164z" />
    <glyph glyph-name="u03BA" unicode="&#x3ba;" horiz-adv-x="613" 
d="M229 296h3l159 202h189l-192 -225l200 -273h-193l-163 239h-3v-239h-163v498h163v-202z" />
    <glyph glyph-name="u03BB" unicode="&#x3bb;" horiz-adv-x="596" 
d="M173 0h-173l214 538l-3 7q-5 13 -10.5 25.5t-14 22t-21 15t-31.5 5.5q-24 0 -44.5 -10t-28.5 -21l-19 131q14 14 49.5 29.5t88.5 15.5q43 0 72.5 -11t51 -32t37 -52t30.5 -70l225 -593h-173l-125 346h-2z" />
    <glyph glyph-name="u03BC" unicode="&#x3bc;" horiz-adv-x="651" 
d="M64 498h164v-237q0 -73 23 -103t73 -30t72.5 30t22.5 103v237h163v-395q0 -26 1.5 -51.5t3.5 -51.5h-162l-6 66h-2q-13 -41 -36 -59.5t-60 -18.5q-77 0 -96 76h-2v-304h-159v738z" />
    <glyph glyph-name="u03BD" unicode="&#x3bd;" horiz-adv-x="567" 
d="M372 0h-177l-196 498h181l105 -323h3l105 323h175z" />
    <glyph glyph-name="u03BE" unicode="&#x3be;" horiz-adv-x="532" 
d="M40 175q0 45 19 78.5t51 57t75 37.5t91 19q-45 5 -86 13.5t-72.5 24.5t-50.5 40.5t-19 62.5q0 33 13.5 54.5t35.5 34.5t50.5 20t58.5 13v5q-6 -1 -24 -1h-129v120h417v-127q-70 0 -117.5 -4t-76 -14.5t-40.5 -29t-12 -46.5q0 -49 37.5 -70t98.5 -21h108v-157h-131
q-65 0 -95.5 -25t-30.5 -57q0 -47 28 -68t85 -31q60 -11 97 -28t57 -37.5t27 -42.5t7 -43q0 -43 -15.5 -75.5t-39 -56.5t-52.5 -40t-56 -25l-134 52q13 5 34 14t40.5 22t33.5 30t14 38v14q0 11 -11 23.5t-38 26t-81 23.5q-18 3 -46.5 11.5t-55.5 28t-46 52t-19 84.5z" />
    <glyph glyph-name="u03BF" unicode="&#x3bf;" horiz-adv-x="633" 
d="M593 251q0 -61 -22 -110.5t-60 -84t-88 -53.5t-107 -19q-56 0 -106.5 19t-88 53.5t-59.5 84t-22 110.5t22 110t59.5 83t88 52t106.5 18q57 0 107 -18t88 -52t60 -83t22 -110zM435 251q0 24 -8 47t-23 40.5t-37 28.5t-51 11t-51 -11t-36.5 -28.5t-22 -40.5t-7.5 -47
t7.5 -47t22.5 -41.5t37 -29.5t51 -11t51 11t37 29.5t22.5 41.5t7.5 47z" />
    <glyph glyph-name="u03C0" unicode="&#x3c0;" horiz-adv-x="623" 
d="M228 0h-164v498h495v-498h-164v371h-167v-371z" />
    <glyph glyph-name="u03C1" unicode="&#x3c1;" horiz-adv-x="655" 
d="M222 -240h-158v474q0 64 20 116t57 88.5t89.5 56t117.5 19.5q55 0 103.5 -19.5t85 -54.5t58 -84.5t21.5 -109.5t-21.5 -108t-58 -82t-85 -52t-103.5 -18q-43 0 -74.5 10.5t-48.5 21.5h-3v-258zM460 249q0 56 -30 92t-89 36q-27 0 -49.5 -9.5t-38 -26.5t-24.5 -40.5
t-9 -51.5q0 -59 34.5 -94t87.5 -35q59 0 88.5 37.5t29.5 91.5z" />
    <glyph glyph-name="u03C2" unicode="&#x3c2;" horiz-adv-x="541" 
d="M321 121q30 -8 62.5 -20.5t59.5 -32.5t45 -49.5t18 -70.5q0 -44 -15 -78t-37.5 -59t-49.5 -41.5t-51 -25.5l-121 70l44 23q21 12 37 25.5t25.5 29.5t9.5 35t-8.5 31.5t-21.5 20t-28 11.5l-27 7q-27 6 -65 18t-73 38.5t-60 71.5t-25 116q0 67 23.5 118t62 85.5t88 52
t101.5 17.5q28 0 58 -5t58 -15t51.5 -25t38.5 -35l-93 -110q-14 22 -42 38t-67 16q-25 0 -47 -7.5t-38.5 -23t-26 -39.5t-9.5 -56q0 -35 10.5 -57.5t28 -37t39.5 -22.5t45 -14z" />
    <glyph glyph-name="u03C3" unicode="&#x3c3;" horiz-adv-x="657" 
d="M546 369v-4q9 -15 17 -34q6 -17 11.5 -39.5t5.5 -48.5q0 -55 -20 -102.5t-56 -82.5t-86 -55t-109 -20t-108.5 20t-85 56t-55.5 84.5t-20 105.5t20 106t55.5 85t85 56t108.5 20q28 0 47.5 -2t39 -5t41.5 -5t54 -2h164v-133h-109zM430 249q0 27 -8.5 50.5t-24.5 41
t-38 27.5t-50 10t-50.5 -10t-38 -27.5t-24 -41t-8.5 -50.5t8.5 -50t24 -40.5t38 -27.5t50.5 -10t50 10t38 27.5t24.5 40.5t8.5 50z" />
    <glyph glyph-name="u03C4" unicode="&#x3c4;" horiz-adv-x="465" 
d="M2 498h461v-127h-149v-371h-164v371h-148v127z" />
    <glyph glyph-name="u03C5" unicode="&#x3c5;" horiz-adv-x="615" 
d="M305 -15q-70 0 -117.5 18.5t-76 48.5t-40.5 68.5t-12 78.5v299h164v-263q0 -24 3.5 -44.5t13 -35.5t25.5 -23.5t41 -8.5q50 0 68 31.5t18 80.5v263h164v-299q0 -40 -13 -78.5t-42.5 -68.5t-77.5 -48.5t-118 -18.5z" />
    <glyph glyph-name="u03C6" unicode="&#x3c6;" horiz-adv-x="854" 
d="M40 247q0 58 17 102t44.5 75.5t63 52t72.5 32.5l74 -115q-47 -14 -80 -49.5t-33 -90.5q0 -66 46 -96t118 -32v373h180q55 0 104 -16t86.5 -47.5t59.5 -78t22 -108.5q0 -68 -26.5 -117t-69.5 -81t-97.5 -47.5t-110.5 -15.5v-228h-148v228q-66 1 -125 15t-102.5 45t-69 80
t-25.5 119zM655 245q0 31 -10.5 54t-27.5 37.5t-38 21t-43 5.5h-26v-237q78 1 111.5 34t33.5 85z" />
    <glyph glyph-name="u03C7" unicode="&#x3c7;" horiz-adv-x="614" 
d="M192 498l117 -227l116 227h174l-185 -347l205 -390h-177l-135 273l-135 -273h-177l204 392l-184 345h177z" />
    <glyph glyph-name="u03C8" unicode="&#x3c8;" horiz-adv-x="864" 
d="M514 124q36 4 60 15.5t39 33.5t21 55t6 80v190h164v-244q0 -73 -24.5 -125.5t-65 -86.5t-93 -50t-107.5 -17v-215h-164v215q-56 1 -108 17t-92.5 50t-65 86.5t-24.5 125.5v244h164v-190q0 -47 6 -80t21 -55t39 -33.5t60 -15.5v374h164v-374z" />
    <glyph glyph-name="u03C9" unicode="&#x3c9;" horiz-adv-x="818" 
d="M313 417q-31 -15 -52.5 -30.5t-35 -34.5t-20 -43.5t-6.5 -58.5q0 -66 20.5 -93.5t49.5 -27.5q13 0 23.5 5.5t18 19.5t12 39t4.5 63v89h164v-89q0 -37 3.5 -61.5t10.5 -39t17.5 -20.5t24.5 -6q32 0 52 27.5t20 93.5q0 33 -6 57t-19.5 43.5t-34.5 35.5t-52 31l106 93
q36 -17 66 -43.5t52 -62t34.5 -79.5t12.5 -96q0 -115 -52 -177t-154 -62q-59 0 -100.5 26.5t-60.5 80.5h-4q-11 -31 -28.5 -51.5t-39 -33t-46 -17.5t-49.5 -5q-97 0 -150.5 59.5t-53.5 179.5q0 58 12.5 103t34.5 78.5t52 58t66 41.5z" />
    <glyph glyph-name="u03CA" unicode="&#x3ca;" horiz-adv-x="296" 
d="M66 0v498h164v-498h-164zM342 658q0 -35 -24.5 -58.5t-58.5 -23.5q-35 0 -59 24t-24 58q0 16 6.5 30.5t17.5 26t26 18t33 6.5q34 0 58.5 -23.5t24.5 -57.5zM125 658q0 -35 -24.5 -58.5t-59.5 -23.5t-59 24t-24 58q0 16 6.5 30.5t17.5 26t26.5 18t32.5 6.5
q35 0 59.5 -23.5t24.5 -57.5z" />
    <glyph glyph-name="u03CB" unicode="&#x3cb;" horiz-adv-x="617" 
d="M550 658q0 -35 -24.5 -58.5t-58.5 -23.5q-35 0 -59 24t-24 58q0 16 6.5 30.5t17.5 26t26 18t33 6.5q34 0 58.5 -23.5t24.5 -57.5zM333 658q0 -35 -24.5 -58.5t-59.5 -23.5t-59 24t-24 58q0 16 6.5 30.5t17.5 26t26.5 18t32.5 6.5q35 0 59.5 -23.5t24.5 -57.5zM359 -15
q-70 0 -117.5 18.5t-76 48.5t-40.5 68.5t-12 78.5v299h164v-263q0 -24 3.5 -44.5t13 -35.5t25.5 -23.5t41 -8.5q50 0 68 31.5t18 80.5v263h164v-299q0 -40 -13 -78.5t-42.5 -68.5t-77.5 -48.5t-118 -18.5z" />
    <glyph glyph-name="u03CC" unicode="&#x3cc;" horiz-adv-x="633" 
d="M593 251q0 -61 -22 -110.5t-60 -84t-88 -53.5t-107 -19q-56 0 -106.5 19t-88 53.5t-59.5 84t-22 110.5t22 110t59.5 83t88 52t106.5 18q57 0 107 -18t88 -52t60 -83t22 -110zM435 251q0 24 -8 47t-23 40.5t-37 28.5t-51 11t-51 -11t-36.5 -28.5t-22 -40.5t-7.5 -47
t7.5 -47t22.5 -41.5t37 -29.5t51 -11t51 11t37 29.5t22.5 41.5t7.5 47zM250 774h127l-10 -223h-106z" />
    <glyph glyph-name="u03CD" unicode="&#x3cd;" horiz-adv-x="617" 
d="M244 774h127l-10 -223h-106zM306 -15q-70 0 -117.5 18.5t-76 48.5t-40.5 68.5t-12 78.5v299h164v-263q0 -24 3.5 -44.5t13 -35.5t25.5 -23.5t41 -8.5q50 0 68 31.5t18 80.5v263h164v-299q0 -40 -13 -78.5t-42.5 -68.5t-77.5 -48.5t-118 -18.5z" />
    <glyph glyph-name="u03CE" unicode="&#x3ce;" horiz-adv-x="818" 
d="M313 417q-31 -15 -52.5 -30.5t-35 -34.5t-20 -43.5t-6.5 -58.5q0 -66 20.5 -93.5t49.5 -27.5q13 0 23.5 5.5t18 19.5t12 39t4.5 63v89h164v-89q0 -37 3.5 -61.5t10.5 -39t17.5 -20.5t24.5 -6q32 0 52 27.5t20 93.5q0 33 -6 57t-19.5 43.5t-34.5 35.5t-52 31l106 93
q36 -17 66 -43.5t52 -62t34.5 -79.5t12.5 -96q0 -115 -52 -177t-154 -62q-59 0 -100.5 26.5t-60.5 80.5h-4q-11 -31 -28.5 -51.5t-39 -33t-46 -17.5t-49.5 -5q-97 0 -150.5 59.5t-53.5 179.5q0 58 12.5 103t34.5 78.5t52 58t66 41.5zM473 774l-10 -223h-106l-11 223h127z
" />
    <glyph glyph-name="u0401" unicode="&#x401;" horiz-adv-x="607" 
d="M73 0v708h476v-145h-311v-133h294v-137h-294v-147h329v-146h-494zM507 850q0 -35 -24.5 -58.5t-58.5 -23.5q-35 0 -59 24t-24 58q0 16 6.5 30.5t17.5 26t26 18t33 6.5q34 0 58.5 -23.5t24.5 -57.5zM290 850q0 -35 -24.5 -58.5t-59.5 -23.5t-59 24t-24 58q0 16 6.5 30.5
t17.5 26t26.5 18t32.5 6.5q35 0 59.5 -23.5t24.5 -57.5z" />
    <glyph glyph-name="u0402" unicode="&#x402;" horiz-adv-x="717" 
d="M5 564v144h535v-144h-207v-94h86q131 0 199.5 -61t68.5 -181q0 -48 -17 -89.5t-50.5 -72.5t-83 -48.5t-114.5 -17.5h-27v138h19q48 0 75 25.5t27 63.5q0 53 -28 75.5t-97 22.5h-58v-325h-170v564h-158z" />
    <glyph glyph-name="u0403" unicode="&#x403;" horiz-adv-x="557" 
d="M519 708v-149h-274v-559h-172v708h446zM477 908l-146 -144h-124l104 144h166z" />
    <glyph glyph-name="u0404" unicode="&#x404;" horiz-adv-x="696" 
d="M696 105q-40 -54 -107.5 -88.5t-163.5 -34.5q-86 0 -157 28t-121.5 77.5t-78.5 117.5t-28 149t28 149t79 117.5t122 77.5t156 28q185 0 264 -103l-109 -125q-23 35 -60 54.5t-94 19.5q-32 0 -62 -9t-55.5 -27t-45 -45.5t-29.5 -65.5h325v-133h-327q9 -42 29.5 -71.5
t47.5 -47.5t57.5 -26.5t59.5 -8.5q51 0 89.5 18.5t73.5 55.5z" />
    <glyph glyph-name="u0405" unicode="&#x405;" horiz-adv-x="591" 
d="M447 524q-22 28 -57.5 44.5t-68.5 16.5q-17 0 -34.5 -3t-31.5 -11.5t-23.5 -22t-9.5 -34.5q0 -18 7.5 -30t22 -21t34.5 -16.5t45 -15.5q36 -12 75 -26.5t71 -38.5t53 -59.5t21 -88.5q0 -61 -22.5 -105.5t-60.5 -73.5t-87 -43t-101 -14q-76 0 -147 26.5t-118 75.5l112 114
q26 -32 68.5 -53.5t84.5 -21.5q19 0 37 4t31.5 13t21.5 24t8 36q0 20 -10 34t-28.5 25.5t-46 21t-62.5 20.5q-34 11 -66.5 26t-58 38.5t-41 57t-15.5 81.5q0 59 24 101t63 69t88 39.5t99 12.5q60 0 122.5 -22t109.5 -65z" />
    <glyph glyph-name="u0406" unicode="&#x406;" horiz-adv-x="318" 
d="M73 0v708h172v-708h-172z" />
    <glyph glyph-name="u0407" unicode="&#x407;" horiz-adv-x="339" 
d="M89 0v708h172v-708h-172zM367 850q0 -35 -24.5 -58.5t-58.5 -23.5q-35 0 -59 24t-24 58q0 16 6.5 30.5t17.5 26t26 18t33 6.5q34 0 58.5 -23.5t24.5 -57.5zM150 850q0 -35 -24.5 -58.5t-59.5 -23.5t-59 24t-24 58q0 16 6.5 30.5t17.5 26t26.5 18t32.5 6.5
q35 0 59.5 -23.5t24.5 -57.5z" />
    <glyph glyph-name="u0408" unicode="&#x408;" horiz-adv-x="529" 
d="M460 242q0 -42 -9.5 -88t-35 -84.5t-71 -63.5t-117.5 -25q-90 0 -150 46.5t-80 119.5l151 51q7 -28 25.5 -45t45.5 -17q42 0 55.5 29t13.5 76v467h172v-466z" />
    <glyph glyph-name="u0409" unicode="&#x409;" horiz-adv-x="998" 
d="M169 0h-183l288 708h166l105 -258h107q69 0 129 -10.5t103.5 -36.5t68.5 -69.5t25 -109.5q0 -58 -22.5 -100t-63.5 -69.5t-100 -41t-132 -13.5h-124l-182 518zM601 310l66 -168q21 0 45.5 2t45 10.5t34 26.5t13.5 50q0 28 -12.5 43.5t-33.5 23.5t-49.5 10t-59.5 2h-49z
" />
    <glyph glyph-name="u040A" unicode="&#x40a;" horiz-adv-x="1046" 
d="M243 708v-258h232v258h170v-258h80q55 0 106 -12.5t90 -39.5t62 -70.5t23 -104.5t-21.5 -103.5t-59 -69t-88 -38.5t-108.5 -12h-254v306h-232v-306h-170v708h170zM645 306v-160h70q23 0 44.5 3t38 11.5t26.5 24t10 39.5q0 25 -10 41t-27 25t-39 12.5t-46 3.5h-67z" />
    <glyph glyph-name="u040B" unicode="&#x40b;" horiz-adv-x="731" 
d="M333 326v-326h-170v564h-158v144h535v-144h-207v-94h105q73 0 121.5 -21.5t77.5 -60.5t41.5 -93t12.5 -119v-176h-172v131q0 49 -4.5 85.5t-20 61t-45.5 36.5t-81 12h-35z" />
    <glyph glyph-name="u040C" unicode="&#x40c;" horiz-adv-x="713" 
d="M73 0v708h170v-257q14 0 27.5 -0.5t26.5 -1.5l217 259h186l-237 -299q45 -22 83 -56.5t69 -84.5t54 -116.5t39 -151.5h-186q-15 81 -37.5 140t-55.5 96.5t-79 55t-107 15.5v-307h-170zM429 764h-124l104 144h166z" />
    <glyph glyph-name="u040E" unicode="&#x40e;" horiz-adv-x="650" 
d="M217 923q15 -31 46 -50.5t64 -19.5t64 19.5t46 50.5l88 -48q-9 -23 -28.5 -43.5t-45.5 -36t-58 -24.5t-66 -9q-35 0 -66.5 9t-57.5 24.5t-45.5 36t-28.5 43.5zM-3 708l249 -552q-14 -18 -30 -25.5t-36 -7.5q-26 0 -46 15.5t-33 29.5l-106 -119l20 -21q12 -12 31.5 -22.5
t50 -18t77.5 -7.5q53 0 92 13.5t67.5 36.5t49 55t36.5 69l241 554h-183l-142 -352l-148 352h-190z" />
    <glyph glyph-name="u040F" unicode="&#x40f;" horiz-adv-x="756" 
d="M513 144v564h170v-708h-227v-139h-140v139h-243v708h170v-564h270z" />
    <glyph glyph-name="u0410" unicode="&#x410;" horiz-adv-x="729" 
d="M172 0h-186l297 708h166l294 -708h-190l-55 139h-274zM273 276h178l-88 243z" />
    <glyph glyph-name="u0411" unicode="&#x411;" horiz-adv-x="672" 
d="M73 0v708h506v-144h-336v-115h97q58 0 108.5 -12t88 -38.5t59 -68.5t21.5 -103q0 -62 -23 -105t-62 -70t-90 -39.5t-106 -12.5h-263zM323 144q24 0 46 4.5t39 14.5t27 25.5t10 37.5q0 23 -10 38.5t-26.5 24.5t-38 12.5t-44.5 3.5h-83v-161h80z" />
    <glyph glyph-name="u0412" unicode="&#x412;" horiz-adv-x="665" 
d="M625 206q0 -58 -23 -97.5t-61 -63.5t-86.5 -34.5t-99.5 -10.5h-282v708h282q41 0 84 -8.5t78 -29t57 -55.5t22 -89q0 -59 -32 -97.5t-84 -55.5v-2q30 -5 56.5 -18.5t46 -34.5t31 -49t11.5 -63zM431 503q0 36 -27.5 52.5t-81.5 16.5h-84v-146h92q48 0 74.5 19.5t26.5 57.5
zM454 222q0 44 -33 61t-88 17h-95v-162h96q20 0 41.5 3.5t39 12.5t28.5 25.5t11 42.5z" />
    <glyph glyph-name="u0413" unicode="&#x413;" horiz-adv-x="549" 
d="M519 708v-149h-274v-559h-172v708h446z" />
    <glyph glyph-name="u0414" unicode="&#x414;" horiz-adv-x="830" 
d="M135 0v-139h-140v283h122l214 564h166l212 -564h126v-283h-140v139h-560zM293 144h234l-117 372z" />
    <glyph glyph-name="u0415" unicode="&#x415;" horiz-adv-x="607" 
d="M73 0v708h476v-145h-311v-133h294v-137h-294v-147h329v-146h-494z" />
    <glyph glyph-name="u0416" unicode="&#x416;" horiz-adv-x="1010" 
d="M420 302q-52 0 -91 -27t-67 -70t-45 -97t-24 -108h-186q18 145 70 240.5t130 146.5l-202 321h186l177 -265q25 3 52 3v262h170v-262q25 0 51 -3l178 265h186l-203 -321q81 -53 132 -150t69 -237h-186q-7 55 -24 109t-45 97t-67 69.5t-91 26.5v-302h-170v302z" />
    <glyph glyph-name="u0417" unicode="&#x417;" horiz-adv-x="621" 
d="M154 423h107q68 0 94 23t26 61q0 33 -25 55t-65 22q-78 0 -98 -87l-151 49q26 81 93 130.5t167 49.5q53 0 100 -12.5t82.5 -37t56 -61.5t20.5 -86q0 -36 -13.5 -63t-33.5 -46t-44 -30.5t-46 -15.5v-2q25 -3 52.5 -13t50.5 -30t38.5 -50.5t15.5 -74.5q0 -52 -22.5 -93.5
t-60.5 -70t-90 -43.5t-110 -15q-54 0 -98 14t-77 39t-55 59.5t-33 74.5l152 47q16 -46 46.5 -69t71.5 -23q48 0 75 21t27 59q0 21 -7 39t-24.5 31.5t-47.5 21t-76 7.5h-98v120z" />
    <glyph glyph-name="u0418" unicode="&#x418;" horiz-adv-x="806" 
d="M246 236l294 472h193v-708h-170v466h-3l-295 -466h-192v708h170v-472h3z" />
    <glyph glyph-name="u0419" unicode="&#x419;" horiz-adv-x="804" 
d="M529 708h202v-708h-170l1 463h-3l-285 -463h-201v708h170l-1 -462h3zM292 923q15 -31 46 -50.5t64 -19.5t64 19.5t46 50.5l88 -48q-9 -23 -28.5 -43.5t-45.5 -36t-58 -24.5t-66 -9q-35 0 -66.5 9t-57.5 24.5t-45.5 36t-28.5 43.5z" />
    <glyph glyph-name="u041A" unicode="&#x41a;" horiz-adv-x="713" 
d="M73 0v708h170v-257q14 0 27.5 -0.5t26.5 -1.5l217 259h186l-237 -299q45 -22 83 -56.5t69 -84.5t54 -116.5t39 -151.5h-186q-15 81 -37.5 140t-55.5 96.5t-79 55t-107 15.5v-307h-170z" />
    <glyph glyph-name="u041B" unicode="&#x41b;" horiz-adv-x="703" 
d="M169 0h-183l275 708h175l281 -708h-187l-180 472z" />
    <glyph glyph-name="u041C" unicode="&#x41c;" horiz-adv-x="955" 
d="M715 0l4 501h-3l-184 -501h-120l-179 501h-3l4 -501h-161v708h243l161 -454h4l154 454h247v-708h-167z" />
    <glyph glyph-name="u041D" unicode="&#x41d;" horiz-adv-x="764" 
d="M520 0v296h-276v-296h-171v708h171v-268h276v268h171v-708h-171z" />
    <glyph glyph-name="u041E" unicode="&#x41e;" horiz-adv-x="851" 
d="M811 357q0 -84 -29 -153.5t-80.5 -119t-122.5 -76.5t-154 -27t-153.5 27t-122 76.5t-80.5 119t-29 153.5q0 85 29 153.5t80.5 116.5t122 74t153.5 26t154 -26t122.5 -74t80.5 -116.5t29 -153.5zM628 357q0 46 -15 86t-41.5 68.5t-64 45t-82.5 16.5t-82 -16.5t-64 -45
t-41.5 -68.5t-14.5 -86q0 -48 15 -88.5t41.5 -69.5t63.5 -45.5t82 -16.5t82 16.5t64 45.5t42 69.5t15 88.5z" />
    <glyph glyph-name="u041F" unicode="&#x41f;" horiz-adv-x="746" 
d="M673 708v-708h-170v564h-260v-564h-170v708h600z" />
    <glyph glyph-name="u0420" unicode="&#x420;" horiz-adv-x="640" 
d="M610 490q0 -62 -23 -104.5t-62 -68.5t-90 -38t-106 -12h-85v-267h-171v708h260q58 0 108.5 -11.5t88 -37t59 -67t21.5 -102.5zM439 489q0 25 -10 41t-27 25t-38.5 12t-44.5 3h-75v-167h72q24 0 46 4t39.5 14t27.5 26.5t10 41.5z" />
    <glyph glyph-name="u0421" unicode="&#x421;" horiz-adv-x="696" 
d="M696 98q-47 -54 -116 -85.5t-159 -31.5q-82 0 -151.5 27t-120.5 76.5t-80 118.5t-29 152q0 85 29.5 154t81.5 117.5t122 74.5t151 26q75 0 147.5 -26.5t117.5 -77.5l-116 -116q-24 33 -63 49t-80 16q-45 0 -82.5 -16.5t-64.5 -45.5t-42 -68.5t-15 -86.5q0 -48 15 -88
t41.5 -68.5t63.5 -44.5t81 -16q51 0 89 20t61 52z" />
    <glyph glyph-name="u0422" unicode="&#x422;" horiz-adv-x="581" 
d="M376 562v-562h-171v562h-200v146h571v-146h-200z" />
    <glyph glyph-name="u0423" unicode="&#x423;" horiz-adv-x="650" 
d="M187 708l148 -352l142 352h183l-241 -554q-16 -37 -36.5 -69t-49 -55t-67.5 -36.5t-92 -13.5q-47 0 -77.5 7.5t-50 18t-30.5 22.5l-21 21l106 119q13 -14 33 -29.5t46 -15.5q20 0 36 7.5t30 25.5l-249 552h190z" />
    <glyph glyph-name="u0424" unicode="&#x424;" horiz-adv-x="950" 
d="M556 710q77 -11 142 -40.5t112 -76t73.5 -107t26.5 -132.5t-26.5 -133t-73.5 -107.5t-112 -77t-142 -40.5v-67h-160v67q-78 10 -143 40t-112.5 76.5t-74 108t-26.5 133.5t26.5 133t74 107t112.5 76t143 40v62h160v-62zM223 354q0 -74 43 -128.5t130 -72.5v401
q-44 -9 -76 -27.5t-54 -44.5t-32.5 -58.5t-10.5 -69.5zM727 354q0 73 -42.5 127t-128.5 73v-400q86 18 128.5 72.5t42.5 127.5z" />
    <glyph glyph-name="u0425" unicode="&#x425;" horiz-adv-x="703" 
d="M500 0l-155 250l-149 -250h-204l248 374l-228 334h206l132 -220l130 220h199l-224 -334l256 -374h-211z" />
    <glyph glyph-name="u0426" unicode="&#x426;" horiz-adv-x="784" 
d="M73 0v708h170v-564h270v564h170v-564h76v-283h-140v139h-546z" />
    <glyph glyph-name="u0427" unicode="&#x427;" horiz-adv-x="672" 
d="M430 708h169v-708h-168v263h-128q-138 0 -200.5 73.5t-62.5 206.5v165h170v-129q0 -45 4.5 -77.5t17 -53.5t36 -31t61.5 -10h101v301z" />
    <glyph glyph-name="u0428" unicode="&#x428;" horiz-adv-x="1007" 
d="M422 144v564h170v-564h172v564h170v-708h-861v708h170v-564h179z" />
    <glyph glyph-name="u0429" unicode="&#x429;" horiz-adv-x="1081" 
d="M73 0v708h170v-564h179v564h170v-564h178v564h170v-564h116v-283h-140v139h-843z" />
    <glyph glyph-name="u042A" unicode="&#x42a;" horiz-adv-x="718" 
d="M339 708v-258h42q61 0 115.5 -10t94.5 -34.5t63.5 -65.5t23.5 -102t-23.5 -106t-64.5 -74t-95.5 -43.5t-116.5 -14.5h-209v564h-164v144h334zM339 144h55q64 0 88 24.5t24 60.5q0 35 -24 56t-88 21h-55v-162z" />
    <glyph glyph-name="u042B" unicode="&#x42b;" horiz-adv-x="871" 
d="M243 708v-258h44q61 0 115.5 -10t94.5 -34.5t63.5 -65.5t23.5 -102t-23.5 -106t-64.5 -74t-95.5 -43.5t-116.5 -14.5h-211v708h170zM243 144h57q64 0 87.5 23t23.5 61q0 17 -5.5 31t-18 24.5t-34 16.5t-53.5 6h-57v-162zM798 708v-708h-170v708h170z" />
    <glyph glyph-name="u042C" unicode="&#x42c;" horiz-adv-x="644" 
d="M243 306v-162h77q64 0 88 22.5t24 60.5t-24 58.5t-88 20.5h-77zM73 708h170v-258h64q61 0 115.5 -11t94.5 -35.5t63.5 -65t23.5 -100.5q0 -61 -23.5 -106t-64.5 -74t-95.5 -43.5t-116.5 -14.5h-231v708z" />
    <glyph glyph-name="u042D" unicode="&#x42d;" horiz-adv-x="699" 
d="M0 96l107 107q35 -37 78.5 -51t94.5 -14q29 0 60 8.5t58 26.5t48 47.5t30 71.5h-336v133h334q-10 38 -30 65.5t-46 45.5t-56.5 27t-61.5 9q-57 0 -97.5 -19.5t-63.5 -54.5l-101 115q41 53 112 83t164 30q85 0 152.5 -28t115 -77.5t72.5 -117.5t25 -149t-28 -149
t-78.5 -117.5t-121.5 -77.5t-157 -28q-96 0 -165 30t-109 84z" />
    <glyph glyph-name="u042E" unicode="&#x42e;" horiz-adv-x="1162" 
d="M243 708v-280h113q10 69 43 124t83 94t114.5 60t139.5 21q83 0 154 -26t122.5 -74t80.5 -116.5t29 -153.5q0 -84 -29 -153.5t-80.5 -119t-122.5 -76.5t-154 -27q-74 0 -138.5 21.5t-114.5 61.5t-83 96t-44 124h-113v-284h-170v708h170zM534 357q0 -48 15 -88.5
t41.5 -69.5t63.5 -45.5t82 -16.5t82 16.5t64 45.5t42 69.5t15 88.5q0 46 -15 86t-41.5 68.5t-64 45t-82.5 16.5t-82 -16.5t-64 -45t-41.5 -68.5t-14.5 -86z" />
    <glyph glyph-name="u042F" unicode="&#x42f;" horiz-adv-x="691" 
d="M200 321q-72 12 -116 54.5t-44 113.5q0 104 80.5 161.5t238.5 57.5h259v-708h-170v257h-61q-75 0 -127 -66t-69 -191h-186q4 63 22 114t44 90t59.5 67.5t69.5 47.5v2zM448 564h-74q-80 0 -115.5 -21t-35.5 -63q0 -16 7.5 -30.5t25 -25t47 -17t73.5 -6.5h72v163z" />
    <glyph glyph-name="u0430" unicode="&#x430;" 
d="M358 217h-21q-27 0 -54.5 -2.5t-49 -9.5t-35.5 -20.5t-14 -35.5q0 -14 6.5 -24t16.5 -16t23 -8.5t25 -2.5q50 0 76.5 27.5t26.5 74.5v17zM57 430q44 42 102.5 63t119.5 21q63 0 106.5 -15.5t70.5 -48t39.5 -82t12.5 -117.5v-251h-150v53h-3q-19 -31 -57.5 -48t-83.5 -17
q-30 0 -62 8t-58.5 26t-43.5 48t-17 74q0 54 29.5 87t76 51t103.5 24t111 6v8q0 37 -26 54.5t-64 17.5q-35 0 -67.5 -15t-55.5 -36z" />
    <glyph glyph-name="u0431" unicode="&#x431;" horiz-adv-x="628" 
d="M434 242q0 53 -31 88t-82 35t-84.5 -30t-33.5 -92q0 -57 32 -90.5t84 -33.5t83.5 35t31.5 88zM339 498q52 0 97.5 -17.5t79 -50t53 -79.5t19.5 -106t-20.5 -107.5t-57 -82.5t-87.5 -52.5t-111 -18.5q-46 0 -88 13.5t-75.5 40.5t-58 68t-36.5 95q-9 43 -9 96q0 112 22 190
t66 127t110.5 71t156.5 22h162v-123h-164q-75 0 -120 -27.5t-54 -84.5q25 17 57 21.5t58 4.5z" />
    <glyph glyph-name="u0432" unicode="&#x432;" horiz-adv-x="582" 
d="M352 0h-288v498h275q95 0 146.5 -36.5t51.5 -97.5q0 -28 -9 -46.5t-24 -31t-35.5 -20t-42.5 -13.5q27 -2 52 -9.5t43.5 -21.5t29.5 -36t11 -53q0 -60 -56 -96.5t-154 -36.5zM228 112h62q20 0 39.5 0.5t34.5 4.5t24 13t9 26t-9 27t-24 14.5t-34 5.5t-39 1h-63v-92z
M294 299q16 0 30.5 1.5t26 6t18 13t6.5 22.5q0 28 -25 36t-58 8h-64v-87h66z" />
    <glyph glyph-name="u0433" unicode="&#x433;" horiz-adv-x="434" 
d="M228 0h-164v498h350v-126h-186v-372z" />
    <glyph glyph-name="u0434" unicode="&#x434;" horiz-adv-x="650" 
d="M139 -139h-134v266h82l140 371h200l132 -371h86v-266h-134v139h-372v-139zM257 127h138l-57 188h-20z" />
    <glyph glyph-name="u0435" unicode="&#x435;" horiz-adv-x="596" 
d="M407 306q0 39 -24.5 67t-73.5 28q-24 0 -44 -7.5t-35 -20.5t-24 -30.5t-10 -36.5h211zM558 243v-20q0 -10 -1 -19h-361q2 -21 12.5 -38t27 -29.5t37 -19.5t42.5 -7q39 0 66 14.5t44 37.5l114 -72q-35 -51 -92.5 -78.5t-133.5 -27.5q-56 0 -106 17.5t-87.5 51t-59 82.5
t-21.5 112q0 61 21 110.5t57 84t85 53.5t106 19q55 0 101 -18.5t79 -53.5t51.5 -85t18.5 -114z" />
    <glyph glyph-name="u0436" unicode="&#x436;" horiz-adv-x="894" 
d="M365 196q-29 -5 -53 -17t-44 -34.5t-35.5 -58t-26.5 -86.5h-181q20 82 61 146t101 107l-147 245h181l100 -184q11 3 22 4.5t22 3.5v176h164v-176q11 -2 21.5 -3.5t21.5 -4.5l101 184h181l-147 -245q60 -43 101 -107t61 -146h-181q-11 51 -27 86.5t-36 58t-44 34.5t-52 17
v-196h-164v196z" />
    <glyph glyph-name="u0437" unicode="&#x437;" horiz-adv-x="496" 
d="M97 338l-93 70q9 17 25.5 36t43 35.5t64.5 27t90 10.5q107 0 166.5 -37t59.5 -105q0 -27 -8.5 -47t-22 -34t-29 -23.5t-30.5 -15.5v-3q15 -2 35 -10.5t37 -24t29 -38t12 -52.5q0 -41 -19 -69.5t-52.5 -45.5t-79 -24.5t-97.5 -7.5q-47 0 -83.5 8.5t-64 20t-46 24
t-29.5 21.5l71 98q9 -7 24 -15.5t33.5 -15.5t40 -12t42.5 -5q45 0 72 11.5t27 37.5q0 14 -10 23.5t-26.5 15t-36.5 7.5t-41 2h-82v102h82q21 0 39.5 1.5t32 5.5t21 11.5t7.5 20.5q0 23 -25 40t-73 17q-29 0 -49 -10t-33 -21q-15 -13 -24 -30z" />
    <glyph glyph-name="u0438" unicode="&#x438;" horiz-adv-x="675" 
d="M447 288l-219 -288h-164v498h164v-286l219 286h164v-498h-164v288z" />
    <glyph glyph-name="u0439" unicode="&#x439;" horiz-adv-x="675" 
d="M447 0h164v498h-164l-219 -286v286h-164v-498h164l219 288v-288zM297 711q5 -25 21 -38t37 -13t37 13.5t21 37.5l110 -19q-18 -66 -61.5 -98t-106.5 -32q-67 0 -110 34t-58 96z" />
    <glyph glyph-name="u043A" unicode="&#x43a;" horiz-adv-x="593" 
d="M228 317q22 -1 43 -6l114 187h181l-157 -241q63 -42 100 -107t59 -150h-181q-11 52 -26 87t-34.5 56.5t-44 32.5t-54.5 15v-191h-164v498h164v-181z" />
    <glyph glyph-name="u043B" unicode="&#x43b;" horiz-adv-x="591" 
d="M405 0l-105 303l-113 -303h-177l193 498h196l183 -498h-177z" />
    <glyph glyph-name="u043C" unicode="&#x43c;" horiz-adv-x="743" 
d="M208 498l165 -201l162 201h144v-498h-164v271l-129 -176h-28l-130 174v-269h-164v498h144z" />
    <glyph glyph-name="u043D" unicode="&#x43d;" horiz-adv-x="623" 
d="M228 0h-164v498h164v-184h167v184h164v-498h-164v188h-167v-188z" />
    <glyph glyph-name="u043E" unicode="&#x43e;" horiz-adv-x="633" 
d="M593 251q0 -61 -22 -110.5t-60 -84t-88 -53.5t-107 -19q-56 0 -106.5 19t-88 53.5t-59.5 84t-22 110.5t22 110t59.5 83t88 52t106.5 18q57 0 107 -18t88 -52t60 -83t22 -110zM435 251q0 24 -8 47t-23 40.5t-37 28.5t-51 11t-51 -11t-36.5 -28.5t-22 -40.5t-7.5 -47
t7.5 -47t22.5 -41.5t37 -29.5t51 -11t51 11t37 29.5t22.5 41.5t7.5 47z" />
    <glyph glyph-name="u043F" unicode="&#x43f;" horiz-adv-x="615" 
d="M228 0h-164v498h487v-498h-164v371h-159v-371z" />
    <glyph glyph-name="u0440" unicode="&#x440;" horiz-adv-x="657" 
d="M618 251q0 -52 -16 -100t-46.5 -84.5t-74.5 -58.5t-100 -22q-46 0 -87 18.5t-64 50.5h-2v-295h-164v738h156v-61h3q23 30 63.5 52.5t95.5 22.5q54 0 98 -21t74.5 -57t47 -83.5t16.5 -99.5zM459 251q0 24 -7.5 47t-22 40.5t-36.5 28.5t-51 11q-28 0 -50 -11t-37.5 -29
t-24 -41t-8.5 -47t8.5 -47t24 -41t37.5 -29t50 -11q29 0 51 11t36.5 29t22 41.5t7.5 47.5z" />
    <glyph glyph-name="u0441" unicode="&#x441;" horiz-adv-x="503" 
d="M407 337q-14 18 -38 29t-49 11q-26 0 -47 -10.5t-36 -28t-23.5 -40.5t-8.5 -49t8 -49t23.5 -40.5t37 -27.5t48.5 -10q25 0 49.5 9.5t39.5 27.5l91 -111q-31 -30 -80 -47t-104 -17q-59 0 -110 18t-88.5 52.5t-59 83.5t-21.5 111q0 61 21.5 110t59 83.5t88.5 53t109 18.5
q27 0 53.5 -5t51 -13.5t45 -21t35.5 -27.5z" />
    <glyph glyph-name="u0442" unicode="&#x442;" horiz-adv-x="481" 
d="M20 498h441v-127h-139v-371h-164v371h-138v127z" />
    <glyph glyph-name="u0443" unicode="&#x443;" horiz-adv-x="567" 
d="M345 -75q-15 -39 -33.5 -69.5t-44 -52t-60 -32.5t-81.5 -11q-23 0 -47.5 3t-42.5 8l18 138q12 -4 26.5 -6.5t26.5 -2.5q38 0 55 17.5t29 49.5l16 41l-208 490h182l111 -320h3l99 320h174z" />
    <glyph glyph-name="u0444" unicode="&#x444;" horiz-adv-x="748" 
d="M451 509q56 -1 103.5 -21.5t81.5 -55.5t53 -82t19 -102t-19 -102t-53 -82t-81 -55t-104 -21v-228h-155v228q-55 1 -101.5 21.5t-81 55t-54 81.5t-19.5 102t19 102t53 82t81 55t103 22v247h155v-247zM556 248q0 54 -23.5 91.5t-81.5 41.5v-266q58 4 81.5 40.5t23.5 92.5z
M192 248q0 -56 23.5 -92.5t80.5 -40.5v266q-57 -3 -80.5 -40t-23.5 -93z" />
    <glyph glyph-name="u0445" unicode="&#x445;" horiz-adv-x="594" 
d="M404 0l-107 153l-110 -153h-190l199 261l-180 237h191l93 -133l94 133h185l-179 -237l197 -261h-193z" />
    <glyph glyph-name="u0446" unicode="&#x446;" horiz-adv-x="636" 
d="M64 498h164v-371h161v371h164v-371h78v-266h-134v139h-433v498z" />
    <glyph glyph-name="u0447" unicode="&#x447;" horiz-adv-x="605" 
d="M41 498h164v-67q0 -43 2.5 -74t11.5 -51t25.5 -29.5t45.5 -9.5h87v231h164v-498h-164v121l-111 1q-65 1 -108.5 17.5t-69.5 47.5t-36.5 75.5t-10.5 100.5v135z" />
    <glyph glyph-name="u0448" unicode="&#x448;" horiz-adv-x="885" 
d="M64 0v498h164v-371h132v371h164v-371h133v371h164v-498h-757z" />
    <glyph glyph-name="u0449" unicode="&#x449;" horiz-adv-x="868" 
d="M64 498h164v-371h114v371h163v-371h114v371h164v-371h80v-266h-134v139h-665v498z" />
    <glyph glyph-name="u044A" unicode="&#x44a;" horiz-adv-x="639" 
d="M303 498v-151h107q56 0 95 -13t63 -36.5t35 -55t11 -67.5q0 -37 -13 -69t-38 -55.5t-62.5 -37t-86.5 -13.5h-275v371h-119v127h283zM303 115h76q34 0 55.5 12.5t21.5 46.5t-22.5 46t-56.5 12h-74v-117z" />
    <glyph glyph-name="u044B" unicode="&#x44b;" horiz-adv-x="814" 
d="M228 498v-151h111q56 0 95 -13t63 -36.5t35 -55t11 -67.5q0 -37 -13 -69t-38 -55.5t-62.5 -37t-86.5 -13.5h-279v498h164zM228 115h80q34 0 55.5 12.5t21.5 46.5t-22.5 46t-56.5 12h-78v-117zM750 498v-498h-164v498h164z" />
    <glyph glyph-name="u044C" unicode="&#x44c;" horiz-adv-x="568" 
d="M228 498v-151h111q56 0 95 -13t63 -36.5t35 -55t11 -67.5q0 -37 -13 -69t-38 -55.5t-62.5 -37t-86.5 -13.5h-279v498h164zM228 115h80q34 0 55.5 12.5t21.5 46.5t-22.5 46t-56.5 12h-78v-117z" />
    <glyph glyph-name="u044D" unicode="&#x44d;" horiz-adv-x="563" 
d="M140 320l-105 90q29 43 82 74t136 31q64 0 114.5 -20t85 -55.5t52.5 -84.5t18 -106t-20 -105.5t-56 -84t-86 -55.5t-110 -20q-66 0 -121.5 25t-99.5 82l108 87q14 -24 43 -42.5t69 -18.5q50 0 76 20.5t37 65.5h-191v99h191q-12 39 -40 60t-73 21q-44 0 -70 -18.5
t-40 -44.5z" />
    <glyph glyph-name="u044E" unicode="&#x44e;" horiz-adv-x="875" 
d="M835 251q0 -61 -22 -110.5t-60 -84t-88 -53.5t-107 -19q-50 0 -95.5 15t-81.5 42.5t-61 67t-34 89.5h-58v-198h-164v498h164v-173h63q12 44 37.5 79t60.5 59.5t78.5 37.5t90.5 13q57 0 107 -18t88 -52t60 -83t22 -110zM677 251q0 24 -8 47t-23 40.5t-37 28.5t-51 11
t-51 -11t-36.5 -28.5t-22 -40.5t-7.5 -47t7.5 -47t22.5 -41.5t37 -29.5t51 -11t51 11t37 29.5t22.5 41.5t7.5 47z" />
    <glyph glyph-name="u044F" unicode="&#x44f;" horiz-adv-x="530" 
d="M297 149q-21 0 -39.5 -4t-33 -19t-25.5 -45t-18 -81h-181q10 54 27.5 92t38.5 63.5t43 38.5t41 18v3q-24 3 -45.5 11.5t-37.5 25.5t-25 44t-9 67q0 43 19 70t48 41t64 19t67 5h263v-498h-164v149h-33zM190 317q0 -25 17.5 -33t67.5 -8h55v85h-56q-27 0 -43.5 -2t-25.5 -7
t-12 -13.5t-3 -21.5z" />
    </font>
</defs>
</svg>
